<svg width="101" height="45" viewBox="0 0 101 45" fill="none" xmlns="http://www.w3.org/2000/svg">
<path d="M9.78 5.4H9.264C9.24 5.008 9.18 4.684 9.084 4.428C8.996 4.164 8.868 3.956 8.7 3.804C8.532 3.644 8.328 3.536 8.088 3.48C7.848 3.416 7.568 3.384 7.248 3.384C6.936 3.384 6.684 3.392 6.492 3.408C6.308 3.416 6.164 3.436 6.06 3.468C5.964 3.492 5.9 3.528 5.868 3.576C5.836 3.624 5.82 3.684 5.82 3.756V10.044C5.82 10.3 5.836 10.52 5.868 10.704C5.908 10.888 5.984 11.04 6.096 11.16C6.208 11.272 6.372 11.36 6.588 11.424C6.804 11.48 7.088 11.512 7.44 11.52V12H2.412V11.52C2.772 11.512 3.06 11.48 3.276 11.424C3.492 11.36 3.656 11.272 3.768 11.16C3.888 11.04 3.964 10.888 3.996 10.704C4.036 10.52 4.056 10.3 4.056 10.044V3.756C4.056 3.684 4.04 3.624 4.008 3.576C3.984 3.528 3.928 3.492 3.84 3.468C3.752 3.436 3.624 3.416 3.456 3.408C3.296 3.392 3.084 3.384 2.82 3.384C2.532 3.384 2.256 3.4 1.992 3.432C1.728 3.456 1.496 3.536 1.296 3.672C1.096 3.8 0.932 4 0.804 4.272C0.684 4.536 0.62 4.912 0.612 5.4H0.144L0.264 2.76H9.66L9.78 5.4ZM15.4331 10.884C14.7051 11.708 13.7971 12.12 12.7091 12.12C12.2131 12.12 11.7611 12.044 11.3531 11.892C10.9531 11.732 10.6091 11.512 10.3211 11.232C10.0331 10.944 9.80913 10.604 9.64913 10.212C9.48913 9.82 9.40913 9.384 9.40913 8.904C9.40913 8.408 9.49313 7.956 9.66113 7.548C9.82913 7.132 10.0651 6.776 10.3691 6.48C10.6811 6.176 11.0451 5.94 11.4611 5.772C11.8851 5.604 12.3491 5.52 12.8531 5.52C13.7011 5.52 14.3611 5.748 14.8331 6.204C15.3051 6.66 15.5411 7.3 15.5411 8.124C15.5411 8.252 15.5211 8.332 15.4811 8.364C15.4411 8.388 15.3291 8.4 15.1451 8.4H11.2811C11.2491 8.472 11.2331 8.604 11.2331 8.796C11.2331 9.58 11.4011 10.2 11.7371 10.656C12.0811 11.112 12.5451 11.34 13.1291 11.34C13.4651 11.34 13.7971 11.264 14.1251 11.112C14.4611 10.96 14.7851 10.744 15.0971 10.464L15.4331 10.884ZM13.1051 7.728C13.4251 7.728 13.6291 7.712 13.7171 7.68C13.8131 7.64 13.8611 7.552 13.8611 7.416C13.8611 7.064 13.7611 6.776 13.5611 6.552C13.3611 6.328 13.1091 6.216 12.8051 6.216C12.4611 6.216 12.1531 6.36 11.8811 6.648C11.6171 6.928 11.4451 7.288 11.3651 7.728H13.1051ZM22.3087 11.004C22.0047 11.34 21.6247 11.6 21.1687 11.784C20.7207 11.968 20.2327 12.06 19.7047 12.06C19.2167 12.06 18.7727 11.984 18.3727 11.832C17.9727 11.672 17.6287 11.452 17.3407 11.172C17.0527 10.892 16.8287 10.556 16.6687 10.164C16.5167 9.764 16.4407 9.324 16.4407 8.844C16.4407 8.348 16.5247 7.896 16.6927 7.488C16.8607 7.08 17.0967 6.732 17.4007 6.444C17.7047 6.148 18.0687 5.92 18.4927 5.76C18.9167 5.6 19.3847 5.52 19.8967 5.52C20.2567 5.52 20.5887 5.556 20.8927 5.628C21.2047 5.7 21.4687 5.8 21.6847 5.928C21.9087 6.056 22.0847 6.208 22.2127 6.384C22.3407 6.552 22.4047 6.736 22.4047 6.936C22.4047 7.168 22.3367 7.352 22.2007 7.488C22.0727 7.624 21.8967 7.692 21.6727 7.692C21.4887 7.692 21.3247 7.644 21.1807 7.548C21.0447 7.452 20.9087 7.296 20.7727 7.08C20.6527 6.888 20.5487 6.736 20.4607 6.624C20.3807 6.512 20.3047 6.428 20.2327 6.372C20.1607 6.308 20.0887 6.268 20.0167 6.252C19.9447 6.228 19.8567 6.216 19.7527 6.216C19.2887 6.216 18.9287 6.432 18.6727 6.864C18.4167 7.296 18.2887 7.9 18.2887 8.676C18.2887 9.508 18.4407 10.148 18.7447 10.596C19.0567 11.044 19.5007 11.268 20.0767 11.268C20.4047 11.268 20.7327 11.208 21.0607 11.088C21.3887 10.96 21.7007 10.78 21.9967 10.548L22.3087 11.004ZM23.0461 6.3V5.76C23.5261 5.624 23.9261 5.42 24.2461 5.148C24.5741 4.868 24.8181 4.548 24.9781 4.188H25.5901V5.64H26.9701V6.3H25.5901V9.984C25.5901 10.48 25.6421 10.832 25.7461 11.04C25.8581 11.248 26.0421 11.352 26.2981 11.352C26.6101 11.352 26.8461 11.208 27.0061 10.92L27.2581 11.268C27.0341 11.836 26.5061 12.12 25.6741 12.12C25.1221 12.12 24.6901 11.992 24.3781 11.736C24.0741 11.48 23.9221 11.12 23.9221 10.656V6.3H23.0461ZM31.2641 5.52C31.7441 5.52 32.1961 5.604 32.6201 5.772C33.0521 5.932 33.4281 6.156 33.7481 6.444C34.0761 6.732 34.3321 7.076 34.5161 7.476C34.7081 7.868 34.8041 8.3 34.8041 8.772C34.8041 9.26 34.7081 9.708 34.5161 10.116C34.3321 10.524 34.0761 10.876 33.7481 11.172C33.4281 11.468 33.0521 11.7 32.6201 11.868C32.1961 12.036 31.7441 12.12 31.2641 12.12C30.7921 12.12 30.3441 12.04 29.9201 11.88C29.4961 11.712 29.1241 11.48 28.8041 11.184C28.4841 10.888 28.2321 10.536 28.0481 10.128C27.8641 9.712 27.7721 9.26 27.7721 8.772C27.7721 8.3 27.8641 7.864 28.0481 7.464C28.2321 7.064 28.4841 6.72 28.8041 6.432C29.1241 6.144 29.4961 5.92 29.9201 5.76C30.3441 5.6 30.7921 5.52 31.2641 5.52ZM31.2641 6.216C31.0241 6.216 30.8041 6.28 30.6041 6.408C30.4041 6.528 30.2321 6.7 30.0881 6.924C29.9521 7.148 29.8441 7.42 29.7641 7.74C29.6921 8.052 29.6561 8.4 29.6561 8.784C29.6561 9.184 29.6921 9.544 29.7641 9.864C29.8441 10.184 29.9521 10.456 30.0881 10.68C30.2321 10.904 30.4001 11.08 30.5921 11.208C30.7921 11.328 31.0161 11.388 31.2641 11.388C31.5121 11.388 31.7361 11.328 31.9361 11.208C32.1441 11.08 32.3201 10.904 32.4641 10.68C32.6081 10.448 32.7201 10.172 32.8001 9.852C32.8801 9.532 32.9201 9.176 32.9201 8.784C32.9201 8.4 32.8801 8.052 32.8001 7.74C32.7201 7.428 32.6081 7.16 32.4641 6.936C32.3201 6.704 32.1441 6.528 31.9361 6.408C31.7361 6.28 31.5121 6.216 31.2641 6.216ZM38.334 10.044C38.334 10.372 38.342 10.632 38.358 10.824C38.382 11.008 38.426 11.152 38.49 11.256C38.562 11.352 38.666 11.416 38.802 11.448C38.946 11.48 39.138 11.504 39.378 11.52V12H35.598V11.52C35.83 11.504 36.014 11.48 36.15 11.448C36.294 11.416 36.402 11.352 36.474 11.256C36.554 11.16 36.606 11.024 36.63 10.848C36.654 10.672 36.666 10.432 36.666 10.128V8.628C36.666 8.156 36.658 7.776 36.642 7.488C36.626 7.192 36.606 6.992 36.582 6.888C36.558 6.784 36.526 6.7 36.486 6.636C36.446 6.564 36.386 6.512 36.306 6.48C36.226 6.44 36.126 6.416 36.006 6.408C35.886 6.392 35.734 6.384 35.55 6.384V5.976L37.866 5.52L38.022 6.576H38.07C38.334 6.24 38.646 5.98 39.006 5.796C39.366 5.612 39.762 5.52 40.194 5.52C40.706 5.52 41.118 5.592 41.43 5.736C41.75 5.872 42.034 6.104 42.282 6.432C42.418 6.616 42.538 6.856 42.642 7.152C42.746 7.44 42.798 7.84 42.798 8.352V10.044C42.798 10.372 42.806 10.632 42.822 10.824C42.846 11.008 42.89 11.152 42.954 11.256C43.026 11.352 43.13 11.416 43.266 11.448C43.402 11.48 43.586 11.504 43.818 11.52V12H40.062V11.52C40.302 11.512 40.49 11.492 40.626 11.46C40.77 11.42 40.878 11.352 40.95 11.256C41.022 11.16 41.07 11.024 41.094 10.848C41.118 10.664 41.13 10.424 41.13 10.128V8.496C41.13 8.088 41.106 7.744 41.058 7.464C41.01 7.184 40.93 6.96 40.818 6.792C40.714 6.616 40.574 6.492 40.398 6.42C40.222 6.34 40.002 6.3 39.738 6.3C39.482 6.3 39.262 6.372 39.078 6.516C38.894 6.66 38.734 6.86 38.598 7.116C38.526 7.26 38.462 7.448 38.406 7.68C38.358 7.904 38.334 8.14 38.334 8.388V10.044ZM47.0527 10.032C47.0527 10.352 47.0648 10.608 47.0888 10.8C47.1128 10.992 47.1608 11.14 47.2328 11.244C47.3048 11.348 47.4088 11.42 47.5448 11.46C47.6808 11.492 47.8648 11.512 48.0968 11.52V12H44.3168V11.52C44.5408 11.512 44.7208 11.488 44.8568 11.448C45.0008 11.4 45.1088 11.328 45.1808 11.232C45.2608 11.128 45.3128 10.988 45.3368 10.812C45.3688 10.628 45.3848 10.396 45.3848 10.116V8.64C45.3848 8.176 45.3768 7.796 45.3608 7.5C45.3448 7.196 45.3248 6.988 45.3008 6.876C45.2608 6.676 45.1688 6.544 45.0248 6.48C44.8888 6.416 44.6368 6.384 44.2688 6.384V5.976L47.0527 5.52V10.032ZM45.2888 2.976C45.2888 2.712 45.3768 2.492 45.5527 2.316C45.7368 2.132 45.9568 2.04 46.2128 2.04C46.4768 2.04 46.6968 2.132 46.8728 2.316C47.0568 2.492 47.1488 2.712 47.1488 2.976C47.1488 3.232 47.0568 3.452 46.8728 3.636C46.6968 3.812 46.4768 3.9 46.2128 3.9C45.9568 3.9 45.7368 3.812 45.5527 3.636C45.3768 3.452 45.2888 3.232 45.2888 2.976ZM54.6407 11.004C54.3367 11.34 53.9567 11.6 53.5007 11.784C53.0527 11.968 52.5647 12.06 52.0367 12.06C51.5487 12.06 51.1047 11.984 50.7047 11.832C50.3047 11.672 49.9607 11.452 49.6727 11.172C49.3847 10.892 49.1607 10.556 49.0007 10.164C48.8487 9.764 48.7727 9.324 48.7727 8.844C48.7727 8.348 48.8567 7.896 49.0247 7.488C49.1927 7.08 49.4287 6.732 49.7327 6.444C50.0367 6.148 50.4007 5.92 50.8247 5.76C51.2487 5.6 51.7167 5.52 52.2287 5.52C52.5887 5.52 52.9207 5.556 53.2247 5.628C53.5367 5.7 53.8007 5.8 54.0167 5.928C54.2407 6.056 54.4167 6.208 54.5447 6.384C54.6727 6.552 54.7367 6.736 54.7367 6.936C54.7367 7.168 54.6687 7.352 54.5327 7.488C54.4047 7.624 54.2287 7.692 54.0047 7.692C53.8207 7.692 53.6567 7.644 53.5127 7.548C53.3767 7.452 53.2407 7.296 53.1047 7.08C52.9847 6.888 52.8807 6.736 52.7927 6.624C52.7127 6.512 52.6367 6.428 52.5647 6.372C52.4927 6.308 52.4207 6.268 52.3487 6.252C52.2767 6.228 52.1887 6.216 52.0847 6.216C51.6207 6.216 51.2607 6.432 51.0047 6.864C50.7487 7.296 50.6207 7.9 50.6207 8.676C50.6207 9.508 50.7727 10.148 51.0767 10.596C51.3887 11.044 51.8327 11.268 52.4087 11.268C52.7367 11.268 53.0647 11.208 53.3927 11.088C53.7207 10.96 54.0327 10.78 54.3287 10.548L54.6407 11.004ZM3.444 21.888C3.956 21.888 4.368 21.872 4.68 21.84C4.992 21.808 5.232 21.744 5.4 21.648C5.576 21.544 5.7 21.396 5.772 21.204C5.844 21.012 5.9 20.752 5.94 20.424H6.384V23.94H5.94C5.892 23.62 5.828 23.364 5.748 23.172C5.668 22.98 5.54 22.836 5.364 22.74C5.188 22.636 4.948 22.572 4.644 22.548C4.348 22.516 3.948 22.5 3.444 22.5V24.972C3.444 25.228 3.476 25.444 3.54 25.62C3.612 25.796 3.728 25.94 3.888 26.052C4.048 26.156 4.26 26.232 4.524 26.28C4.788 26.32 5.112 26.34 5.496 26.34C5.952 26.34 6.336 26.308 6.648 26.244C6.968 26.18 7.232 26.068 7.44 25.908C7.648 25.748 7.816 25.536 7.944 25.272C8.072 25 8.18 24.66 8.268 24.252H8.748L8.556 27H0.42V26.52C0.684 26.512 0.9 26.488 1.068 26.448C1.236 26.408 1.364 26.34 1.452 26.244C1.54 26.148 1.6 26.012 1.632 25.836C1.664 25.66 1.68 25.432 1.68 25.152V19.608C1.68 19.328 1.664 19.104 1.632 18.936C1.608 18.76 1.556 18.624 1.476 18.528C1.396 18.424 1.28 18.356 1.128 18.324C0.984 18.284 0.792 18.256 0.552 18.24V17.76H8.136L8.22 20.112H7.704C7.656 19.776 7.58 19.5 7.476 19.284C7.372 19.06 7.228 18.884 7.044 18.756C6.86 18.62 6.62 18.528 6.324 18.48C6.036 18.424 5.68 18.396 5.256 18.396H3.9C3.692 18.396 3.564 18.424 3.516 18.48C3.468 18.528 3.444 18.648 3.444 18.84V21.888ZM12.2481 25.044C12.2481 25.372 12.2561 25.632 12.2721 25.824C12.2961 26.008 12.3401 26.152 12.4041 26.256C12.4761 26.352 12.5801 26.416 12.7161 26.448C12.8601 26.48 13.0521 26.504 13.2921 26.52V27H9.51206V26.52C9.74406 26.504 9.92806 26.48 10.0641 26.448C10.2081 26.416 10.3161 26.352 10.3881 26.256C10.4681 26.16 10.5201 26.024 10.5441 25.848C10.5681 25.672 10.5801 25.432 10.5801 25.128V23.628C10.5801 23.156 10.5721 22.776 10.5561 22.488C10.5401 22.192 10.5201 21.992 10.4961 21.888C10.4721 21.784 10.4401 21.7 10.4001 21.636C10.3601 21.564 10.3001 21.512 10.2201 21.48C10.1401 21.44 10.0401 21.416 9.92006 21.408C9.80006 21.392 9.64806 21.384 9.46406 21.384V20.976L11.7801 20.52L11.9361 21.576H11.9841C12.2481 21.24 12.5601 20.98 12.9201 20.796C13.2801 20.612 13.6761 20.52 14.1081 20.52C14.6201 20.52 15.0321 20.592 15.3441 20.736C15.6641 20.872 15.9481 21.104 16.1961 21.432C16.3321 21.616 16.4521 21.856 16.5561 22.152C16.6601 22.44 16.7121 22.84 16.7121 23.352V25.044C16.7121 25.372 16.7201 25.632 16.7361 25.824C16.7601 26.008 16.8041 26.152 16.8681 26.256C16.9401 26.352 17.0441 26.416 17.1801 26.448C17.3161 26.48 17.5001 26.504 17.7321 26.52V27H13.9761V26.52C14.2161 26.512 14.4041 26.492 14.5401 26.46C14.6841 26.42 14.7921 26.352 14.8641 26.256C14.9361 26.16 14.9841 26.024 15.0081 25.848C15.0321 25.664 15.0441 25.424 15.0441 25.128V23.496C15.0441 23.088 15.0201 22.744 14.9721 22.464C14.9241 22.184 14.8441 21.96 14.7321 21.792C14.6281 21.616 14.4881 21.492 14.3121 21.42C14.1361 21.34 13.9161 21.3 13.6521 21.3C13.3961 21.3 13.1761 21.372 12.9921 21.516C12.8081 21.66 12.6481 21.86 12.5121 22.116C12.4401 22.26 12.3761 22.448 12.3201 22.68C12.2721 22.904 12.2481 23.14 12.2481 23.388V25.044ZM20.6188 25.704C20.8348 25.72 21.0228 25.736 21.1828 25.752C21.3508 25.768 21.5068 25.788 21.6508 25.812C21.8028 25.828 21.9508 25.848 22.0948 25.872C22.2468 25.888 22.4068 25.908 22.5748 25.932C23.1988 26.02 23.6868 26.256 24.0388 26.64C24.3988 27.016 24.5788 27.484 24.5788 28.044C24.5788 28.724 24.2988 29.24 23.7388 29.592C23.1788 29.944 22.3548 30.12 21.2668 30.12C20.2668 30.12 19.4948 29.972 18.9508 29.676C18.4148 29.388 18.1468 28.976 18.1468 28.44C18.1468 28.024 18.2548 27.708 18.4708 27.492C18.6868 27.284 18.9588 27.18 19.2868 27.18C19.4948 27.18 19.6948 27.22 19.8868 27.3C20.0868 27.388 20.2548 27.512 20.3908 27.672C20.1828 27.712 20.0108 27.804 19.8748 27.948C19.7468 28.1 19.6828 28.276 19.6828 28.476C19.6828 28.796 19.8228 29.04 20.1028 29.208C20.3908 29.384 20.8108 29.472 21.3628 29.472C22.5628 29.472 23.1628 29.092 23.1628 28.332C23.1628 28.06 23.0708 27.824 22.8868 27.624C22.7108 27.432 22.4548 27.316 22.1188 27.276L20.0188 26.988C19.1308 26.868 18.6868 26.472 18.6868 25.8C18.6868 25.472 18.7908 25.204 18.9988 24.996C19.2148 24.788 19.5188 24.644 19.9108 24.564V24.516C19.7268 24.444 19.5588 24.344 19.4068 24.216C19.2628 24.088 19.1348 23.94 19.0228 23.772C18.9108 23.604 18.8228 23.424 18.7588 23.232C18.7028 23.032 18.6748 22.828 18.6748 22.62C18.6748 22.324 18.7348 22.048 18.8548 21.792C18.9828 21.528 19.1548 21.304 19.3708 21.12C19.5948 20.936 19.8548 20.792 20.1508 20.688C20.4548 20.576 20.7828 20.52 21.1348 20.52C21.4788 20.52 21.8148 20.572 22.1428 20.676C22.4708 20.78 22.7508 20.924 22.9828 21.108C23.1668 20.996 23.3268 20.904 23.4628 20.832C23.5988 20.752 23.7228 20.692 23.8348 20.652C23.9548 20.604 24.0628 20.572 24.1588 20.556C24.2548 20.532 24.3508 20.52 24.4468 20.52C24.7508 20.52 24.9948 20.588 25.1788 20.724C25.3708 20.86 25.4668 21.04 25.4668 21.264C25.4668 21.432 25.4148 21.572 25.3108 21.684C25.2068 21.788 25.0708 21.84 24.9028 21.84C24.7828 21.84 24.6868 21.816 24.6148 21.768C24.5428 21.712 24.4708 21.652 24.3988 21.588C24.3348 21.516 24.2668 21.456 24.1948 21.408C24.1228 21.352 24.0268 21.324 23.9068 21.324C23.7388 21.324 23.5788 21.432 23.4268 21.648C23.5068 21.784 23.5628 21.932 23.5948 22.092C23.6268 22.244 23.6428 22.424 23.6428 22.632C23.6428 22.936 23.5948 23.216 23.4988 23.472C23.4028 23.728 23.2508 23.956 23.0428 24.156C22.8428 24.348 22.5828 24.512 22.2628 24.648C21.9428 24.784 21.5548 24.876 21.0988 24.924C20.7148 24.964 20.4468 25.016 20.2948 25.08C20.1508 25.144 20.0788 25.24 20.0788 25.368C20.0788 25.56 20.2588 25.672 20.6188 25.704ZM21.1948 24.24C21.4508 24.24 21.6508 24.104 21.7948 23.832C21.9388 23.56 22.0108 23.18 22.0108 22.692C22.0108 22.196 21.9388 21.816 21.7948 21.552C21.6508 21.28 21.4468 21.144 21.1828 21.144C20.9108 21.144 20.6948 21.28 20.5348 21.552C20.3748 21.824 20.2948 22.196 20.2948 22.668C20.2948 23.148 20.3748 23.532 20.5348 23.82C20.7028 24.1 20.9228 24.24 21.1948 24.24ZM28.291 25.032C28.291 25.352 28.303 25.608 28.327 25.8C28.351 25.992 28.399 26.14 28.471 26.244C28.543 26.348 28.647 26.42 28.783 26.46C28.919 26.492 29.103 26.512 29.335 26.52V27H25.555V26.52C25.779 26.512 25.959 26.488 26.095 26.448C26.239 26.4 26.347 26.328 26.419 26.232C26.499 26.128 26.551 25.988 26.575 25.812C26.607 25.628 26.623 25.396 26.623 25.116V23.64C26.623 23.176 26.615 22.796 26.599 22.5C26.583 22.196 26.563 21.988 26.539 21.876C26.499 21.676 26.407 21.544 26.263 21.48C26.127 21.416 25.875 21.384 25.507 21.384V20.976L28.291 20.52V25.032ZM26.527 17.976C26.527 17.712 26.615 17.492 26.791 17.316C26.975 17.132 27.195 17.04 27.451 17.04C27.715 17.04 27.935 17.132 28.111 17.316C28.295 17.492 28.387 17.712 28.387 17.976C28.387 18.232 28.295 18.452 28.111 18.636C27.935 18.812 27.715 18.9 27.451 18.9C27.195 18.9 26.975 18.812 26.791 18.636C26.615 18.452 26.527 18.232 26.527 17.976ZM32.627 25.044C32.627 25.372 32.635 25.632 32.651 25.824C32.675 26.008 32.719 26.152 32.783 26.256C32.855 26.352 32.959 26.416 33.095 26.448C33.239 26.48 33.431 26.504 33.671 26.52V27H29.891V26.52C30.123 26.504 30.307 26.48 30.443 26.448C30.587 26.416 30.695 26.352 30.767 26.256C30.847 26.16 30.899 26.024 30.923 25.848C30.947 25.672 30.959 25.432 30.959 25.128V23.628C30.959 23.156 30.951 22.776 30.935 22.488C30.919 22.192 30.899 21.992 30.875 21.888C30.851 21.784 30.819 21.7 30.779 21.636C30.739 21.564 30.679 21.512 30.599 21.48C30.519 21.44 30.419 21.416 30.299 21.408C30.179 21.392 30.027 21.384 29.843 21.384V20.976L32.159 20.52L32.315 21.576H32.363C32.627 21.24 32.939 20.98 33.299 20.796C33.659 20.612 34.055 20.52 34.487 20.52C34.999 20.52 35.411 20.592 35.723 20.736C36.043 20.872 36.327 21.104 36.575 21.432C36.711 21.616 36.831 21.856 36.935 22.152C37.039 22.44 37.091 22.84 37.091 23.352V25.044C37.091 25.372 37.099 25.632 37.115 25.824C37.139 26.008 37.183 26.152 37.247 26.256C37.319 26.352 37.423 26.416 37.559 26.448C37.695 26.48 37.879 26.504 38.111 26.52V27H34.355V26.52C34.595 26.512 34.783 26.492 34.919 26.46C35.063 26.42 35.171 26.352 35.243 26.256C35.315 26.16 35.363 26.024 35.387 25.848C35.411 25.664 35.423 25.424 35.423 25.128V23.496C35.423 23.088 35.399 22.744 35.351 22.464C35.303 22.184 35.223 21.96 35.111 21.792C35.007 21.616 34.867 21.492 34.691 21.42C34.515 21.34 34.295 21.3 34.031 21.3C33.775 21.3 33.555 21.372 33.371 21.516C33.187 21.66 33.027 21.86 32.891 22.116C32.819 22.26 32.755 22.448 32.699 22.68C32.651 22.904 32.627 23.14 32.627 23.388V25.044ZM44.7417 25.884C44.0137 26.708 43.1057 27.12 42.0177 27.12C41.5217 27.12 41.0697 27.044 40.6617 26.892C40.2617 26.732 39.9177 26.512 39.6297 26.232C39.3417 25.944 39.1177 25.604 38.9577 25.212C38.7977 24.82 38.7177 24.384 38.7177 23.904C38.7177 23.408 38.8017 22.956 38.9697 22.548C39.1377 22.132 39.3737 21.776 39.6777 21.48C39.9897 21.176 40.3537 20.94 40.7697 20.772C41.1937 20.604 41.6577 20.52 42.1617 20.52C43.0097 20.52 43.6697 20.748 44.1417 21.204C44.6137 21.66 44.8497 22.3 44.8497 23.124C44.8497 23.252 44.8297 23.332 44.7897 23.364C44.7497 23.388 44.6377 23.4 44.4537 23.4H40.5897C40.5577 23.472 40.5417 23.604 40.5417 23.796C40.5417 24.58 40.7097 25.2 41.0457 25.656C41.3897 26.112 41.8537 26.34 42.4377 26.34C42.7737 26.34 43.1057 26.264 43.4337 26.112C43.7697 25.96 44.0937 25.744 44.4057 25.464L44.7417 25.884ZM42.4137 22.728C42.7337 22.728 42.9377 22.712 43.0257 22.68C43.1217 22.64 43.1697 22.552 43.1697 22.416C43.1697 22.064 43.0697 21.776 42.8697 21.552C42.6697 21.328 42.4177 21.216 42.1137 21.216C41.7697 21.216 41.4617 21.36 41.1897 21.648C40.9257 21.928 40.7537 22.288 40.6737 22.728H42.4137ZM51.7613 25.884C51.0333 26.708 50.1253 27.12 49.0373 27.12C48.5413 27.12 48.0893 27.044 47.6813 26.892C47.2813 26.732 46.9373 26.512 46.6493 26.232C46.3613 25.944 46.1373 25.604 45.9773 25.212C45.8173 24.82 45.7373 24.384 45.7373 23.904C45.7373 23.408 45.8213 22.956 45.9893 22.548C46.1573 22.132 46.3933 21.776 46.6973 21.48C47.0093 21.176 47.3733 20.94 47.7893 20.772C48.2133 20.604 48.6773 20.52 49.1813 20.52C50.0293 20.52 50.6893 20.748 51.1613 21.204C51.6333 21.66 51.8693 22.3 51.8693 23.124C51.8693 23.252 51.8493 23.332 51.8093 23.364C51.7693 23.388 51.6573 23.4 51.4733 23.4H47.6093C47.5773 23.472 47.5613 23.604 47.5613 23.796C47.5613 24.58 47.7293 25.2 48.0653 25.656C48.4093 26.112 48.8733 26.34 49.4573 26.34C49.7933 26.34 50.1253 26.264 50.4533 26.112C50.7893 25.96 51.1133 25.744 51.4253 25.464L51.7613 25.884ZM49.4333 22.728C49.7533 22.728 49.9573 22.712 50.0453 22.68C50.1413 22.64 50.1893 22.552 50.1893 22.416C50.1893 22.064 50.0893 21.776 49.8893 21.552C49.6893 21.328 49.4373 21.216 49.1333 21.216C48.7893 21.216 48.4813 21.36 48.2093 21.648C47.9453 21.928 47.7733 22.288 47.6933 22.728H49.4333ZM55.3968 25.14C55.3968 25.452 55.4088 25.7 55.4328 25.884C55.4648 26.06 55.5248 26.196 55.6128 26.292C55.7008 26.388 55.8288 26.452 55.9968 26.484C56.1648 26.508 56.3888 26.52 56.6688 26.52V27H52.6608V26.52C52.9008 26.504 53.0928 26.48 53.2368 26.448C53.3808 26.416 53.4888 26.352 53.5608 26.256C53.6328 26.16 53.6768 26.024 53.6928 25.848C53.7168 25.664 53.7288 25.42 53.7288 25.116V23.652C53.7288 23.156 53.7168 22.76 53.6928 22.464C53.6688 22.168 53.6168 21.94 53.5368 21.78C53.4568 21.62 53.3408 21.516 53.1888 21.468C53.0448 21.412 52.8528 21.384 52.6128 21.384V20.964L55.0128 20.52L55.2048 21.9H55.2528C55.4688 21.476 55.7528 21.14 56.1048 20.892C56.4568 20.644 56.8288 20.52 57.2208 20.52C57.5248 20.52 57.7728 20.596 57.9648 20.748C58.1568 20.9 58.2528 21.092 58.2528 21.324C58.2528 21.58 58.1768 21.796 58.0248 21.972C57.8808 22.148 57.6808 22.236 57.4248 22.236C57.3048 22.236 57.1968 22.212 57.1008 22.164C57.0048 22.116 56.9168 22.064 56.8368 22.008C56.7648 21.944 56.6888 21.888 56.6088 21.84C56.5368 21.784 56.4608 21.756 56.3808 21.756C56.2288 21.756 56.0848 21.856 55.9488 22.056C55.8128 22.256 55.7008 22.524 55.6128 22.86C55.5488 23.1 55.4968 23.372 55.4568 23.676C55.4168 23.972 55.3968 24.268 55.3968 24.564V25.14ZM61.3613 25.032C61.3613 25.352 61.3733 25.608 61.3973 25.8C61.4213 25.992 61.4693 26.14 61.5413 26.244C61.6133 26.348 61.7173 26.42 61.8533 26.46C61.9893 26.492 62.1733 26.512 62.4053 26.52V27H58.6253V26.52C58.8493 26.512 59.0293 26.488 59.1653 26.448C59.3093 26.4 59.4173 26.328 59.4893 26.232C59.5693 26.128 59.6213 25.988 59.6453 25.812C59.6773 25.628 59.6933 25.396 59.6933 25.116V23.64C59.6933 23.176 59.6853 22.796 59.6693 22.5C59.6533 22.196 59.6333 21.988 59.6093 21.876C59.5693 21.676 59.4773 21.544 59.3333 21.48C59.1973 21.416 58.9453 21.384 58.5773 21.384V20.976L61.3613 20.52V25.032ZM59.5973 17.976C59.5973 17.712 59.6853 17.492 59.8613 17.316C60.0453 17.132 60.2653 17.04 60.5213 17.04C60.7853 17.04 61.0053 17.132 61.1813 17.316C61.3653 17.492 61.4573 17.712 61.4573 17.976C61.4573 18.232 61.3653 18.452 61.1813 18.636C61.0053 18.812 60.7853 18.9 60.5213 18.9C60.2653 18.9 60.0453 18.812 59.8613 18.636C59.6853 18.452 59.5973 18.232 59.5973 17.976ZM65.6973 25.044C65.6973 25.372 65.7053 25.632 65.7213 25.824C65.7453 26.008 65.7893 26.152 65.8533 26.256C65.9253 26.352 66.0293 26.416 66.1653 26.448C66.3093 26.48 66.5013 26.504 66.7413 26.52V27H62.9613V26.52C63.1933 26.504 63.3773 26.48 63.5133 26.448C63.6573 26.416 63.7653 26.352 63.8373 26.256C63.9173 26.16 63.9693 26.024 63.9933 25.848C64.0173 25.672 64.0293 25.432 64.0293 25.128V23.628C64.0293 23.156 64.0213 22.776 64.0053 22.488C63.9893 22.192 63.9693 21.992 63.9453 21.888C63.9213 21.784 63.8893 21.7 63.8493 21.636C63.8093 21.564 63.7493 21.512 63.6693 21.48C63.5893 21.44 63.4893 21.416 63.3693 21.408C63.2493 21.392 63.0973 21.384 62.9133 21.384V20.976L65.2293 20.52L65.3853 21.576H65.4333C65.6973 21.24 66.0093 20.98 66.3693 20.796C66.7293 20.612 67.1253 20.52 67.5573 20.52C68.0693 20.52 68.4813 20.592 68.7933 20.736C69.1133 20.872 69.3973 21.104 69.6453 21.432C69.7813 21.616 69.9013 21.856 70.0053 22.152C70.1093 22.44 70.1613 22.84 70.1613 23.352V25.044C70.1613 25.372 70.1693 25.632 70.1853 25.824C70.2093 26.008 70.2533 26.152 70.3173 26.256C70.3893 26.352 70.4933 26.416 70.6293 26.448C70.7653 26.48 70.9493 26.504 71.1813 26.52V27H67.4253V26.52C67.6653 26.512 67.8533 26.492 67.9893 26.46C68.1333 26.42 68.2413 26.352 68.3133 26.256C68.3853 26.16 68.4333 26.024 68.4573 25.848C68.4813 25.664 68.4933 25.424 68.4933 25.128V23.496C68.4933 23.088 68.4693 22.744 68.4213 22.464C68.3733 22.184 68.2933 21.96 68.1813 21.792C68.0773 21.616 67.9373 21.492 67.7613 21.42C67.5853 21.34 67.3653 21.3 67.1013 21.3C66.8453 21.3 66.6253 21.372 66.4413 21.516C66.2573 21.66 66.0973 21.86 65.9613 22.116C65.8893 22.26 65.8253 22.448 65.7693 22.68C65.7213 22.904 65.6973 23.14 65.6973 23.388V25.044ZM74.068 25.704C74.284 25.72 74.472 25.736 74.632 25.752C74.8 25.768 74.956 25.788 75.1 25.812C75.252 25.828 75.4 25.848 75.544 25.872C75.696 25.888 75.856 25.908 76.024 25.932C76.648 26.02 77.136 26.256 77.488 26.64C77.848 27.016 78.028 27.484 78.028 28.044C78.028 28.724 77.748 29.24 77.188 29.592C76.628 29.944 75.804 30.12 74.716 30.12C73.716 30.12 72.944 29.972 72.4 29.676C71.864 29.388 71.596 28.976 71.596 28.44C71.596 28.024 71.704 27.708 71.92 27.492C72.136 27.284 72.408 27.18 72.736 27.18C72.944 27.18 73.144 27.22 73.336 27.3C73.536 27.388 73.704 27.512 73.84 27.672C73.632 27.712 73.46 27.804 73.324 27.948C73.196 28.1 73.132 28.276 73.132 28.476C73.132 28.796 73.272 29.04 73.552 29.208C73.84 29.384 74.26 29.472 74.812 29.472C76.012 29.472 76.612 29.092 76.612 28.332C76.612 28.06 76.52 27.824 76.336 27.624C76.16 27.432 75.904 27.316 75.568 27.276L73.468 26.988C72.58 26.868 72.136 26.472 72.136 25.8C72.136 25.472 72.24 25.204 72.448 24.996C72.664 24.788 72.968 24.644 73.36 24.564V24.516C73.176 24.444 73.008 24.344 72.856 24.216C72.712 24.088 72.584 23.94 72.472 23.772C72.36 23.604 72.272 23.424 72.208 23.232C72.152 23.032 72.124 22.828 72.124 22.62C72.124 22.324 72.184 22.048 72.304 21.792C72.432 21.528 72.604 21.304 72.82 21.12C73.044 20.936 73.304 20.792 73.6 20.688C73.904 20.576 74.232 20.52 74.584 20.52C74.928 20.52 75.264 20.572 75.592 20.676C75.92 20.78 76.2 20.924 76.432 21.108C76.616 20.996 76.776 20.904 76.912 20.832C77.048 20.752 77.172 20.692 77.284 20.652C77.404 20.604 77.512 20.572 77.608 20.556C77.704 20.532 77.8 20.52 77.896 20.52C78.2 20.52 78.444 20.588 78.628 20.724C78.82 20.86 78.916 21.04 78.916 21.264C78.916 21.432 78.864 21.572 78.76 21.684C78.656 21.788 78.52 21.84 78.352 21.84C78.232 21.84 78.136 21.816 78.064 21.768C77.992 21.712 77.92 21.652 77.848 21.588C77.784 21.516 77.716 21.456 77.644 21.408C77.572 21.352 77.476 21.324 77.356 21.324C77.188 21.324 77.028 21.432 76.876 21.648C76.956 21.784 77.012 21.932 77.044 22.092C77.076 22.244 77.092 22.424 77.092 22.632C77.092 22.936 77.044 23.216 76.948 23.472C76.852 23.728 76.7 23.956 76.492 24.156C76.292 24.348 76.032 24.512 75.712 24.648C75.392 24.784 75.004 24.876 74.548 24.924C74.164 24.964 73.896 25.016 73.744 25.08C73.6 25.144 73.528 25.24 73.528 25.368C73.528 25.56 73.708 25.672 74.068 25.704ZM74.644 24.24C74.9 24.24 75.1 24.104 75.244 23.832C75.388 23.56 75.46 23.18 75.46 22.692C75.46 22.196 75.388 21.816 75.244 21.552C75.1 21.28 74.896 21.144 74.632 21.144C74.36 21.144 74.144 21.28 73.984 21.552C73.824 21.824 73.744 22.196 73.744 22.668C73.744 23.148 73.824 23.532 73.984 23.82C74.152 24.1 74.372 24.24 74.644 24.24Z" fill="black"/>
<path d="M19.4141 35.5664C19.4141 35.5846 19.431 35.5938 19.4648 35.5938C19.4883 35.5938 19.5938 35.5781 19.7812 35.5469C19.9714 35.5156 20.1432 35.4987 20.2969 35.4961C20.125 35.543 19.9766 35.5911 19.8516 35.6406C19.7292 35.6875 19.6016 35.7409 19.4688 35.8008C19.3385 35.8581 19.2448 35.8971 19.1875 35.918C19.1302 35.9362 19.0807 35.9453 19.0391 35.9453C18.9062 35.9453 18.8398 35.8594 18.8398 35.6875C18.8398 35.2448 18.9518 34.9336 19.1758 34.7539C19.2669 34.681 19.4128 34.5951 19.6133 34.4961C19.8164 34.3945 20.0443 34.2995 20.2969 34.2109C20.5521 34.1198 20.832 34.0417 21.1367 33.9766C21.4414 33.9115 21.7422 33.8789 22.0391 33.8789C22.3438 33.8789 22.6237 33.9232 22.8789 34.0117C23.1341 34.1003 23.3477 34.2253 23.5195 34.3867C23.6914 34.5456 23.8229 34.7409 23.9141 34.9727C24.0078 35.2044 24.0547 35.4648 24.0547 35.7539C24.0547 36.194 23.9271 36.6211 23.6719 37.0352C23.4193 37.4492 23.0807 37.8151 22.6562 38.1328C22.2344 38.4479 21.7578 38.6979 21.2266 38.8828C20.6953 39.0677 20.1719 39.1602 19.6562 39.1602C19.5599 39.1602 19.4831 39.1497 19.4258 39.1289C19.3711 39.1081 19.332 39.0664 19.3086 39.0039C19.2852 38.944 19.2734 38.8542 19.2734 38.7344C19.2734 38.5859 19.2852 38.4648 19.3086 38.3711C19.332 38.2773 19.3711 38.1693 19.4258 38.0469C19.8008 37.2161 20.4531 36.1706 21.3828 34.9102C21.1953 34.931 20.9896 34.9714 20.7656 35.0312C20.5417 35.0885 20.3294 35.1523 20.1289 35.2227C19.9284 35.293 19.7591 35.3607 19.6211 35.4258C19.4831 35.4909 19.4141 35.5378 19.4141 35.5664ZM21.4961 34.8867C21.4961 34.8919 21.5013 34.9219 21.5117 34.9766C21.5221 35.0286 21.5273 35.0742 21.5273 35.1133C21.5273 35.1732 21.4961 35.2578 21.4336 35.3672C21.3737 35.474 21.2539 35.6654 21.0742 35.9414C20.8945 36.2174 20.7409 36.4596 20.6133 36.668C20.4857 36.8763 20.3346 37.1445 20.1602 37.4727C20.1055 37.5768 20.0677 37.6471 20.0469 37.6836C20.026 37.7201 19.9922 37.7799 19.9453 37.8633C19.901 37.9466 19.8685 38.0182 19.8477 38.0781C19.8268 38.138 19.8164 38.1836 19.8164 38.2148C19.8164 38.2826 19.8529 38.3307 19.9258 38.3594C20.0013 38.3854 20.1081 38.3984 20.2461 38.3984C20.6003 38.3984 20.9753 38.3346 21.3711 38.207C21.7669 38.0768 22.138 37.8971 22.4844 37.668C22.8333 37.4388 23.112 37.1797 23.3203 36.8906C23.5286 36.6016 23.6328 36.2995 23.6328 35.9844C23.6328 35.625 23.5013 35.349 23.2383 35.1562C22.9753 34.9609 22.5924 34.8633 22.0898 34.8633C21.8789 34.8633 21.681 34.8711 21.4961 34.8867ZM25.0994 37.9102V38.0078C25.0994 38.1615 25.1371 38.2812 25.2127 38.3672C25.2882 38.4531 25.3871 38.4961 25.5095 38.4961C25.6371 38.4961 25.7686 38.4661 25.9041 38.4062C26.0421 38.3464 26.1788 38.2669 26.3142 38.168C26.4496 38.069 26.615 37.9362 26.8103 37.7695V38.0078C26.516 38.362 26.24 38.6341 25.9822 38.8242C25.7244 39.0117 25.4627 39.1055 25.197 39.1055C24.9653 39.1055 24.7817 39.0156 24.6462 38.8359C24.5108 38.6562 24.4431 38.4102 24.4431 38.0977C24.4431 37.8242 24.5069 37.5768 24.6345 37.3555C24.7621 37.1315 24.9705 36.8958 25.2595 36.6484C25.4574 36.4792 25.6541 36.3516 25.8494 36.2656C26.0447 36.1797 26.2192 36.1367 26.3728 36.1367C26.4952 36.1367 26.5916 36.1654 26.6619 36.2227C26.7348 36.2773 26.7712 36.3607 26.7712 36.4727C26.7712 36.6367 26.7101 36.8008 26.5877 36.9648C26.4653 37.1263 26.2778 37.2878 26.0252 37.4492C25.7752 37.6081 25.4666 37.7617 25.0994 37.9102ZM25.1384 37.6562C25.3728 37.5651 25.5733 37.4518 25.74 37.3164C25.9067 37.181 26.0291 37.0521 26.1072 36.9297C26.1879 36.8047 26.2283 36.7135 26.2283 36.6562C26.2283 36.5964 26.2009 36.5664 26.1462 36.5664C26.0994 36.5664 26.0226 36.5964 25.9158 36.6562C25.8116 36.7161 25.7048 36.7943 25.5955 36.8906C25.4887 36.987 25.3923 37.1003 25.3064 37.2305C25.2205 37.3607 25.1645 37.5026 25.1384 37.6562ZM28.9175 37.7266V38.0156C28.3732 38.737 27.9305 39.0977 27.5894 39.0977C27.4045 39.0977 27.2586 38.9974 27.1519 38.7969C27.0477 38.5938 26.9956 38.3281 26.9956 38C26.9956 37.7344 27.0581 37.4193 27.1831 37.0547C27.3081 36.6875 27.4748 36.3164 27.6831 35.9414C27.8941 35.5638 28.1115 35.2357 28.3355 34.957C28.562 34.6758 28.7717 34.4792 28.9644 34.3672C29.0425 34.3203 29.1037 34.2969 29.148 34.2969C29.2027 34.2969 29.2391 34.3216 29.2573 34.3711C29.2756 34.418 29.2847 34.5 29.2847 34.6172C29.2847 34.9792 29.1376 35.4245 28.8433 35.9531C28.549 36.4792 28.1389 37.0169 27.6128 37.5664C27.5868 37.7018 27.5738 37.806 27.5738 37.8789C27.5738 38.0456 27.6089 38.181 27.6792 38.2852C27.7521 38.3893 27.8524 38.4414 27.98 38.4414C28.0451 38.4414 28.1154 38.4167 28.1909 38.3672C28.2665 38.3151 28.3459 38.2513 28.4292 38.1758C28.5126 38.1003 28.6753 37.9505 28.9175 37.7266ZM27.7495 37.0234C27.8849 36.8906 28.0152 36.7396 28.1402 36.5703C28.2678 36.401 28.3876 36.2201 28.4995 36.0273C28.6115 35.8346 28.6988 35.6615 28.7613 35.5078C28.8264 35.3542 28.8589 35.2383 28.8589 35.1602C28.8589 35.1003 28.8381 35.0703 28.7964 35.0703C28.7808 35.0703 28.7508 35.0846 28.7066 35.1133C28.5477 35.2435 28.3693 35.4987 28.1714 35.8789C27.9735 36.2565 27.8329 36.638 27.7495 37.0234ZM30.7278 36.0234C30.6627 36.0234 30.6002 35.9987 30.5403 35.9492C30.483 35.8997 30.4544 35.8372 30.4544 35.7617C30.4544 35.6471 30.5091 35.5195 30.6184 35.3789C30.7278 35.2383 30.8411 35.168 30.9583 35.168C31.0364 35.168 31.1015 35.1927 31.1536 35.2422C31.2057 35.2891 31.2317 35.3581 31.2317 35.4492C31.2317 35.5612 31.1783 35.6849 31.0716 35.8203C30.9648 35.9557 30.8502 36.0234 30.7278 36.0234ZM30.9934 37.7695V38.0547C30.7408 38.3802 30.5052 38.6263 30.2864 38.793C30.0677 38.957 29.8815 39.0391 29.7278 39.0391C29.5143 39.0391 29.3554 38.9271 29.2513 38.7031C29.1471 38.4792 29.095 38.2344 29.095 37.9688C29.095 37.8672 29.1054 37.7708 29.1263 37.6797C29.1471 37.5859 29.1718 37.5091 29.2005 37.4492C29.2291 37.3893 29.2825 37.2956 29.3606 37.168C29.7304 36.5924 30.069 36.3047 30.3763 36.3047C30.5351 36.3047 30.6145 36.3659 30.6145 36.4883C30.6145 36.5716 30.5624 36.7018 30.4583 36.8789C30.3567 37.056 30.2656 37.1823 30.1848 37.2578C29.9583 37.4766 29.8098 37.6289 29.7395 37.7148C29.6718 37.8008 29.638 37.8984 29.638 38.0078C29.638 38.1016 29.6731 38.1797 29.7434 38.2422C29.8138 38.3047 29.9049 38.3359 30.0169 38.3359C30.1393 38.3359 30.2734 38.2917 30.4192 38.2031C30.5677 38.112 30.7591 37.9674 30.9934 37.7695ZM31.7139 37.7773L31.6436 38.1055C31.6332 38.1471 31.628 38.194 31.628 38.2461C31.628 38.3867 31.6866 38.457 31.8038 38.457C31.9157 38.457 32.1879 38.2383 32.6202 37.8008C32.6228 37.6315 32.6853 37.4362 32.8077 37.2148C32.9327 36.9935 33.0694 36.7995 33.2178 36.6328C33.3689 36.4661 33.4808 36.3828 33.5538 36.3828C33.6683 36.3828 33.7256 36.4583 33.7256 36.6094C33.7256 36.7005 33.7035 36.8125 33.6592 36.9453C33.6149 37.0755 33.5498 37.2174 33.4639 37.3711C33.378 37.5221 33.2725 37.6784 33.1475 37.8398C33.2126 37.957 33.279 38.0156 33.3467 38.0156C33.404 38.0156 33.4665 37.9961 33.5342 37.957C33.6045 37.9154 33.6918 37.8529 33.7959 37.7695V38.0312C33.6501 38.1458 33.5342 38.224 33.4483 38.2656C33.3649 38.3073 33.2569 38.3281 33.1241 38.3281C33.072 38.3281 32.9782 38.293 32.8428 38.2227C32.5772 38.5039 32.361 38.7148 32.1944 38.8555C32.0277 38.9935 31.8923 39.0625 31.7881 39.0625C31.6084 39.0625 31.4548 38.9557 31.3272 38.7422C31.2022 38.526 31.1397 38.2891 31.1397 38.0312C31.1397 37.6849 31.335 37.2695 31.7256 36.7852C31.8428 36.6393 31.9366 36.5404 32.0069 36.4883C32.0798 36.4336 32.1618 36.4062 32.253 36.4062C32.3311 36.4062 32.4053 36.4206 32.4756 36.4492C32.5459 36.4779 32.5811 36.5117 32.5811 36.5508C32.5811 36.681 32.4939 36.8724 32.3194 37.125C32.1449 37.375 31.9431 37.5924 31.7139 37.7773ZM34.6531 37.9102V38.0078C34.6531 38.1615 34.6909 38.2812 34.7664 38.3672C34.8419 38.4531 34.9409 38.4961 35.0633 38.4961C35.1909 38.4961 35.3224 38.4661 35.4578 38.4062C35.5958 38.3464 35.7326 38.2669 35.868 38.168C36.0034 38.069 36.1687 37.9362 36.3641 37.7695V38.0078C36.0698 38.362 35.7937 38.6341 35.5359 38.8242C35.2781 39.0117 35.0164 39.1055 34.7508 39.1055C34.519 39.1055 34.3354 39.0156 34.2 38.8359C34.0646 38.6562 33.9969 38.4102 33.9969 38.0977C33.9969 37.8242 34.0607 37.5768 34.1883 37.3555C34.3159 37.1315 34.5242 36.8958 34.8133 36.6484C35.0112 36.4792 35.2078 36.3516 35.4031 36.2656C35.5984 36.1797 35.7729 36.1367 35.9266 36.1367C36.049 36.1367 36.1453 36.1654 36.2156 36.2227C36.2885 36.2773 36.325 36.3607 36.325 36.4727C36.325 36.6367 36.2638 36.8008 36.1414 36.9648C36.019 37.1263 35.8315 37.2878 35.5789 37.4492C35.3289 37.6081 35.0203 37.7617 34.6531 37.9102ZM34.6922 37.6562C34.9266 37.5651 35.1271 37.4518 35.2937 37.3164C35.4604 37.181 35.5828 37.0521 35.6609 36.9297C35.7417 36.8047 35.782 36.7135 35.782 36.6562C35.782 36.5964 35.7547 36.5664 35.7 36.5664C35.6531 36.5664 35.5763 36.5964 35.4695 36.6562C35.3654 36.7161 35.2586 36.7943 35.1492 36.8906C35.0424 36.987 34.9461 37.1003 34.8602 37.2305C34.7742 37.3607 34.7182 37.5026 34.6922 37.6562ZM36.565 38.0703V37.8164C36.7056 37.6497 36.8124 37.5078 36.8853 37.3906C36.802 37.362 36.7408 37.3268 36.7017 37.2852C36.6653 37.2435 36.647 37.181 36.647 37.0977C36.647 37.0039 36.6861 36.8854 36.7642 36.7422C36.8423 36.599 36.9387 36.4648 37.0533 36.3398C37.1679 36.2148 37.272 36.1341 37.3658 36.0977C37.4022 36.0794 37.4374 36.0703 37.4713 36.0703C37.5233 36.0703 37.5494 36.0951 37.5494 36.1445C37.5494 36.1888 37.509 36.2786 37.4283 36.4141C37.9647 36.3307 38.3033 36.2891 38.4439 36.2891C38.4986 36.2891 38.5364 36.2943 38.5572 36.3047C38.6015 36.3281 38.6379 36.3828 38.6666 36.4688C38.6952 36.5547 38.7095 36.6406 38.7095 36.7266C38.7095 36.7812 38.6848 36.8411 38.6353 36.9062C38.5884 36.9688 38.5064 37.0612 38.3892 37.1836C38.2512 37.332 38.1353 37.4935 38.0416 37.668C37.9478 37.8424 37.9009 37.974 37.9009 38.0625C37.9009 38.1849 37.9765 38.2461 38.1275 38.2461C38.2864 38.2461 38.5624 38.0846 38.9556 37.7617V38.0234C38.7395 38.25 38.5611 38.4284 38.4205 38.5586C38.2798 38.6888 38.1496 38.793 38.0298 38.8711C37.9101 38.9466 37.8033 38.9844 37.7095 38.9844C37.6002 38.9844 37.509 38.9349 37.4361 38.8359C37.3632 38.7344 37.3267 38.5885 37.3267 38.3984C37.3267 38.2865 37.3554 38.1589 37.4127 38.0156C37.4699 37.8724 37.5533 37.7174 37.6627 37.5508C37.7746 37.3815 37.8996 37.2135 38.0377 37.0469C37.9647 37.0625 37.8827 37.0794 37.7916 37.0977C37.7004 37.1133 37.6041 37.1302 37.5025 37.1484C37.4009 37.1667 37.3228 37.181 37.2681 37.1914C37.1067 37.5143 36.8723 37.8073 36.565 38.0703ZM40.7816 36.0234C40.7165 36.0234 40.654 35.9987 40.5941 35.9492C40.5368 35.8997 40.5081 35.8372 40.5081 35.7617C40.5081 35.6471 40.5628 35.5195 40.6722 35.3789C40.7816 35.2383 40.8948 35.168 41.012 35.168C41.0902 35.168 41.1553 35.1927 41.2073 35.2422C41.2594 35.2891 41.2855 35.3581 41.2855 35.4492C41.2855 35.5612 41.2321 35.6849 41.1253 35.8203C41.0185 35.9557 40.904 36.0234 40.7816 36.0234ZM41.0472 37.7695V38.0547C40.7946 38.3802 40.5589 38.6263 40.3402 38.793C40.1214 38.957 39.9352 39.0391 39.7816 39.0391C39.568 39.0391 39.4092 38.9271 39.305 38.7031C39.2008 38.4792 39.1488 38.2344 39.1488 37.9688C39.1488 37.8672 39.1592 37.7708 39.18 37.6797C39.2008 37.5859 39.2256 37.5091 39.2542 37.4492C39.2829 37.3893 39.3363 37.2956 39.4144 37.168C39.7842 36.5924 40.1227 36.3047 40.43 36.3047C40.5889 36.3047 40.6683 36.3659 40.6683 36.4883C40.6683 36.5716 40.6162 36.7018 40.512 36.8789C40.4105 37.056 40.3193 37.1823 40.2386 37.2578C40.012 37.4766 39.8636 37.6289 39.7933 37.7148C39.7256 37.8008 39.6917 37.8984 39.6917 38.0078C39.6917 38.1016 39.7269 38.1797 39.7972 38.2422C39.8675 38.3047 39.9586 38.3359 40.0706 38.3359C40.193 38.3359 40.3271 38.2917 40.473 38.2031C40.6214 38.112 40.8128 37.9674 41.0472 37.7695ZM43.8888 37.0625C43.4304 37.5729 43.2013 37.9284 43.2013 38.1289C43.2013 38.2409 43.2468 38.2969 43.338 38.2969C43.4135 38.2969 43.5111 38.2578 43.6309 38.1797C43.7533 38.099 43.9434 37.957 44.2013 37.7539V38.0234C43.8315 38.388 43.5476 38.651 43.3497 38.8125C43.1518 38.974 42.9903 39.0547 42.8653 39.0547C42.6518 39.0547 42.545 38.9141 42.545 38.6328C42.545 38.5495 42.558 38.4674 42.5841 38.3867C42.6101 38.306 42.6453 38.2227 42.6895 38.1367C42.7364 38.0482 42.8067 37.9232 42.9005 37.7617C42.9942 37.5977 43.1023 37.4128 43.2247 37.207C43.0763 37.2826 42.8901 37.4323 42.6661 37.6562C42.5203 37.7969 42.3966 37.931 42.295 38.0586C42.1934 38.1836 42.0841 38.3242 41.9669 38.4805C41.8523 38.6341 41.7677 38.7383 41.713 38.793C41.6609 38.8451 41.6075 38.8711 41.5528 38.8711C41.4695 38.8711 41.3927 38.7839 41.3223 38.6094C41.252 38.4349 41.2169 38.2318 41.2169 38C41.2169 37.8568 41.2325 37.7448 41.2638 37.6641C41.2976 37.5833 41.3627 37.4688 41.4591 37.3203C41.6388 37.0443 41.7937 36.8424 41.9239 36.7148C42.0541 36.5846 42.1791 36.5195 42.2989 36.5195C42.3822 36.5195 42.4486 36.5339 42.4981 36.5625C42.5502 36.5911 42.5763 36.6354 42.5763 36.6953C42.5763 36.7214 42.5684 36.7487 42.5528 36.7773C42.5372 36.806 42.519 36.832 42.4981 36.8555C42.4799 36.8789 42.4395 36.9245 42.377 36.9922C41.9656 37.4479 41.7598 37.7435 41.7598 37.8789C41.7598 37.9544 41.7846 37.9922 41.8341 37.9922C41.8653 37.9922 41.9252 37.9427 42.0138 37.8438C42.1049 37.7422 42.2208 37.6107 42.3614 37.4492C42.5046 37.2852 42.6726 37.1146 42.8653 36.9375C43.0606 36.7604 43.282 36.5898 43.5294 36.4258C43.6674 36.3294 43.782 36.2812 43.8731 36.2812C43.9148 36.2812 43.9552 36.3385 43.9942 36.4531C44.0359 36.5677 44.0567 36.6836 44.0567 36.8008C44.0567 36.8581 44.0007 36.9453 43.8888 37.0625ZM47.5233 38.0312L46.2264 39.0977C45.8618 39.7279 45.5298 40.1979 45.2303 40.5078C44.9308 40.8203 44.7082 40.9766 44.5623 40.9766C44.4842 40.9766 44.4452 40.9284 44.4452 40.832C44.4452 40.6445 44.5402 40.4049 44.7303 40.1133C44.8058 39.9987 44.8918 39.8867 44.9881 39.7773C45.0871 39.668 45.1795 39.5729 45.2655 39.4922C45.354 39.4141 45.4699 39.3151 45.6131 39.1953C45.7564 39.0781 45.854 38.9974 45.9061 38.9531C46.1665 38.4219 46.354 38.0156 46.4686 37.7344C46.2238 37.9948 46.0103 38.2083 45.828 38.375C45.6457 38.5417 45.4777 38.6706 45.3241 38.7617C45.173 38.8503 45.0363 38.8945 44.9139 38.8945C44.7811 38.8945 44.6587 38.7891 44.5467 38.5781C44.4347 38.3646 44.3787 38.1458 44.3787 37.9219C44.3787 37.8177 44.4022 37.7083 44.4491 37.5938C44.4985 37.4792 44.5741 37.3568 44.6756 37.2266C44.7798 37.0964 44.9113 36.9635 45.0702 36.8281C45.229 36.6901 45.4152 36.556 45.6287 36.4258C46.0324 36.1732 46.3462 36.0469 46.5702 36.0469C46.7368 36.0469 46.8202 36.1081 46.8202 36.2305C46.8202 36.3997 46.6392 36.5651 46.2772 36.7266C46.0558 36.8229 45.8358 36.9505 45.617 37.1094C45.4009 37.2682 45.2251 37.4375 45.0897 37.6172C44.9569 37.7943 44.8905 37.9544 44.8905 38.0977C44.8905 38.168 44.9074 38.224 44.9412 38.2656C44.9751 38.3073 45.0194 38.3281 45.0741 38.3281C45.1652 38.3281 45.2694 38.2865 45.3866 38.2031C45.5037 38.1198 45.6769 37.9727 45.9061 37.7617C46.0103 37.6654 46.1483 37.5104 46.3202 37.2969C46.4946 37.0807 46.6379 36.9167 46.7498 36.8047C46.8644 36.6901 46.9673 36.6328 47.0584 36.6328C47.1105 36.6328 47.1522 36.6497 47.1834 36.6836C47.2173 36.7148 47.2342 36.7617 47.2342 36.8242C47.2342 36.944 47.186 37.1185 47.0897 37.3477C46.9959 37.5742 46.8254 37.9466 46.578 38.4648L47.5233 37.7773V38.0312ZM55.3705 34.0781V34.3438C55.3705 34.4531 55.3483 34.5221 55.3041 34.5508C55.2624 34.5794 55.1048 34.6562 54.8314 34.7812C54.5606 34.9062 54.3002 35.0534 54.0502 35.2227C54.1465 35.082 54.2337 34.9779 54.3119 34.9102C54.3926 34.8424 54.5007 34.7578 54.6361 34.6562C54.5189 34.6094 54.3561 34.5859 54.1478 34.5859C53.8249 34.5859 53.4759 34.6497 53.1009 34.7773C52.7285 34.9049 52.4108 35.0573 52.1478 35.2344C51.8874 35.4115 51.7572 35.5599 51.7572 35.6797C51.7572 35.7422 51.7962 35.7943 51.8744 35.8359C51.9551 35.875 52.0827 35.9062 52.2572 35.9297C52.4343 35.9505 52.6543 35.9648 52.9173 35.9727C53.1804 35.9805 53.5046 35.9844 53.89 35.9844C54.1712 35.9844 54.3522 35.9948 54.433 36.0156C54.5137 36.0365 54.5541 36.0846 54.5541 36.1602C54.5541 36.2565 54.5059 36.3672 54.4095 36.4922C54.3158 36.6146 54.1908 36.6875 54.0345 36.7109C53.7923 36.75 53.5996 36.7839 53.4564 36.8125C53.3132 36.8385 53.1426 36.8841 52.9447 36.9492C52.7494 37.0143 52.5319 37.1081 52.2923 37.2305C51.9356 37.418 51.6569 37.6081 51.4564 37.8008C51.2559 37.9935 51.1556 38.1641 51.1556 38.3125C51.1556 38.4401 51.2272 38.5404 51.3705 38.6133C51.5137 38.6836 51.7194 38.7188 51.9877 38.7188C52.9121 38.7188 53.8535 38.3034 54.8119 37.4727C54.8171 37.7279 54.7884 37.9531 54.7259 38.1484C54.666 38.3411 54.5423 38.526 54.3548 38.7031C54.1986 38.8516 53.9694 38.9935 53.6673 39.1289C53.3679 39.2643 53.0397 39.3724 52.683 39.4531C52.3288 39.5339 51.9955 39.5742 51.683 39.5742C51.321 39.5742 51.0215 39.487 50.7845 39.3125C50.5476 39.1406 50.4291 38.9115 50.4291 38.625C50.4291 38.4167 50.4864 38.2096 50.6009 38.0039C50.7155 37.7982 50.8913 37.6016 51.1283 37.4141C51.3653 37.224 51.6647 37.0521 52.0267 36.8984C52.3913 36.7448 52.8106 36.6237 53.2845 36.5352C53.3522 36.5221 53.3861 36.5013 53.3861 36.4727C53.3861 36.4414 53.3457 36.4232 53.265 36.418C53.1869 36.4102 53.041 36.4049 52.8275 36.4023C52.6166 36.3997 52.4304 36.3906 52.2689 36.375C52.1074 36.3594 51.9369 36.3255 51.7572 36.2734C51.5723 36.2161 51.4291 36.1159 51.3275 35.9727C51.2285 35.8294 51.1791 35.6706 51.1791 35.4961C51.1791 35.2721 51.2598 35.0469 51.4212 34.8203C51.5827 34.5938 51.8106 34.3893 52.1048 34.207C52.3991 34.0247 52.7546 33.8789 53.1712 33.7695C53.5905 33.6576 54.0489 33.6016 54.5462 33.6016C54.8327 33.6016 55.0319 33.6185 55.1439 33.6523C55.2585 33.6836 55.3249 33.7266 55.3431 33.7812C55.3614 33.8333 55.3705 33.9323 55.3705 34.0781ZM56.1573 37.7695V36.8477C56.061 36.8711 55.9685 36.9128 55.88 36.9727C55.7941 37.0326 55.7016 37.1068 55.6027 37.1953C55.5063 37.2839 55.4464 37.3281 55.423 37.3281C55.3943 37.3281 55.38 37.2904 55.38 37.2148C55.38 37.1393 55.4568 37.0065 55.6105 36.8164C55.7667 36.6237 55.9386 36.4466 56.1261 36.2852C56.3136 36.1211 56.449 36.0391 56.5323 36.0391C56.5818 36.0391 56.6248 36.0677 56.6613 36.125C56.6977 36.1823 56.7159 36.2604 56.7159 36.3594C56.7159 36.4245 56.7146 36.4844 56.712 36.5391C56.7094 36.5938 56.7068 36.6667 56.7042 36.7578C56.7016 36.849 56.6977 36.9805 56.6925 37.1523C57.268 36.5378 57.6092 36.2305 57.7159 36.2305C57.7472 36.2305 57.7719 36.2435 57.7902 36.2695C57.811 36.293 57.8214 36.3229 57.8214 36.3594C57.8214 36.4453 57.7511 36.5781 57.6105 36.7578C57.4724 36.9349 57.38 37.0234 57.3331 37.0234C57.268 37.0234 57.2172 37.013 57.1808 36.9922L56.6847 37.625C56.6899 37.8542 56.7094 38.0247 56.7433 38.1367C56.7797 38.2487 56.8435 38.3047 56.9347 38.3047C57.0128 38.3047 57.104 38.2656 57.2081 38.1875C57.3123 38.1094 57.4816 37.9648 57.7159 37.7539V38.0234C57.1821 38.7604 56.8045 39.1289 56.5831 39.1289C56.4451 39.1289 56.3461 39.056 56.2863 38.9102C56.229 38.7643 56.1912 38.5404 56.173 38.2383C56.0818 38.332 55.9751 38.4453 55.8527 38.5781C55.7303 38.7109 55.6404 38.806 55.5831 38.8633C55.5284 38.918 55.4777 38.9635 55.4308 39C55.3865 39.0365 55.3461 39.0547 55.3097 39.0547C55.2732 39.0547 55.255 39.0234 55.255 38.9609C55.255 38.8568 55.3097 38.7135 55.4191 38.5312C55.531 38.349 55.6118 38.2578 55.6613 38.2578C55.6665 38.2578 55.6782 38.2604 55.6964 38.2656C55.7146 38.2708 55.7238 38.2734 55.7238 38.2734L56.1573 37.7695ZM60.3153 37.7773V38.0391C60.0367 38.3125 59.8088 38.5247 59.6317 38.6758C59.4572 38.8268 59.2932 38.944 59.1395 39.0273C58.9885 39.1107 58.8401 39.1523 58.6942 39.1523C58.551 39.1523 58.4195 39.0964 58.2997 38.9844C58.1799 38.8698 58.0861 38.7214 58.0184 38.5391C57.9507 38.3542 57.9169 38.1589 57.9169 37.9531C57.9169 37.776 57.9559 37.6185 58.0341 37.4805C58.1122 37.3424 58.2632 37.1641 58.4872 36.9453C58.7528 36.6849 58.9989 36.4844 59.2255 36.3438C59.4546 36.2005 59.6343 36.1289 59.7645 36.1289C59.8583 36.1289 59.9377 36.1615 60.0028 36.2266C60.0679 36.2917 60.1005 36.3737 60.1005 36.4727C60.1005 36.556 60.0575 36.6745 59.9716 36.8281C59.8856 36.9818 59.7893 37.1159 59.6825 37.2305C59.5757 37.3424 59.4911 37.3984 59.4286 37.3984C59.3609 37.3984 59.327 37.362 59.327 37.2891C59.3296 37.2682 59.3309 37.2487 59.3309 37.2305C59.3335 37.2122 59.3348 37.194 59.3348 37.1758C59.3348 37.1445 59.3231 37.1276 59.2997 37.125C59.2789 37.1198 59.2528 37.1289 59.2216 37.1523C58.9611 37.3346 58.7828 37.4635 58.6864 37.5391C58.5901 37.612 58.5132 37.6862 58.4559 37.7617C58.4012 37.8372 58.3739 37.9167 58.3739 38C58.3739 38.1536 58.4234 38.2786 58.5223 38.375C58.6213 38.4714 58.7502 38.5195 58.9091 38.5195C59.0731 38.5195 59.2697 38.457 59.4989 38.332C59.7307 38.2044 60.0028 38.0195 60.3153 37.7773ZM61.1647 37.9102V38.0078C61.1647 38.1615 61.2024 38.2812 61.278 38.3672C61.3535 38.4531 61.4524 38.4961 61.5748 38.4961C61.7024 38.4961 61.834 38.4661 61.9694 38.4062C62.1074 38.3464 62.2441 38.2669 62.3795 38.168C62.5149 38.069 62.6803 37.9362 62.8756 37.7695V38.0078C62.5814 38.362 62.3053 38.6341 62.0475 38.8242C61.7897 39.0117 61.528 39.1055 61.2623 39.1055C61.0306 39.1055 60.847 39.0156 60.7116 38.8359C60.5761 38.6562 60.5084 38.4102 60.5084 38.0977C60.5084 37.8242 60.5722 37.5768 60.6998 37.3555C60.8274 37.1315 61.0358 36.8958 61.3248 36.6484C61.5228 36.4792 61.7194 36.3516 61.9147 36.2656C62.11 36.1797 62.2845 36.1367 62.4381 36.1367C62.5605 36.1367 62.6569 36.1654 62.7272 36.2227C62.8001 36.2773 62.8366 36.3607 62.8366 36.4727C62.8366 36.6367 62.7754 36.8008 62.653 36.9648C62.5306 37.1263 62.3431 37.2878 62.0905 37.4492C61.8405 37.6081 61.5319 37.7617 61.1647 37.9102ZM61.2038 37.6562C61.4381 37.5651 61.6386 37.4518 61.8053 37.3164C61.972 37.181 62.0944 37.0521 62.1725 36.9297C62.2532 36.8047 62.2936 36.7135 62.2936 36.6562C62.2936 36.5964 62.2663 36.5664 62.2116 36.5664C62.1647 36.5664 62.0879 36.5964 61.9811 36.6562C61.8769 36.7161 61.7702 36.7943 61.6608 36.8906C61.554 36.987 61.4577 37.1003 61.3717 37.2305C61.2858 37.3607 61.2298 37.5026 61.2038 37.6562ZM64.9828 37.7266V38.0156C64.4385 38.737 63.9958 39.0977 63.6547 39.0977C63.4698 39.0977 63.324 38.9974 63.2172 38.7969C63.113 38.5938 63.0609 38.3281 63.0609 38C63.0609 37.7344 63.1234 37.4193 63.2484 37.0547C63.3734 36.6875 63.5401 36.3164 63.7484 35.9414C63.9594 35.5638 64.1768 35.2357 64.4008 34.957C64.6273 34.6758 64.837 34.4792 65.0297 34.3672C65.1078 34.3203 65.169 34.2969 65.2133 34.2969C65.268 34.2969 65.3044 34.3216 65.3227 34.3711C65.3409 34.418 65.35 34.5 65.35 34.6172C65.35 34.9792 65.2029 35.4245 64.9086 35.9531C64.6143 36.4792 64.2042 37.0169 63.6781 37.5664C63.6521 37.7018 63.6391 37.806 63.6391 37.8789C63.6391 38.0456 63.6742 38.181 63.7445 38.2852C63.8174 38.3893 63.9177 38.4414 64.0453 38.4414C64.1104 38.4414 64.1807 38.4167 64.2562 38.3672C64.3318 38.3151 64.4112 38.2513 64.4945 38.1758C64.5779 38.1003 64.7406 37.9505 64.9828 37.7266ZM63.8148 37.0234C63.9503 36.8906 64.0805 36.7396 64.2055 36.5703C64.3331 36.401 64.4529 36.2201 64.5648 36.0273C64.6768 35.8346 64.7641 35.6615 64.8266 35.5078C64.8917 35.3542 64.9242 35.2383 64.9242 35.1602C64.9242 35.1003 64.9034 35.0703 64.8617 35.0703C64.8461 35.0703 64.8161 35.0846 64.7719 35.1133C64.613 35.2435 64.4346 35.4987 64.2367 35.8789C64.0388 36.2565 63.8982 36.638 63.8148 37.0234ZM67.0588 37.7266V38.0156C66.5145 38.737 66.0718 39.0977 65.7306 39.0977C65.5457 39.0977 65.3999 38.9974 65.2931 38.7969C65.189 38.5938 65.1369 38.3281 65.1369 38C65.1369 37.7344 65.1994 37.4193 65.3244 37.0547C65.4494 36.6875 65.616 36.3164 65.8244 35.9414C66.0353 35.5638 66.2528 35.2357 66.4767 34.957C66.7033 34.6758 66.9129 34.4792 67.1056 34.3672C67.1838 34.3203 67.2449 34.2969 67.2892 34.2969C67.3439 34.2969 67.3804 34.3216 67.3986 34.3711C67.4168 34.418 67.4259 34.5 67.4259 34.6172C67.4259 34.9792 67.2788 35.4245 66.9845 35.9531C66.6903 36.4792 66.2801 37.0169 65.7541 37.5664C65.728 37.7018 65.715 37.806 65.715 37.8789C65.715 38.0456 65.7502 38.181 65.8205 38.2852C65.8934 38.3893 65.9936 38.4414 66.1213 38.4414C66.1864 38.4414 66.2567 38.4167 66.3322 38.3672C66.4077 38.3151 66.4871 38.2513 66.5705 38.1758C66.6538 38.1003 66.8166 37.9505 67.0588 37.7266ZM65.8908 37.0234C66.0262 36.8906 66.1564 36.7396 66.2814 36.5703C66.409 36.401 66.5288 36.2201 66.6408 36.0273C66.7528 35.8346 66.84 35.6615 66.9025 35.5078C66.9676 35.3542 67.0002 35.2383 67.0002 35.1602C67.0002 35.1003 66.9793 35.0703 66.9377 35.0703C66.922 35.0703 66.8921 35.0846 66.8478 35.1133C66.689 35.2435 66.5106 35.4987 66.3127 35.8789C66.1147 36.2565 65.9741 36.638 65.8908 37.0234ZM67.8925 37.9102V38.0078C67.8925 38.1615 67.9303 38.2812 68.0058 38.3672C68.0813 38.4531 68.1803 38.4961 68.3027 38.4961C68.4303 38.4961 68.5618 38.4661 68.6972 38.4062C68.8352 38.3464 68.9719 38.2669 69.1073 38.168C69.2428 38.069 69.4081 37.9362 69.6034 37.7695V38.0078C69.3092 38.362 69.0331 38.6341 68.7753 38.8242C68.5175 39.0117 68.2558 39.1055 67.9902 39.1055C67.7584 39.1055 67.5748 39.0156 67.4394 38.8359C67.304 38.6562 67.2362 38.4102 67.2362 38.0977C67.2362 37.8242 67.3001 37.5768 67.4277 37.3555C67.5553 37.1315 67.7636 36.8958 68.0527 36.6484C68.2506 36.4792 68.4472 36.3516 68.6425 36.2656C68.8378 36.1797 69.0123 36.1367 69.1659 36.1367C69.2883 36.1367 69.3847 36.1654 69.455 36.2227C69.5279 36.2773 69.5644 36.3607 69.5644 36.4727C69.5644 36.6367 69.5032 36.8008 69.3808 36.9648C69.2584 37.1263 69.0709 37.2878 68.8183 37.4492C68.5683 37.6081 68.2597 37.7617 67.8925 37.9102ZM67.9316 37.6562C68.1659 37.5651 68.3665 37.4518 68.5331 37.3164C68.6998 37.181 68.8222 37.0521 68.9003 36.9297C68.981 36.8047 69.0214 36.7135 69.0214 36.6562C69.0214 36.5964 68.9941 36.5664 68.9394 36.5664C68.8925 36.5664 68.8157 36.5964 68.7089 36.6562C68.6047 36.7161 68.498 36.7943 68.3886 36.8906C68.2818 36.987 68.1855 37.1003 68.0995 37.2305C68.0136 37.3607 67.9576 37.5026 67.9316 37.6562ZM72.4762 37.0625C72.0179 37.5729 71.7887 37.9284 71.7887 38.1289C71.7887 38.2409 71.8343 38.2969 71.9255 38.2969C72.001 38.2969 72.0986 38.2578 72.2184 38.1797C72.3408 38.099 72.5309 37.957 72.7887 37.7539V38.0234C72.419 38.388 72.1351 38.651 71.9372 38.8125C71.7393 38.974 71.5778 39.0547 71.4528 39.0547C71.2393 39.0547 71.1325 38.9141 71.1325 38.6328C71.1325 38.5495 71.1455 38.4674 71.1716 38.3867C71.1976 38.306 71.2328 38.2227 71.277 38.1367C71.3239 38.0482 71.3942 37.9232 71.488 37.7617C71.5817 37.5977 71.6898 37.4128 71.8122 37.207C71.6637 37.2826 71.4776 37.4323 71.2536 37.6562C71.1078 37.7969 70.9841 37.931 70.8825 38.0586C70.7809 38.1836 70.6716 38.3242 70.5544 38.4805C70.4398 38.6341 70.3552 38.7383 70.3005 38.793C70.2484 38.8451 70.195 38.8711 70.1403 38.8711C70.057 38.8711 69.9802 38.7839 69.9098 38.6094C69.8395 38.4349 69.8044 38.2318 69.8044 38C69.8044 37.8568 69.82 37.7448 69.8512 37.6641C69.8851 37.5833 69.9502 37.4688 70.0466 37.3203C70.2262 37.0443 70.3812 36.8424 70.5114 36.7148C70.6416 36.5846 70.7666 36.5195 70.8864 36.5195C70.9697 36.5195 71.0361 36.5339 71.0856 36.5625C71.1377 36.5911 71.1637 36.6354 71.1637 36.6953C71.1637 36.7214 71.1559 36.7487 71.1403 36.7773C71.1247 36.806 71.1065 36.832 71.0856 36.8555C71.0674 36.8789 71.027 36.9245 70.9645 36.9922C70.5531 37.4479 70.3473 37.7435 70.3473 37.8789C70.3473 37.9544 70.3721 37.9922 70.4216 37.9922C70.4528 37.9922 70.5127 37.9427 70.6012 37.8438C70.6924 37.7422 70.8083 37.6107 70.9489 37.4492C71.0921 37.2852 71.2601 37.1146 71.4528 36.9375C71.6481 36.7604 71.8695 36.5898 72.1169 36.4258C72.2549 36.3294 72.3695 36.2812 72.4606 36.2812C72.5023 36.2812 72.5427 36.3385 72.5817 36.4531C72.6234 36.5677 72.6442 36.6836 72.6442 36.8008C72.6442 36.8581 72.5882 36.9453 72.4762 37.0625ZM75.3569 37.7773V38.0391C75.0782 38.3125 74.8504 38.5247 74.6733 38.6758C74.4988 38.8268 74.3347 38.944 74.1811 39.0273C74.0301 39.1107 73.8816 39.1523 73.7358 39.1523C73.5926 39.1523 73.461 39.0964 73.3413 38.9844C73.2215 38.8698 73.1277 38.7214 73.06 38.5391C72.9923 38.3542 72.9584 38.1589 72.9584 37.9531C72.9584 37.776 72.9975 37.6185 73.0756 37.4805C73.1538 37.3424 73.3048 37.1641 73.5288 36.9453C73.7944 36.6849 74.0405 36.4844 74.267 36.3438C74.4962 36.2005 74.6759 36.1289 74.8061 36.1289C74.8998 36.1289 74.9793 36.1615 75.0444 36.2266C75.1095 36.2917 75.142 36.3737 75.142 36.4727C75.142 36.556 75.0991 36.6745 75.0131 36.8281C74.9272 36.9818 74.8308 37.1159 74.7241 37.2305C74.6173 37.3424 74.5327 37.3984 74.4702 37.3984C74.4024 37.3984 74.3686 37.362 74.3686 37.2891C74.3712 37.2682 74.3725 37.2487 74.3725 37.2305C74.3751 37.2122 74.3764 37.194 74.3764 37.1758C74.3764 37.1445 74.3647 37.1276 74.3413 37.125C74.3204 37.1198 74.2944 37.1289 74.2631 37.1523C74.0027 37.3346 73.8243 37.4635 73.728 37.5391C73.6316 37.612 73.5548 37.6862 73.4975 37.7617C73.4428 37.8372 73.4155 37.9167 73.4155 38C73.4155 38.1536 73.4649 38.2786 73.5639 38.375C73.6629 38.4714 73.7918 38.5195 73.9506 38.5195C74.1147 38.5195 74.3113 38.457 74.5405 38.332C74.7722 38.2044 75.0444 38.0195 75.3569 37.7773ZM76.2062 37.9102V38.0078C76.2062 38.1615 76.244 38.2812 76.3195 38.3672C76.3951 38.4531 76.494 38.4961 76.6164 38.4961C76.744 38.4961 76.8755 38.4661 77.0109 38.4062C77.149 38.3464 77.2857 38.2669 77.4211 38.168C77.5565 38.069 77.7219 37.9362 77.9172 37.7695V38.0078C77.6229 38.362 77.3469 38.6341 77.0891 38.8242C76.8312 39.0117 76.5695 39.1055 76.3039 39.1055C76.0721 39.1055 75.8885 39.0156 75.7531 38.8359C75.6177 38.6562 75.55 38.4102 75.55 38.0977C75.55 37.8242 75.6138 37.5768 75.7414 37.3555C75.869 37.1315 76.0773 36.8958 76.3664 36.6484C76.5643 36.4792 76.7609 36.3516 76.9562 36.2656C77.1516 36.1797 77.326 36.1367 77.4797 36.1367C77.6021 36.1367 77.6984 36.1654 77.7687 36.2227C77.8417 36.2773 77.8781 36.3607 77.8781 36.4727C77.8781 36.6367 77.8169 36.8008 77.6945 36.9648C77.5721 37.1263 77.3846 37.2878 77.132 37.4492C76.882 37.6081 76.5734 37.7617 76.2062 37.9102ZM76.2453 37.6562C76.4797 37.5651 76.6802 37.4518 76.8469 37.3164C77.0135 37.181 77.1359 37.0521 77.2141 36.9297C77.2948 36.8047 77.3352 36.7135 77.3352 36.6562C77.3352 36.5964 77.3078 36.5664 77.2531 36.5664C77.2062 36.5664 77.1294 36.5964 77.0227 36.6562C76.9185 36.7161 76.8117 36.7943 76.7023 36.8906C76.5956 36.987 76.4992 37.1003 76.4133 37.2305C76.3273 37.3607 76.2714 37.5026 76.2453 37.6562Z" fill="black"/>
</svg>
