<svg width="83" height="31" viewBox="0 0 83 31" fill="none" xmlns="http://www.w3.org/2000/svg">
<path d="M9.78 5.4H9.264C9.24 5.008 9.18 4.684 9.084 4.428C8.996 4.164 8.868 3.956 8.7 3.804C8.532 3.644 8.328 3.536 8.088 3.48C7.848 3.416 7.568 3.384 7.248 3.384C6.936 3.384 6.684 3.392 6.492 3.408C6.308 3.416 6.164 3.436 6.06 3.468C5.964 3.492 5.9 3.528 5.868 3.576C5.836 3.624 5.82 3.684 5.82 3.756V10.044C5.82 10.3 5.836 10.52 5.868 10.704C5.908 10.888 5.984 11.04 6.096 11.16C6.208 11.272 6.372 11.36 6.588 11.424C6.804 11.48 7.088 11.512 7.44 11.52V12H2.412V11.52C2.772 11.512 3.06 11.48 3.276 11.424C3.492 11.36 3.656 11.272 3.768 11.16C3.888 11.04 3.964 10.888 3.996 10.704C4.036 10.52 4.056 10.3 4.056 10.044V3.756C4.056 3.684 4.04 3.624 4.008 3.576C3.984 3.528 3.928 3.492 3.84 3.468C3.752 3.436 3.624 3.416 3.456 3.408C3.296 3.392 3.084 3.384 2.82 3.384C2.532 3.384 2.256 3.4 1.992 3.432C1.728 3.456 1.496 3.536 1.296 3.672C1.096 3.8 0.932 4 0.804 4.272C0.684 4.536 0.62 4.912 0.612 5.4H0.144L0.264 2.76H9.66L9.78 5.4ZM15.4331 10.884C14.7051 11.708 13.7971 12.12 12.7091 12.12C12.2131 12.12 11.7611 12.044 11.3531 11.892C10.9531 11.732 10.6091 11.512 10.3211 11.232C10.0331 10.944 9.80913 10.604 9.64913 10.212C9.48913 9.82 9.40913 9.384 9.40913 8.904C9.40913 8.408 9.49313 7.956 9.66113 7.548C9.82913 7.132 10.0651 6.776 10.3691 6.48C10.6811 6.176 11.0451 5.94 11.4611 5.772C11.8851 5.604 12.3491 5.52 12.8531 5.52C13.7011 5.52 14.3611 5.748 14.8331 6.204C15.3051 6.66 15.5411 7.3 15.5411 8.124C15.5411 8.252 15.5211 8.332 15.4811 8.364C15.4411 8.388 15.3291 8.4 15.1451 8.4H11.2811C11.2491 8.472 11.2331 8.604 11.2331 8.796C11.2331 9.58 11.4011 10.2 11.7371 10.656C12.0811 11.112 12.5451 11.34 13.1291 11.34C13.4651 11.34 13.7971 11.264 14.1251 11.112C14.4611 10.96 14.7851 10.744 15.0971 10.464L15.4331 10.884ZM13.1051 7.728C13.4251 7.728 13.6291 7.712 13.7171 7.68C13.8131 7.64 13.8611 7.552 13.8611 7.416C13.8611 7.064 13.7611 6.776 13.5611 6.552C13.3611 6.328 13.1091 6.216 12.8051 6.216C12.4611 6.216 12.1531 6.36 11.8811 6.648C11.6171 6.928 11.4451 7.288 11.3651 7.728H13.1051ZM22.3087 11.004C22.0047 11.34 21.6247 11.6 21.1687 11.784C20.7207 11.968 20.2327 12.06 19.7047 12.06C19.2167 12.06 18.7727 11.984 18.3727 11.832C17.9727 11.672 17.6287 11.452 17.3407 11.172C17.0527 10.892 16.8287 10.556 16.6687 10.164C16.5167 9.764 16.4407 9.324 16.4407 8.844C16.4407 8.348 16.5247 7.896 16.6927 7.488C16.8607 7.08 17.0967 6.732 17.4007 6.444C17.7047 6.148 18.0687 5.92 18.4927 5.76C18.9167 5.6 19.3847 5.52 19.8967 5.52C20.2567 5.52 20.5887 5.556 20.8927 5.628C21.2047 5.7 21.4687 5.8 21.6847 5.928C21.9087 6.056 22.0847 6.208 22.2127 6.384C22.3407 6.552 22.4047 6.736 22.4047 6.936C22.4047 7.168 22.3367 7.352 22.2007 7.488C22.0727 7.624 21.8967 7.692 21.6727 7.692C21.4887 7.692 21.3247 7.644 21.1807 7.548C21.0447 7.452 20.9087 7.296 20.7727 7.08C20.6527 6.888 20.5487 6.736 20.4607 6.624C20.3807 6.512 20.3047 6.428 20.2327 6.372C20.1607 6.308 20.0887 6.268 20.0167 6.252C19.9447 6.228 19.8567 6.216 19.7527 6.216C19.2887 6.216 18.9287 6.432 18.6727 6.864C18.4167 7.296 18.2887 7.9 18.2887 8.676C18.2887 9.508 18.4407 10.148 18.7447 10.596C19.0567 11.044 19.5007 11.268 20.0767 11.268C20.4047 11.268 20.7327 11.208 21.0607 11.088C21.3887 10.96 21.7007 10.78 21.9967 10.548L22.3087 11.004ZM23.0461 6.3V5.76C23.5261 5.624 23.9261 5.42 24.2461 5.148C24.5741 4.868 24.8181 4.548 24.9781 4.188H25.5901V5.64H26.9701V6.3H25.5901V9.984C25.5901 10.48 25.6421 10.832 25.7461 11.04C25.8581 11.248 26.0421 11.352 26.2981 11.352C26.6101 11.352 26.8461 11.208 27.0061 10.92L27.2581 11.268C27.0341 11.836 26.5061 12.12 25.6741 12.12C25.1221 12.12 24.6901 11.992 24.3781 11.736C24.0741 11.48 23.9221 11.12 23.9221 10.656V6.3H23.0461ZM31.2641 5.52C31.7441 5.52 32.1961 5.604 32.6201 5.772C33.0521 5.932 33.4281 6.156 33.7481 6.444C34.0761 6.732 34.3321 7.076 34.5161 7.476C34.7081 7.868 34.8041 8.3 34.8041 8.772C34.8041 9.26 34.7081 9.708 34.5161 10.116C34.3321 10.524 34.0761 10.876 33.7481 11.172C33.4281 11.468 33.0521 11.7 32.6201 11.868C32.1961 12.036 31.7441 12.12 31.2641 12.12C30.7921 12.12 30.3441 12.04 29.9201 11.88C29.4961 11.712 29.1241 11.48 28.8041 11.184C28.4841 10.888 28.2321 10.536 28.0481 10.128C27.8641 9.712 27.7721 9.26 27.7721 8.772C27.7721 8.3 27.8641 7.864 28.0481 7.464C28.2321 7.064 28.4841 6.72 28.8041 6.432C29.1241 6.144 29.4961 5.92 29.9201 5.76C30.3441 5.6 30.7921 5.52 31.2641 5.52ZM31.2641 6.216C31.0241 6.216 30.8041 6.28 30.6041 6.408C30.4041 6.528 30.2321 6.7 30.0881 6.924C29.9521 7.148 29.8441 7.42 29.7641 7.74C29.6921 8.052 29.6561 8.4 29.6561 8.784C29.6561 9.184 29.6921 9.544 29.7641 9.864C29.8441 10.184 29.9521 10.456 30.0881 10.68C30.2321 10.904 30.4001 11.08 30.5921 11.208C30.7921 11.328 31.0161 11.388 31.2641 11.388C31.5121 11.388 31.7361 11.328 31.9361 11.208C32.1441 11.08 32.3201 10.904 32.4641 10.68C32.6081 10.448 32.7201 10.172 32.8001 9.852C32.8801 9.532 32.9201 9.176 32.9201 8.784C32.9201 8.4 32.8801 8.052 32.8001 7.74C32.7201 7.428 32.6081 7.16 32.4641 6.936C32.3201 6.704 32.1441 6.528 31.9361 6.408C31.7361 6.28 31.5121 6.216 31.2641 6.216ZM38.334 10.044C38.334 10.372 38.342 10.632 38.358 10.824C38.382 11.008 38.426 11.152 38.49 11.256C38.562 11.352 38.666 11.416 38.802 11.448C38.946 11.48 39.138 11.504 39.378 11.52V12H35.598V11.52C35.83 11.504 36.014 11.48 36.15 11.448C36.294 11.416 36.402 11.352 36.474 11.256C36.554 11.16 36.606 11.024 36.63 10.848C36.654 10.672 36.666 10.432 36.666 10.128V8.628C36.666 8.156 36.658 7.776 36.642 7.488C36.626 7.192 36.606 6.992 36.582 6.888C36.558 6.784 36.526 6.7 36.486 6.636C36.446 6.564 36.386 6.512 36.306 6.48C36.226 6.44 36.126 6.416 36.006 6.408C35.886 6.392 35.734 6.384 35.55 6.384V5.976L37.866 5.52L38.022 6.576H38.07C38.334 6.24 38.646 5.98 39.006 5.796C39.366 5.612 39.762 5.52 40.194 5.52C40.706 5.52 41.118 5.592 41.43 5.736C41.75 5.872 42.034 6.104 42.282 6.432C42.418 6.616 42.538 6.856 42.642 7.152C42.746 7.44 42.798 7.84 42.798 8.352V10.044C42.798 10.372 42.806 10.632 42.822 10.824C42.846 11.008 42.89 11.152 42.954 11.256C43.026 11.352 43.13 11.416 43.266 11.448C43.402 11.48 43.586 11.504 43.818 11.52V12H40.062V11.52C40.302 11.512 40.49 11.492 40.626 11.46C40.77 11.42 40.878 11.352 40.95 11.256C41.022 11.16 41.07 11.024 41.094 10.848C41.118 10.664 41.13 10.424 41.13 10.128V8.496C41.13 8.088 41.106 7.744 41.058 7.464C41.01 7.184 40.93 6.96 40.818 6.792C40.714 6.616 40.574 6.492 40.398 6.42C40.222 6.34 40.002 6.3 39.738 6.3C39.482 6.3 39.262 6.372 39.078 6.516C38.894 6.66 38.734 6.86 38.598 7.116C38.526 7.26 38.462 7.448 38.406 7.68C38.358 7.904 38.334 8.14 38.334 8.388V10.044ZM47.0527 10.032C47.0527 10.352 47.0648 10.608 47.0888 10.8C47.1128 10.992 47.1608 11.14 47.2328 11.244C47.3048 11.348 47.4088 11.42 47.5448 11.46C47.6808 11.492 47.8648 11.512 48.0968 11.52V12H44.3168V11.52C44.5408 11.512 44.7208 11.488 44.8568 11.448C45.0008 11.4 45.1088 11.328 45.1808 11.232C45.2608 11.128 45.3128 10.988 45.3368 10.812C45.3688 10.628 45.3848 10.396 45.3848 10.116V8.64C45.3848 8.176 45.3768 7.796 45.3608 7.5C45.3448 7.196 45.3248 6.988 45.3008 6.876C45.2608 6.676 45.1688 6.544 45.0248 6.48C44.8888 6.416 44.6368 6.384 44.2688 6.384V5.976L47.0527 5.52V10.032ZM45.2888 2.976C45.2888 2.712 45.3768 2.492 45.5527 2.316C45.7368 2.132 45.9568 2.04 46.2128 2.04C46.4768 2.04 46.6968 2.132 46.8728 2.316C47.0568 2.492 47.1488 2.712 47.1488 2.976C47.1488 3.232 47.0568 3.452 46.8728 3.636C46.6968 3.812 46.4768 3.9 46.2128 3.9C45.9568 3.9 45.7368 3.812 45.5527 3.636C45.3768 3.452 45.2888 3.232 45.2888 2.976ZM54.6407 11.004C54.3367 11.34 53.9567 11.6 53.5007 11.784C53.0527 11.968 52.5647 12.06 52.0367 12.06C51.5487 12.06 51.1047 11.984 50.7047 11.832C50.3047 11.672 49.9607 11.452 49.6727 11.172C49.3847 10.892 49.1607 10.556 49.0007 10.164C48.8487 9.764 48.7727 9.324 48.7727 8.844C48.7727 8.348 48.8567 7.896 49.0247 7.488C49.1927 7.08 49.4287 6.732 49.7327 6.444C50.0367 6.148 50.4007 5.92 50.8247 5.76C51.2487 5.6 51.7167 5.52 52.2287 5.52C52.5887 5.52 52.9207 5.556 53.2247 5.628C53.5367 5.7 53.8007 5.8 54.0167 5.928C54.2407 6.056 54.4167 6.208 54.5447 6.384C54.6727 6.552 54.7367 6.736 54.7367 6.936C54.7367 7.168 54.6687 7.352 54.5327 7.488C54.4047 7.624 54.2287 7.692 54.0047 7.692C53.8207 7.692 53.6567 7.644 53.5127 7.548C53.3767 7.452 53.2407 7.296 53.1047 7.08C52.9847 6.888 52.8807 6.736 52.7927 6.624C52.7127 6.512 52.6367 6.428 52.5647 6.372C52.4927 6.308 52.4207 6.268 52.3487 6.252C52.2767 6.228 52.1887 6.216 52.0847 6.216C51.6207 6.216 51.2607 6.432 51.0047 6.864C50.7487 7.296 50.6207 7.9 50.6207 8.676C50.6207 9.508 50.7727 10.148 51.0767 10.596C51.3887 11.044 51.8327 11.268 52.4087 11.268C52.7367 11.268 53.0647 11.208 53.3927 11.088C53.7207 10.96 54.0327 10.78 54.3287 10.548L54.6407 11.004ZM3.444 21.888C3.956 21.888 4.368 21.872 4.68 21.84C4.992 21.808 5.232 21.744 5.4 21.648C5.576 21.544 5.7 21.396 5.772 21.204C5.844 21.012 5.9 20.752 5.94 20.424H6.384V23.94H5.94C5.892 23.62 5.828 23.364 5.748 23.172C5.668 22.98 5.54 22.836 5.364 22.74C5.188 22.636 4.948 22.572 4.644 22.548C4.348 22.516 3.948 22.5 3.444 22.5V24.972C3.444 25.228 3.476 25.444 3.54 25.62C3.612 25.796 3.728 25.94 3.888 26.052C4.048 26.156 4.26 26.232 4.524 26.28C4.788 26.32 5.112 26.34 5.496 26.34C5.952 26.34 6.336 26.308 6.648 26.244C6.968 26.18 7.232 26.068 7.44 25.908C7.648 25.748 7.816 25.536 7.944 25.272C8.072 25 8.18 24.66 8.268 24.252H8.748L8.556 27H0.42V26.52C0.684 26.512 0.9 26.488 1.068 26.448C1.236 26.408 1.364 26.34 1.452 26.244C1.54 26.148 1.6 26.012 1.632 25.836C1.664 25.66 1.68 25.432 1.68 25.152V19.608C1.68 19.328 1.664 19.104 1.632 18.936C1.608 18.76 1.556 18.624 1.476 18.528C1.396 18.424 1.28 18.356 1.128 18.324C0.984 18.284 0.792 18.256 0.552 18.24V17.76H8.136L8.22 20.112H7.704C7.656 19.776 7.58 19.5 7.476 19.284C7.372 19.06 7.228 18.884 7.044 18.756C6.86 18.62 6.62 18.528 6.324 18.48C6.036 18.424 5.68 18.396 5.256 18.396H3.9C3.692 18.396 3.564 18.424 3.516 18.48C3.468 18.528 3.444 18.648 3.444 18.84V21.888ZM12.2481 25.044C12.2481 25.372 12.2561 25.632 12.2721 25.824C12.2961 26.008 12.3401 26.152 12.4041 26.256C12.4761 26.352 12.5801 26.416 12.7161 26.448C12.8601 26.48 13.0521 26.504 13.2921 26.52V27H9.51206V26.52C9.74406 26.504 9.92806 26.48 10.0641 26.448C10.2081 26.416 10.3161 26.352 10.3881 26.256C10.4681 26.16 10.5201 26.024 10.5441 25.848C10.5681 25.672 10.5801 25.432 10.5801 25.128V23.628C10.5801 23.156 10.5721 22.776 10.5561 22.488C10.5401 22.192 10.5201 21.992 10.4961 21.888C10.4721 21.784 10.4401 21.7 10.4001 21.636C10.3601 21.564 10.3001 21.512 10.2201 21.48C10.1401 21.44 10.0401 21.416 9.92006 21.408C9.80006 21.392 9.64806 21.384 9.46406 21.384V20.976L11.7801 20.52L11.9361 21.576H11.9841C12.2481 21.24 12.5601 20.98 12.9201 20.796C13.2801 20.612 13.6761 20.52 14.1081 20.52C14.6201 20.52 15.0321 20.592 15.3441 20.736C15.6641 20.872 15.9481 21.104 16.1961 21.432C16.3321 21.616 16.4521 21.856 16.5561 22.152C16.6601 22.44 16.7121 22.84 16.7121 23.352V25.044C16.7121 25.372 16.7201 25.632 16.7361 25.824C16.7601 26.008 16.8041 26.152 16.8681 26.256C16.9401 26.352 17.0441 26.416 17.1801 26.448C17.3161 26.48 17.5001 26.504 17.7321 26.52V27H13.9761V26.52C14.2161 26.512 14.4041 26.492 14.5401 26.46C14.6841 26.42 14.7921 26.352 14.8641 26.256C14.9361 26.16 14.9841 26.024 15.0081 25.848C15.0321 25.664 15.0441 25.424 15.0441 25.128V23.496C15.0441 23.088 15.0201 22.744 14.9721 22.464C14.9241 22.184 14.8441 21.96 14.7321 21.792C14.6281 21.616 14.4881 21.492 14.3121 21.42C14.1361 21.34 13.9161 21.3 13.6521 21.3C13.3961 21.3 13.1761 21.372 12.9921 21.516C12.8081 21.66 12.6481 21.86 12.5121 22.116C12.4401 22.26 12.3761 22.448 12.3201 22.68C12.2721 22.904 12.2481 23.14 12.2481 23.388V25.044ZM20.6188 25.704C20.8348 25.72 21.0228 25.736 21.1828 25.752C21.3508 25.768 21.5068 25.788 21.6508 25.812C21.8028 25.828 21.9508 25.848 22.0948 25.872C22.2468 25.888 22.4068 25.908 22.5748 25.932C23.1988 26.02 23.6868 26.256 24.0388 26.64C24.3988 27.016 24.5788 27.484 24.5788 28.044C24.5788 28.724 24.2988 29.24 23.7388 29.592C23.1788 29.944 22.3548 30.12 21.2668 30.12C20.2668 30.12 19.4948 29.972 18.9508 29.676C18.4148 29.388 18.1468 28.976 18.1468 28.44C18.1468 28.024 18.2548 27.708 18.4708 27.492C18.6868 27.284 18.9588 27.18 19.2868 27.18C19.4948 27.18 19.6948 27.22 19.8868 27.3C20.0868 27.388 20.2548 27.512 20.3908 27.672C20.1828 27.712 20.0108 27.804 19.8748 27.948C19.7468 28.1 19.6828 28.276 19.6828 28.476C19.6828 28.796 19.8228 29.04 20.1028 29.208C20.3908 29.384 20.8108 29.472 21.3628 29.472C22.5628 29.472 23.1628 29.092 23.1628 28.332C23.1628 28.06 23.0708 27.824 22.8868 27.624C22.7108 27.432 22.4548 27.316 22.1188 27.276L20.0188 26.988C19.1308 26.868 18.6868 26.472 18.6868 25.8C18.6868 25.472 18.7908 25.204 18.9988 24.996C19.2148 24.788 19.5188 24.644 19.9108 24.564V24.516C19.7268 24.444 19.5588 24.344 19.4068 24.216C19.2628 24.088 19.1348 23.94 19.0228 23.772C18.9108 23.604 18.8228 23.424 18.7588 23.232C18.7028 23.032 18.6748 22.828 18.6748 22.62C18.6748 22.324 18.7348 22.048 18.8548 21.792C18.9828 21.528 19.1548 21.304 19.3708 21.12C19.5948 20.936 19.8548 20.792 20.1508 20.688C20.4548 20.576 20.7828 20.52 21.1348 20.52C21.4788 20.52 21.8148 20.572 22.1428 20.676C22.4708 20.78 22.7508 20.924 22.9828 21.108C23.1668 20.996 23.3268 20.904 23.4628 20.832C23.5988 20.752 23.7228 20.692 23.8348 20.652C23.9548 20.604 24.0628 20.572 24.1588 20.556C24.2548 20.532 24.3508 20.52 24.4468 20.52C24.7508 20.52 24.9948 20.588 25.1788 20.724C25.3708 20.86 25.4668 21.04 25.4668 21.264C25.4668 21.432 25.4148 21.572 25.3108 21.684C25.2068 21.788 25.0708 21.84 24.9028 21.84C24.7828 21.84 24.6868 21.816 24.6148 21.768C24.5428 21.712 24.4708 21.652 24.3988 21.588C24.3348 21.516 24.2668 21.456 24.1948 21.408C24.1228 21.352 24.0268 21.324 23.9068 21.324C23.7388 21.324 23.5788 21.432 23.4268 21.648C23.5068 21.784 23.5628 21.932 23.5948 22.092C23.6268 22.244 23.6428 22.424 23.6428 22.632C23.6428 22.936 23.5948 23.216 23.4988 23.472C23.4028 23.728 23.2508 23.956 23.0428 24.156C22.8428 24.348 22.5828 24.512 22.2628 24.648C21.9428 24.784 21.5548 24.876 21.0988 24.924C20.7148 24.964 20.4468 25.016 20.2948 25.08C20.1508 25.144 20.0788 25.24 20.0788 25.368C20.0788 25.56 20.2588 25.672 20.6188 25.704ZM21.1948 24.24C21.4508 24.24 21.6508 24.104 21.7948 23.832C21.9388 23.56 22.0108 23.18 22.0108 22.692C22.0108 22.196 21.9388 21.816 21.7948 21.552C21.6508 21.28 21.4468 21.144 21.1828 21.144C20.9108 21.144 20.6948 21.28 20.5348 21.552C20.3748 21.824 20.2948 22.196 20.2948 22.668C20.2948 23.148 20.3748 23.532 20.5348 23.82C20.7028 24.1 20.9228 24.24 21.1948 24.24ZM28.291 25.032C28.291 25.352 28.303 25.608 28.327 25.8C28.351 25.992 28.399 26.14 28.471 26.244C28.543 26.348 28.647 26.42 28.783 26.46C28.919 26.492 29.103 26.512 29.335 26.52V27H25.555V26.52C25.779 26.512 25.959 26.488 26.095 26.448C26.239 26.4 26.347 26.328 26.419 26.232C26.499 26.128 26.551 25.988 26.575 25.812C26.607 25.628 26.623 25.396 26.623 25.116V23.64C26.623 23.176 26.615 22.796 26.599 22.5C26.583 22.196 26.563 21.988 26.539 21.876C26.499 21.676 26.407 21.544 26.263 21.48C26.127 21.416 25.875 21.384 25.507 21.384V20.976L28.291 20.52V25.032ZM26.527 17.976C26.527 17.712 26.615 17.492 26.791 17.316C26.975 17.132 27.195 17.04 27.451 17.04C27.715 17.04 27.935 17.132 28.111 17.316C28.295 17.492 28.387 17.712 28.387 17.976C28.387 18.232 28.295 18.452 28.111 18.636C27.935 18.812 27.715 18.9 27.451 18.9C27.195 18.9 26.975 18.812 26.791 18.636C26.615 18.452 26.527 18.232 26.527 17.976ZM32.627 25.044C32.627 25.372 32.635 25.632 32.651 25.824C32.675 26.008 32.719 26.152 32.783 26.256C32.855 26.352 32.959 26.416 33.095 26.448C33.239 26.48 33.431 26.504 33.671 26.52V27H29.891V26.52C30.123 26.504 30.307 26.48 30.443 26.448C30.587 26.416 30.695 26.352 30.767 26.256C30.847 26.16 30.899 26.024 30.923 25.848C30.947 25.672 30.959 25.432 30.959 25.128V23.628C30.959 23.156 30.951 22.776 30.935 22.488C30.919 22.192 30.899 21.992 30.875 21.888C30.851 21.784 30.819 21.7 30.779 21.636C30.739 21.564 30.679 21.512 30.599 21.48C30.519 21.44 30.419 21.416 30.299 21.408C30.179 21.392 30.027 21.384 29.843 21.384V20.976L32.159 20.52L32.315 21.576H32.363C32.627 21.24 32.939 20.98 33.299 20.796C33.659 20.612 34.055 20.52 34.487 20.52C34.999 20.52 35.411 20.592 35.723 20.736C36.043 20.872 36.327 21.104 36.575 21.432C36.711 21.616 36.831 21.856 36.935 22.152C37.039 22.44 37.091 22.84 37.091 23.352V25.044C37.091 25.372 37.099 25.632 37.115 25.824C37.139 26.008 37.183 26.152 37.247 26.256C37.319 26.352 37.423 26.416 37.559 26.448C37.695 26.48 37.879 26.504 38.111 26.52V27H34.355V26.52C34.595 26.512 34.783 26.492 34.919 26.46C35.063 26.42 35.171 26.352 35.243 26.256C35.315 26.16 35.363 26.024 35.387 25.848C35.411 25.664 35.423 25.424 35.423 25.128V23.496C35.423 23.088 35.399 22.744 35.351 22.464C35.303 22.184 35.223 21.96 35.111 21.792C35.007 21.616 34.867 21.492 34.691 21.42C34.515 21.34 34.295 21.3 34.031 21.3C33.775 21.3 33.555 21.372 33.371 21.516C33.187 21.66 33.027 21.86 32.891 22.116C32.819 22.26 32.755 22.448 32.699 22.68C32.651 22.904 32.627 23.14 32.627 23.388V25.044ZM44.7417 25.884C44.0137 26.708 43.1057 27.12 42.0177 27.12C41.5217 27.12 41.0697 27.044 40.6617 26.892C40.2617 26.732 39.9177 26.512 39.6297 26.232C39.3417 25.944 39.1177 25.604 38.9577 25.212C38.7977 24.82 38.7177 24.384 38.7177 23.904C38.7177 23.408 38.8017 22.956 38.9697 22.548C39.1377 22.132 39.3737 21.776 39.6777 21.48C39.9897 21.176 40.3537 20.94 40.7697 20.772C41.1937 20.604 41.6577 20.52 42.1617 20.52C43.0097 20.52 43.6697 20.748 44.1417 21.204C44.6137 21.66 44.8497 22.3 44.8497 23.124C44.8497 23.252 44.8297 23.332 44.7897 23.364C44.7497 23.388 44.6377 23.4 44.4537 23.4H40.5897C40.5577 23.472 40.5417 23.604 40.5417 23.796C40.5417 24.58 40.7097 25.2 41.0457 25.656C41.3897 26.112 41.8537 26.34 42.4377 26.34C42.7737 26.34 43.1057 26.264 43.4337 26.112C43.7697 25.96 44.0937 25.744 44.4057 25.464L44.7417 25.884ZM42.4137 22.728C42.7337 22.728 42.9377 22.712 43.0257 22.68C43.1217 22.64 43.1697 22.552 43.1697 22.416C43.1697 22.064 43.0697 21.776 42.8697 21.552C42.6697 21.328 42.4177 21.216 42.1137 21.216C41.7697 21.216 41.4617 21.36 41.1897 21.648C40.9257 21.928 40.7537 22.288 40.6737 22.728H42.4137ZM51.7613 25.884C51.0333 26.708 50.1253 27.12 49.0373 27.12C48.5413 27.12 48.0893 27.044 47.6813 26.892C47.2813 26.732 46.9373 26.512 46.6493 26.232C46.3613 25.944 46.1373 25.604 45.9773 25.212C45.8173 24.82 45.7373 24.384 45.7373 23.904C45.7373 23.408 45.8213 22.956 45.9893 22.548C46.1573 22.132 46.3933 21.776 46.6973 21.48C47.0093 21.176 47.3733 20.94 47.7893 20.772C48.2133 20.604 48.6773 20.52 49.1813 20.52C50.0293 20.52 50.6893 20.748 51.1613 21.204C51.6333 21.66 51.8693 22.3 51.8693 23.124C51.8693 23.252 51.8493 23.332 51.8093 23.364C51.7693 23.388 51.6573 23.4 51.4733 23.4H47.6093C47.5773 23.472 47.5613 23.604 47.5613 23.796C47.5613 24.58 47.7293 25.2 48.0653 25.656C48.4093 26.112 48.8733 26.34 49.4573 26.34C49.7933 26.34 50.1253 26.264 50.4533 26.112C50.7893 25.96 51.1133 25.744 51.4253 25.464L51.7613 25.884ZM49.4333 22.728C49.7533 22.728 49.9573 22.712 50.0453 22.68C50.1413 22.64 50.1893 22.552 50.1893 22.416C50.1893 22.064 50.0893 21.776 49.8893 21.552C49.6893 21.328 49.4373 21.216 49.1333 21.216C48.7893 21.216 48.4813 21.36 48.2093 21.648C47.9453 21.928 47.7733 22.288 47.6933 22.728H49.4333ZM55.3968 25.14C55.3968 25.452 55.4088 25.7 55.4328 25.884C55.4648 26.06 55.5248 26.196 55.6128 26.292C55.7008 26.388 55.8288 26.452 55.9968 26.484C56.1648 26.508 56.3888 26.52 56.6688 26.52V27H52.6608V26.52C52.9008 26.504 53.0928 26.48 53.2368 26.448C53.3808 26.416 53.4888 26.352 53.5608 26.256C53.6328 26.16 53.6768 26.024 53.6928 25.848C53.7168 25.664 53.7288 25.42 53.7288 25.116V23.652C53.7288 23.156 53.7168 22.76 53.6928 22.464C53.6688 22.168 53.6168 21.94 53.5368 21.78C53.4568 21.62 53.3408 21.516 53.1888 21.468C53.0448 21.412 52.8528 21.384 52.6128 21.384V20.964L55.0128 20.52L55.2048 21.9H55.2528C55.4688 21.476 55.7528 21.14 56.1048 20.892C56.4568 20.644 56.8288 20.52 57.2208 20.52C57.5248 20.52 57.7728 20.596 57.9648 20.748C58.1568 20.9 58.2528 21.092 58.2528 21.324C58.2528 21.58 58.1768 21.796 58.0248 21.972C57.8808 22.148 57.6808 22.236 57.4248 22.236C57.3048 22.236 57.1968 22.212 57.1008 22.164C57.0048 22.116 56.9168 22.064 56.8368 22.008C56.7648 21.944 56.6888 21.888 56.6088 21.84C56.5368 21.784 56.4608 21.756 56.3808 21.756C56.2288 21.756 56.0848 21.856 55.9488 22.056C55.8128 22.256 55.7008 22.524 55.6128 22.86C55.5488 23.1 55.4968 23.372 55.4568 23.676C55.4168 23.972 55.3968 24.268 55.3968 24.564V25.14ZM61.3613 25.032C61.3613 25.352 61.3733 25.608 61.3973 25.8C61.4213 25.992 61.4693 26.14 61.5413 26.244C61.6133 26.348 61.7173 26.42 61.8533 26.46C61.9893 26.492 62.1733 26.512 62.4053 26.52V27H58.6253V26.52C58.8493 26.512 59.0293 26.488 59.1653 26.448C59.3093 26.4 59.4173 26.328 59.4893 26.232C59.5693 26.128 59.6213 25.988 59.6453 25.812C59.6773 25.628 59.6933 25.396 59.6933 25.116V23.64C59.6933 23.176 59.6853 22.796 59.6693 22.5C59.6533 22.196 59.6333 21.988 59.6093 21.876C59.5693 21.676 59.4773 21.544 59.3333 21.48C59.1973 21.416 58.9453 21.384 58.5773 21.384V20.976L61.3613 20.52V25.032ZM59.5973 17.976C59.5973 17.712 59.6853 17.492 59.8613 17.316C60.0453 17.132 60.2653 17.04 60.5213 17.04C60.7853 17.04 61.0053 17.132 61.1813 17.316C61.3653 17.492 61.4573 17.712 61.4573 17.976C61.4573 18.232 61.3653 18.452 61.1813 18.636C61.0053 18.812 60.7853 18.9 60.5213 18.9C60.2653 18.9 60.0453 18.812 59.8613 18.636C59.6853 18.452 59.5973 18.232 59.5973 17.976ZM65.6973 25.044C65.6973 25.372 65.7053 25.632 65.7213 25.824C65.7453 26.008 65.7893 26.152 65.8533 26.256C65.9253 26.352 66.0293 26.416 66.1653 26.448C66.3093 26.48 66.5013 26.504 66.7413 26.52V27H62.9613V26.52C63.1933 26.504 63.3773 26.48 63.5133 26.448C63.6573 26.416 63.7653 26.352 63.8373 26.256C63.9173 26.16 63.9693 26.024 63.9933 25.848C64.0173 25.672 64.0293 25.432 64.0293 25.128V23.628C64.0293 23.156 64.0213 22.776 64.0053 22.488C63.9893 22.192 63.9693 21.992 63.9453 21.888C63.9213 21.784 63.8893 21.7 63.8493 21.636C63.8093 21.564 63.7493 21.512 63.6693 21.48C63.5893 21.44 63.4893 21.416 63.3693 21.408C63.2493 21.392 63.0973 21.384 62.9133 21.384V20.976L65.2293 20.52L65.3853 21.576H65.4333C65.6973 21.24 66.0093 20.98 66.3693 20.796C66.7293 20.612 67.1253 20.52 67.5573 20.52C68.0693 20.52 68.4813 20.592 68.7933 20.736C69.1133 20.872 69.3973 21.104 69.6453 21.432C69.7813 21.616 69.9013 21.856 70.0053 22.152C70.1093 22.44 70.1613 22.84 70.1613 23.352V25.044C70.1613 25.372 70.1693 25.632 70.1853 25.824C70.2093 26.008 70.2533 26.152 70.3173 26.256C70.3893 26.352 70.4933 26.416 70.6293 26.448C70.7653 26.48 70.9493 26.504 71.1813 26.52V27H67.4253V26.52C67.6653 26.512 67.8533 26.492 67.9893 26.46C68.1333 26.42 68.2413 26.352 68.3133 26.256C68.3853 26.16 68.4333 26.024 68.4573 25.848C68.4813 25.664 68.4933 25.424 68.4933 25.128V23.496C68.4933 23.088 68.4693 22.744 68.4213 22.464C68.3733 22.184 68.2933 21.96 68.1813 21.792C68.0773 21.616 67.9373 21.492 67.7613 21.42C67.5853 21.34 67.3653 21.3 67.1013 21.3C66.8453 21.3 66.6253 21.372 66.4413 21.516C66.2573 21.66 66.0973 21.86 65.9613 22.116C65.8893 22.26 65.8253 22.448 65.7693 22.68C65.7213 22.904 65.6973 23.14 65.6973 23.388V25.044ZM74.068 25.704C74.284 25.72 74.472 25.736 74.632 25.752C74.8 25.768 74.956 25.788 75.1 25.812C75.252 25.828 75.4 25.848 75.544 25.872C75.696 25.888 75.856 25.908 76.024 25.932C76.648 26.02 77.136 26.256 77.488 26.64C77.848 27.016 78.028 27.484 78.028 28.044C78.028 28.724 77.748 29.24 77.188 29.592C76.628 29.944 75.804 30.12 74.716 30.12C73.716 30.12 72.944 29.972 72.4 29.676C71.864 29.388 71.596 28.976 71.596 28.44C71.596 28.024 71.704 27.708 71.92 27.492C72.136 27.284 72.408 27.18 72.736 27.18C72.944 27.18 73.144 27.22 73.336 27.3C73.536 27.388 73.704 27.512 73.84 27.672C73.632 27.712 73.46 27.804 73.324 27.948C73.196 28.1 73.132 28.276 73.132 28.476C73.132 28.796 73.272 29.04 73.552 29.208C73.84 29.384 74.26 29.472 74.812 29.472C76.012 29.472 76.612 29.092 76.612 28.332C76.612 28.06 76.52 27.824 76.336 27.624C76.16 27.432 75.904 27.316 75.568 27.276L73.468 26.988C72.58 26.868 72.136 26.472 72.136 25.8C72.136 25.472 72.24 25.204 72.448 24.996C72.664 24.788 72.968 24.644 73.36 24.564V24.516C73.176 24.444 73.008 24.344 72.856 24.216C72.712 24.088 72.584 23.94 72.472 23.772C72.36 23.604 72.272 23.424 72.208 23.232C72.152 23.032 72.124 22.828 72.124 22.62C72.124 22.324 72.184 22.048 72.304 21.792C72.432 21.528 72.604 21.304 72.82 21.12C73.044 20.936 73.304 20.792 73.6 20.688C73.904 20.576 74.232 20.52 74.584 20.52C74.928 20.52 75.264 20.572 75.592 20.676C75.92 20.78 76.2 20.924 76.432 21.108C76.616 20.996 76.776 20.904 76.912 20.832C77.048 20.752 77.172 20.692 77.284 20.652C77.404 20.604 77.512 20.572 77.608 20.556C77.704 20.532 77.8 20.52 77.896 20.52C78.2 20.52 78.444 20.588 78.628 20.724C78.82 20.86 78.916 21.04 78.916 21.264C78.916 21.432 78.864 21.572 78.76 21.684C78.656 21.788 78.52 21.84 78.352 21.84C78.232 21.84 78.136 21.816 78.064 21.768C77.992 21.712 77.92 21.652 77.848 21.588C77.784 21.516 77.716 21.456 77.644 21.408C77.572 21.352 77.476 21.324 77.356 21.324C77.188 21.324 77.028 21.432 76.876 21.648C76.956 21.784 77.012 21.932 77.044 22.092C77.076 22.244 77.092 22.424 77.092 22.632C77.092 22.936 77.044 23.216 76.948 23.472C76.852 23.728 76.7 23.956 76.492 24.156C76.292 24.348 76.032 24.512 75.712 24.648C75.392 24.784 75.004 24.876 74.548 24.924C74.164 24.964 73.896 25.016 73.744 25.08C73.6 25.144 73.528 25.24 73.528 25.368C73.528 25.56 73.708 25.672 74.068 25.704ZM74.644 24.24C74.9 24.24 75.1 24.104 75.244 23.832C75.388 23.56 75.46 23.18 75.46 22.692C75.46 22.196 75.388 21.816 75.244 21.552C75.1 21.28 74.896 21.144 74.632 21.144C74.36 21.144 74.144 21.28 73.984 21.552C73.824 21.824 73.744 22.196 73.744 22.668C73.744 23.148 73.824 23.532 73.984 23.82C74.152 24.1 74.372 24.24 74.644 24.24Z" fill="black"/>
</svg>
