<svg width="77" height="41" viewBox="0 0 77 41" fill="none" xmlns="http://www.w3.org/2000/svg">
<path d="M9.432 5.052H8.94C8.916 4.708 8.86 4.42 8.772 4.188C8.684 3.956 8.556 3.776 8.388 3.648C8.228 3.512 8.024 3.416 7.776 3.36C7.528 3.304 7.232 3.276 6.888 3.276C6.592 3.276 6.352 3.284 6.168 3.3C5.992 3.308 5.856 3.328 5.76 3.36C5.664 3.392 5.6 3.432 5.568 3.48C5.544 3.52 5.532 3.576 5.532 3.648V10.068C5.532 10.324 5.548 10.544 5.58 10.728C5.62 10.912 5.692 11.064 5.796 11.184C5.908 11.296 6.064 11.384 6.264 11.448C6.472 11.504 6.744 11.536 7.08 11.544V12H2.544V11.544C2.88 11.536 3.152 11.504 3.36 11.448C3.568 11.384 3.724 11.296 3.828 11.184C3.94 11.064 4.012 10.912 4.044 10.728C4.084 10.544 4.104 10.324 4.104 10.068V3.648C4.104 3.576 4.088 3.52 4.056 3.48C4.032 3.432 3.976 3.392 3.888 3.36C3.808 3.328 3.692 3.308 3.54 3.3C3.388 3.284 3.184 3.276 2.928 3.276C2.616 3.276 2.324 3.288 2.052 3.312C1.788 3.336 1.556 3.408 1.356 3.528C1.164 3.64 1.008 3.816 0.888 4.056C0.768 4.296 0.704 4.628 0.696 5.052H0.252V2.76H9.312L9.432 5.052ZM14.6078 10.884C13.9278 11.708 13.0838 12.12 12.0758 12.12C11.6038 12.12 11.1758 12.044 10.7918 11.892C10.4078 11.732 10.0758 11.512 9.79575 11.232C9.52375 10.944 9.31175 10.604 9.15975 10.212C9.00775 9.812 8.93175 9.372 8.93175 8.892C8.93175 8.404 9.01175 7.952 9.17175 7.536C9.33175 7.12 9.55575 6.764 9.84375 6.468C10.1398 6.172 10.4878 5.94 10.8878 5.772C11.2958 5.604 11.7398 5.52 12.2198 5.52C12.9958 5.52 13.5958 5.732 14.0198 6.156C14.4438 6.572 14.6558 7.172 14.6558 7.956C14.6558 8.068 14.6318 8.136 14.5838 8.16C14.5438 8.184 14.4438 8.196 14.2838 8.196H10.3358C10.3198 8.26 10.3078 8.34 10.2998 8.436C10.2918 8.524 10.2878 8.624 10.2878 8.736C10.2878 9.152 10.3358 9.532 10.4318 9.876C10.5358 10.212 10.6798 10.5 10.8638 10.74C11.0558 10.98 11.2798 11.168 11.5358 11.304C11.7998 11.432 12.0918 11.496 12.4118 11.496C12.7478 11.496 13.0598 11.424 13.3478 11.28C13.6358 11.128 13.9318 10.884 14.2358 10.548L14.6078 10.884ZM12.6278 7.644C12.7878 7.644 12.9158 7.64 13.0118 7.632C13.1078 7.624 13.1798 7.608 13.2278 7.584C13.2758 7.56 13.3078 7.528 13.3238 7.488C13.3398 7.44 13.3478 7.38 13.3478 7.308C13.3478 6.94 13.2278 6.648 12.9878 6.432C12.7558 6.208 12.4358 6.096 12.0278 6.096C11.1638 6.096 10.6278 6.612 10.4198 7.644H12.6278ZM21.2947 11.004C21.0067 11.356 20.6347 11.632 20.1787 11.832C19.7227 12.024 19.2307 12.12 18.7027 12.12C18.2787 12.12 17.8867 12.044 17.5267 11.892C17.1747 11.732 16.8707 11.512 16.6147 11.232C16.3587 10.944 16.1587 10.6 16.0147 10.2C15.8787 9.8 15.8107 9.356 15.8107 8.868C15.8107 8.356 15.8907 7.896 16.0507 7.488C16.2107 7.072 16.4347 6.72 16.7227 6.432C17.0187 6.136 17.3707 5.912 17.7787 5.76C18.1947 5.6 18.6507 5.52 19.1467 5.52C19.4587 5.52 19.7427 5.548 19.9987 5.604C20.2547 5.652 20.4747 5.724 20.6587 5.82C20.8507 5.908 20.9987 6.02 21.1027 6.156C21.2067 6.284 21.2587 6.424 21.2587 6.576C21.2587 6.736 21.2067 6.86 21.1027 6.948C20.9987 7.036 20.8547 7.08 20.6707 7.08C20.5267 7.08 20.4067 7.052 20.3107 6.996C20.2147 6.932 20.0907 6.796 19.9387 6.588C19.7787 6.404 19.6227 6.276 19.4707 6.204C19.3267 6.124 19.1387 6.084 18.9067 6.084C18.3387 6.084 17.9067 6.304 17.6107 6.744C17.3227 7.184 17.1787 7.832 17.1787 8.688C17.1787 9.608 17.3387 10.308 17.6587 10.788C17.9867 11.26 18.4627 11.496 19.0867 11.496C19.4227 11.496 19.7387 11.432 20.0347 11.304C20.3307 11.168 20.6307 10.952 20.9347 10.656L21.2947 11.004ZM22.1363 6.396V5.952C22.5603 5.704 22.8923 5.456 23.1323 5.208C23.3723 4.96 23.5563 4.664 23.6843 4.32H24.0323V5.832H25.6403V6.396H24.0323V10.044C24.0323 10.324 24.0443 10.56 24.0683 10.752C24.1003 10.944 24.1483 11.1 24.2123 11.22C24.2763 11.332 24.3603 11.412 24.4643 11.46C24.5683 11.508 24.7003 11.532 24.8603 11.532C25.0603 11.532 25.2283 11.492 25.3643 11.412C25.5083 11.324 25.6483 11.18 25.7843 10.98L26.0843 11.208C25.9723 11.504 25.7763 11.732 25.4963 11.892C25.2243 12.044 24.8843 12.12 24.4763 12.12C23.9483 12.12 23.5443 11.996 23.2643 11.748C22.9923 11.492 22.8563 11.128 22.8563 10.656V6.396H22.1363ZM30.0914 5.52C30.5474 5.52 30.9794 5.604 31.3874 5.772C31.7954 5.932 32.1514 6.156 32.4554 6.444C32.7674 6.732 33.0114 7.076 33.1874 7.476C33.3714 7.868 33.4634 8.3 33.4634 8.772C33.4634 9.26 33.3714 9.708 33.1874 10.116C33.0114 10.524 32.7674 10.876 32.4554 11.172C32.1514 11.468 31.7954 11.7 31.3874 11.868C30.9794 12.036 30.5474 12.12 30.0914 12.12C29.6434 12.12 29.2154 12.04 28.8074 11.88C28.4074 11.712 28.0554 11.48 27.7514 11.184C27.4474 10.888 27.2074 10.536 27.0314 10.128C26.8554 9.712 26.7674 9.26 26.7674 8.772C26.7674 8.3 26.8554 7.864 27.0314 7.464C27.2074 7.064 27.4474 6.72 27.7514 6.432C28.0554 6.144 28.4074 5.92 28.8074 5.76C29.2154 5.6 29.6434 5.52 30.0914 5.52ZM30.0914 6.096C29.7954 6.096 29.5234 6.16 29.2754 6.288C29.0354 6.416 28.8274 6.6 28.6514 6.84C28.4834 7.072 28.3514 7.356 28.2554 7.692C28.1674 8.02 28.1234 8.384 28.1234 8.784C28.1234 9.2 28.1674 9.576 28.2554 9.912C28.3514 10.248 28.4834 10.536 28.6514 10.776C28.8274 11.008 29.0354 11.188 29.2754 11.316C29.5154 11.444 29.7874 11.508 30.0914 11.508C30.3954 11.508 30.6714 11.444 30.9194 11.316C31.1674 11.188 31.3794 11.004 31.5554 10.764C31.7314 10.524 31.8674 10.236 31.9634 9.9C32.0594 9.564 32.1074 9.192 32.1074 8.784C32.1074 8.384 32.0594 8.02 31.9634 7.692C31.8674 7.364 31.7314 7.084 31.5554 6.852C31.3794 6.612 31.1674 6.428 30.9194 6.3C30.6714 6.164 30.3954 6.096 30.0914 6.096ZM36.635 10.116C36.635 10.444 36.643 10.704 36.659 10.896C36.675 11.08 36.715 11.224 36.779 11.328C36.851 11.424 36.951 11.488 37.079 11.52C37.215 11.552 37.399 11.576 37.631 11.592V12H34.487V11.592C34.711 11.576 34.887 11.552 35.015 11.52C35.151 11.488 35.255 11.424 35.327 11.328C35.399 11.232 35.443 11.096 35.459 10.92C35.483 10.744 35.495 10.504 35.495 10.2V8.604C35.495 7.652 35.471 7.072 35.423 6.864C35.399 6.76 35.367 6.676 35.327 6.612C35.295 6.54 35.243 6.488 35.171 6.456C35.099 6.416 35.007 6.392 34.895 6.384C34.783 6.368 34.639 6.36 34.463 6.36V5.976L36.383 5.52L36.527 6.708H36.575C36.879 6.332 37.235 6.04 37.643 5.832C38.051 5.624 38.495 5.52 38.975 5.52C39.343 5.52 39.679 5.58 39.983 5.7C40.287 5.82 40.519 5.984 40.679 6.192C40.815 6.376 40.911 6.616 40.967 6.912C41.023 7.2 41.051 7.6 41.051 8.112V10.116C41.051 10.444 41.059 10.704 41.075 10.896C41.099 11.08 41.143 11.224 41.207 11.328C41.271 11.424 41.367 11.488 41.495 11.52C41.631 11.552 41.807 11.576 42.023 11.592V12H38.915V11.592C39.139 11.584 39.315 11.564 39.443 11.532C39.579 11.492 39.679 11.424 39.743 11.328C39.815 11.232 39.859 11.096 39.875 10.92C39.899 10.736 39.911 10.496 39.911 10.2V8.616C39.911 8.16 39.887 7.776 39.839 7.464C39.791 7.152 39.711 6.9 39.599 6.708C39.495 6.516 39.355 6.38 39.179 6.3C39.003 6.212 38.791 6.168 38.543 6.168C38.183 6.168 37.851 6.264 37.547 6.456C37.251 6.64 37.019 6.896 36.851 7.224C36.811 7.304 36.775 7.38 36.743 7.452C36.719 7.524 36.699 7.608 36.683 7.704C36.667 7.8 36.655 7.912 36.647 8.04C36.639 8.16 36.635 8.316 36.635 8.508V10.116ZM45.0524 10.092C45.0524 10.404 45.0644 10.656 45.0884 10.848C45.1204 11.032 45.1764 11.18 45.2564 11.292C45.3364 11.396 45.4484 11.468 45.5924 11.508C45.7364 11.548 45.9284 11.572 46.1684 11.58V12H42.7244V11.58C42.9644 11.572 43.1604 11.548 43.3124 11.508C43.4644 11.46 43.5804 11.388 43.6604 11.292C43.7484 11.188 43.8044 11.048 43.8284 10.872C43.8604 10.688 43.8764 10.456 43.8764 10.176V8.64C43.8764 8.176 43.8684 7.796 43.8524 7.5C43.8444 7.196 43.8244 6.988 43.7924 6.876C43.7524 6.692 43.6604 6.568 43.5164 6.504C43.3724 6.432 43.1004 6.396 42.7004 6.396V5.976L45.0524 5.52V10.092ZM43.6724 3.084C43.6724 2.876 43.7444 2.7 43.8884 2.556C44.0324 2.412 44.2084 2.34 44.4164 2.34C44.6244 2.34 44.8004 2.412 44.9444 2.556C45.0884 2.7 45.1604 2.876 45.1604 3.084C45.1604 3.292 45.0884 3.468 44.9444 3.612C44.8004 3.756 44.6244 3.828 44.4164 3.828C44.2084 3.828 44.0324 3.756 43.8884 3.612C43.7444 3.468 43.6724 3.292 43.6724 3.084ZM52.4783 11.004C52.1903 11.356 51.8183 11.632 51.3623 11.832C50.9063 12.024 50.4143 12.12 49.8863 12.12C49.4623 12.12 49.0703 12.044 48.7103 11.892C48.3583 11.732 48.0543 11.512 47.7983 11.232C47.5423 10.944 47.3423 10.6 47.1982 10.2C47.0623 9.8 46.9943 9.356 46.9943 8.868C46.9943 8.356 47.0743 7.896 47.2343 7.488C47.3943 7.072 47.6183 6.72 47.9062 6.432C48.2023 6.136 48.5543 5.912 48.9623 5.76C49.3783 5.6 49.8343 5.52 50.3303 5.52C50.6423 5.52 50.9263 5.548 51.1823 5.604C51.4383 5.652 51.6583 5.724 51.8423 5.82C52.0343 5.908 52.1823 6.02 52.2863 6.156C52.3903 6.284 52.4423 6.424 52.4423 6.576C52.4423 6.736 52.3903 6.86 52.2863 6.948C52.1823 7.036 52.0383 7.08 51.8543 7.08C51.7103 7.08 51.5903 7.052 51.4943 6.996C51.3983 6.932 51.2743 6.796 51.1223 6.588C50.9623 6.404 50.8063 6.276 50.6543 6.204C50.5103 6.124 50.3223 6.084 50.0903 6.084C49.5223 6.084 49.0903 6.304 48.7943 6.744C48.5063 7.184 48.3623 7.832 48.3623 8.688C48.3623 9.608 48.5223 10.308 48.8423 10.788C49.1703 11.26 49.6463 11.496 50.2703 11.496C50.6063 11.496 50.9223 11.432 51.2183 11.304C51.5143 11.168 51.8143 10.952 52.1183 10.656L52.4783 11.004ZM3.12 21.924C3.552 21.924 3.912 21.9 4.2 21.852C4.496 21.796 4.728 21.712 4.896 21.6C5.072 21.488 5.196 21.344 5.268 21.168C5.348 20.992 5.388 20.784 5.388 20.544H5.808V23.82H5.388C5.388 23.58 5.352 23.372 5.28 23.196C5.216 23.02 5.096 22.876 4.92 22.764C4.752 22.644 4.52 22.556 4.224 22.5C3.936 22.436 3.568 22.404 3.12 22.404V25.116C3.12 25.38 3.152 25.6 3.216 25.776C3.28 25.944 3.388 26.084 3.54 26.196C3.7 26.3 3.908 26.376 4.164 26.424C4.42 26.464 4.736 26.484 5.112 26.484C5.536 26.484 5.896 26.456 6.192 26.4C6.488 26.336 6.736 26.232 6.936 26.088C7.136 25.944 7.296 25.756 7.416 25.524C7.536 25.284 7.636 24.988 7.716 24.636H8.172L7.992 27H0.54V26.544C0.82 26.536 1.044 26.512 1.212 26.472C1.388 26.432 1.524 26.364 1.62 26.268C1.716 26.172 1.78 26.036 1.812 25.86C1.844 25.684 1.86 25.456 1.86 25.176V19.584C1.86 19.304 1.844 19.08 1.812 18.912C1.788 18.736 1.732 18.6 1.644 18.504C1.564 18.4 1.444 18.332 1.284 18.3C1.124 18.26 0.916 18.232 0.66 18.216V17.76H7.596L7.704 19.872H7.284C7.236 19.552 7.156 19.292 7.044 19.092C6.94 18.884 6.792 18.72 6.6 18.6C6.416 18.48 6.18 18.396 5.892 18.348C5.604 18.3 5.256 18.276 4.848 18.276H3.324C3.188 18.276 3.12 18.344 3.12 18.48V21.924ZM11.299 25.116C11.299 25.444 11.307 25.704 11.323 25.896C11.339 26.08 11.379 26.224 11.443 26.328C11.515 26.424 11.615 26.488 11.743 26.52C11.879 26.552 12.063 26.576 12.295 26.592V27H9.15103V26.592C9.37503 26.576 9.55103 26.552 9.67903 26.52C9.81503 26.488 9.91903 26.424 9.99103 26.328C10.063 26.232 10.107 26.096 10.123 25.92C10.147 25.744 10.159 25.504 10.159 25.2V23.604C10.159 22.652 10.135 22.072 10.087 21.864C10.063 21.76 10.031 21.676 9.99103 21.612C9.95903 21.54 9.90703 21.488 9.83503 21.456C9.76303 21.416 9.67103 21.392 9.55903 21.384C9.44703 21.368 9.30303 21.36 9.12703 21.36V20.976L11.047 20.52L11.191 21.708H11.239C11.543 21.332 11.899 21.04 12.307 20.832C12.715 20.624 13.159 20.52 13.639 20.52C14.007 20.52 14.343 20.58 14.647 20.7C14.951 20.82 15.183 20.984 15.343 21.192C15.479 21.376 15.575 21.616 15.631 21.912C15.687 22.2 15.715 22.6 15.715 23.112V25.116C15.715 25.444 15.723 25.704 15.739 25.896C15.763 26.08 15.807 26.224 15.871 26.328C15.935 26.424 16.031 26.488 16.159 26.52C16.295 26.552 16.471 26.576 16.687 26.592V27H13.579V26.592C13.803 26.584 13.979 26.564 14.107 26.532C14.243 26.492 14.343 26.424 14.407 26.328C14.479 26.232 14.523 26.096 14.539 25.92C14.563 25.736 14.575 25.496 14.575 25.2V23.616C14.575 23.16 14.551 22.776 14.503 22.464C14.455 22.152 14.375 21.9 14.263 21.708C14.159 21.516 14.019 21.38 13.843 21.3C13.667 21.212 13.455 21.168 13.207 21.168C12.847 21.168 12.515 21.264 12.211 21.456C11.915 21.64 11.683 21.896 11.515 22.224C11.475 22.304 11.439 22.38 11.407 22.452C11.383 22.524 11.363 22.608 11.347 22.704C11.331 22.8 11.319 22.912 11.311 23.04C11.303 23.16 11.299 23.316 11.299 23.508V25.116ZM20.2685 24.42C20.6045 24.42 20.8645 24.268 21.0485 23.964C21.2405 23.66 21.3365 23.232 21.3365 22.68C21.3365 22.136 21.2405 21.716 21.0485 21.42C20.8645 21.116 20.6005 20.964 20.2565 20.964C19.9125 20.964 19.6365 21.116 19.4285 21.42C19.2285 21.724 19.1285 22.14 19.1285 22.668C19.1285 23.196 19.2325 23.62 19.4405 23.94C19.6485 24.26 19.9245 24.42 20.2685 24.42ZM19.6085 25.824C19.8005 25.84 19.9765 25.856 20.1365 25.872C20.2965 25.888 20.4525 25.904 20.6045 25.92C20.7645 25.936 20.9205 25.956 21.0725 25.98C21.2325 26.004 21.4045 26.028 21.5885 26.052C22.1645 26.14 22.6245 26.364 22.9685 26.724C23.3205 27.076 23.4965 27.52 23.4965 28.056C23.4965 28.728 23.2285 29.24 22.6925 29.592C22.1645 29.944 21.3965 30.12 20.3885 30.12C19.9405 30.12 19.5285 30.08 19.1525 30C18.7845 29.92 18.4685 29.804 18.2045 29.652C17.9405 29.508 17.7325 29.332 17.5805 29.124C17.4365 28.916 17.3645 28.688 17.3645 28.44C17.3645 28.272 17.3925 28.116 17.4485 27.972C17.5045 27.828 17.5805 27.7 17.6765 27.588C17.7725 27.484 17.8845 27.4 18.0125 27.336C18.1485 27.272 18.2885 27.24 18.4325 27.24C18.7045 27.24 18.9485 27.324 19.1645 27.492C18.9485 27.54 18.7725 27.656 18.6365 27.84C18.5005 28.032 18.4325 28.248 18.4325 28.488C18.4325 28.84 18.6045 29.112 18.9485 29.304C19.3005 29.496 19.7965 29.592 20.4365 29.592C21.8045 29.592 22.4885 29.172 22.4885 28.332C22.4885 28.012 22.3805 27.744 22.1645 27.528C21.9485 27.32 21.6925 27.196 21.3965 27.156C21.2045 27.132 21.0045 27.104 20.7965 27.072C20.5965 27.048 20.3965 27.024 20.1965 27C20.0045 26.976 19.8245 26.956 19.6565 26.94C19.4885 26.924 19.3525 26.908 19.2485 26.892C18.8005 26.844 18.4605 26.724 18.2285 26.532C17.9965 26.34 17.8805 26.076 17.8805 25.74C17.8805 25.46 17.9965 25.212 18.2285 24.996C18.4605 24.78 18.7525 24.644 19.1045 24.588V24.54C18.9285 24.468 18.7645 24.368 18.6125 24.24C18.4605 24.104 18.3285 23.952 18.2165 23.784C18.1125 23.616 18.0285 23.436 17.9645 23.244C17.9005 23.044 17.8685 22.84 17.8685 22.632C17.8685 22.328 17.9245 22.048 18.0365 21.792C18.1565 21.536 18.3205 21.316 18.5285 21.132C18.7445 20.94 18.9965 20.792 19.2845 20.688C19.5725 20.576 19.8885 20.52 20.2325 20.52C20.5845 20.52 20.9165 20.576 21.2285 20.688C21.5405 20.792 21.8085 20.948 22.0325 21.156C22.3045 20.932 22.5445 20.772 22.7525 20.676C22.9605 20.572 23.1565 20.52 23.3405 20.52C23.6285 20.52 23.8565 20.588 24.0245 20.724C24.2005 20.852 24.2885 21.028 24.2885 21.252C24.2885 21.388 24.2405 21.496 24.1445 21.576C24.0565 21.656 23.9445 21.696 23.8085 21.696C23.6965 21.696 23.6045 21.676 23.5325 21.636C23.4605 21.596 23.3925 21.556 23.3285 21.516C23.2725 21.468 23.2125 21.424 23.1485 21.384C23.0845 21.344 23.0045 21.324 22.9085 21.324C22.7165 21.324 22.5205 21.392 22.3205 21.528C22.5125 21.824 22.6085 22.196 22.6085 22.644C22.6085 23.324 22.3965 23.86 21.9725 24.252C21.5485 24.636 20.9125 24.86 20.0645 24.924C19.5765 24.964 19.2365 25.016 19.0445 25.08C18.8525 25.144 18.7565 25.26 18.7565 25.428C18.7565 25.556 18.8285 25.652 18.9725 25.716C19.1165 25.772 19.3285 25.808 19.6085 25.824ZM26.9001 25.092C26.9001 25.404 26.9121 25.656 26.9361 25.848C26.9681 26.032 27.0241 26.18 27.1041 26.292C27.1841 26.396 27.2961 26.468 27.4401 26.508C27.5841 26.548 27.7761 26.572 28.0161 26.58V27H24.5721V26.58C24.8121 26.572 25.0081 26.548 25.1601 26.508C25.3121 26.46 25.4281 26.388 25.5081 26.292C25.5961 26.188 25.6521 26.048 25.6761 25.872C25.7081 25.688 25.7241 25.456 25.7241 25.176V23.64C25.7241 23.176 25.7161 22.796 25.7001 22.5C25.6921 22.196 25.6721 21.988 25.6401 21.876C25.6001 21.692 25.5081 21.568 25.3641 21.504C25.2201 21.432 24.9481 21.396 24.5481 21.396V20.976L26.9001 20.52V25.092ZM25.5201 18.084C25.5201 17.876 25.5921 17.7 25.7361 17.556C25.8801 17.412 26.0561 17.34 26.2641 17.34C26.4721 17.34 26.6481 17.412 26.7921 17.556C26.9361 17.7 27.0081 17.876 27.0081 18.084C27.0081 18.292 26.9361 18.468 26.7921 18.612C26.6481 18.756 26.4721 18.828 26.2641 18.828C26.0561 18.828 25.8801 18.756 25.7361 18.612C25.5921 18.468 25.5201 18.292 25.5201 18.084ZM30.8459 25.116C30.8459 25.444 30.8539 25.704 30.8699 25.896C30.8859 26.08 30.9259 26.224 30.9899 26.328C31.0619 26.424 31.1619 26.488 31.2899 26.52C31.4259 26.552 31.6099 26.576 31.8419 26.592V27H28.6979V26.592C28.9219 26.576 29.0979 26.552 29.2259 26.52C29.3619 26.488 29.4659 26.424 29.5379 26.328C29.6099 26.232 29.6539 26.096 29.6699 25.92C29.6939 25.744 29.7059 25.504 29.7059 25.2V23.604C29.7059 22.652 29.6819 22.072 29.6339 21.864C29.6099 21.76 29.5779 21.676 29.5379 21.612C29.5059 21.54 29.4539 21.488 29.3819 21.456C29.3099 21.416 29.2179 21.392 29.1059 21.384C28.9939 21.368 28.8499 21.36 28.6739 21.36V20.976L30.5939 20.52L30.7379 21.708H30.7859C31.0899 21.332 31.4459 21.04 31.8539 20.832C32.2619 20.624 32.7059 20.52 33.1859 20.52C33.5539 20.52 33.8899 20.58 34.1939 20.7C34.4979 20.82 34.7299 20.984 34.8899 21.192C35.0259 21.376 35.1219 21.616 35.1779 21.912C35.2339 22.2 35.2619 22.6 35.2619 23.112V25.116C35.2619 25.444 35.2699 25.704 35.2859 25.896C35.3099 26.08 35.3539 26.224 35.4179 26.328C35.4819 26.424 35.5779 26.488 35.7059 26.52C35.8419 26.552 36.0179 26.576 36.2339 26.592V27H33.1259V26.592C33.3499 26.584 33.5259 26.564 33.6539 26.532C33.7899 26.492 33.8899 26.424 33.9539 26.328C34.0259 26.232 34.0699 26.096 34.0859 25.92C34.1099 25.736 34.1219 25.496 34.1219 25.2V23.616C34.1219 23.16 34.0979 22.776 34.0499 22.464C34.0019 22.152 33.9219 21.9 33.8099 21.708C33.7059 21.516 33.5659 21.38 33.3899 21.3C33.2139 21.212 33.0019 21.168 32.7539 21.168C32.3939 21.168 32.0619 21.264 31.7579 21.456C31.4619 21.64 31.2299 21.896 31.0619 22.224C31.0219 22.304 30.9859 22.38 30.9539 22.452C30.9299 22.524 30.9099 22.608 30.8939 22.704C30.8779 22.8 30.8659 22.912 30.8579 23.04C30.8499 23.16 30.8459 23.316 30.8459 23.508V25.116ZM42.7913 25.884C42.1113 26.708 41.2673 27.12 40.2593 27.12C39.7873 27.12 39.3593 27.044 38.9753 26.892C38.5913 26.732 38.2593 26.512 37.9793 26.232C37.7073 25.944 37.4953 25.604 37.3433 25.212C37.1913 24.812 37.1153 24.372 37.1153 23.892C37.1153 23.404 37.1953 22.952 37.3553 22.536C37.5153 22.12 37.7393 21.764 38.0273 21.468C38.3233 21.172 38.6713 20.94 39.0713 20.772C39.4793 20.604 39.9233 20.52 40.4033 20.52C41.1793 20.52 41.7793 20.732 42.2033 21.156C42.6273 21.572 42.8393 22.172 42.8393 22.956C42.8393 23.068 42.8153 23.136 42.7673 23.16C42.7273 23.184 42.6273 23.196 42.4673 23.196H38.5193C38.5033 23.26 38.4913 23.34 38.4833 23.436C38.4753 23.524 38.4713 23.624 38.4713 23.736C38.4713 24.152 38.5193 24.532 38.6153 24.876C38.7193 25.212 38.8633 25.5 39.0473 25.74C39.2393 25.98 39.4633 26.168 39.7193 26.304C39.9833 26.432 40.2753 26.496 40.5953 26.496C40.9313 26.496 41.2433 26.424 41.5313 26.28C41.8193 26.128 42.1153 25.884 42.4193 25.548L42.7913 25.884ZM40.8113 22.644C40.9713 22.644 41.0993 22.64 41.1953 22.632C41.2913 22.624 41.3633 22.608 41.4113 22.584C41.4593 22.56 41.4913 22.528 41.5073 22.488C41.5233 22.44 41.5313 22.38 41.5313 22.308C41.5313 21.94 41.4113 21.648 41.1713 21.432C40.9393 21.208 40.6193 21.096 40.2113 21.096C39.3473 21.096 38.8113 21.612 38.6033 22.644H40.8113ZM49.6703 25.884C48.9903 26.708 48.1463 27.12 47.1383 27.12C46.6663 27.12 46.2383 27.044 45.8543 26.892C45.4703 26.732 45.1383 26.512 44.8583 26.232C44.5863 25.944 44.3743 25.604 44.2223 25.212C44.0703 24.812 43.9943 24.372 43.9943 23.892C43.9943 23.404 44.0743 22.952 44.2343 22.536C44.3943 22.12 44.6183 21.764 44.9062 21.468C45.2023 21.172 45.5503 20.94 45.9503 20.772C46.3583 20.604 46.8023 20.52 47.2823 20.52C48.0583 20.52 48.6583 20.732 49.0823 21.156C49.5063 21.572 49.7183 22.172 49.7183 22.956C49.7183 23.068 49.6943 23.136 49.6463 23.16C49.6063 23.184 49.5063 23.196 49.3463 23.196H45.3983C45.3823 23.26 45.3703 23.34 45.3623 23.436C45.3543 23.524 45.3503 23.624 45.3503 23.736C45.3503 24.152 45.3983 24.532 45.4943 24.876C45.5983 25.212 45.7423 25.5 45.9263 25.74C46.1183 25.98 46.3423 26.168 46.5983 26.304C46.8623 26.432 47.1543 26.496 47.4743 26.496C47.8103 26.496 48.1223 26.424 48.4103 26.28C48.6983 26.128 48.9943 25.884 49.2983 25.548L49.6703 25.884ZM47.6903 22.644C47.8503 22.644 47.9783 22.64 48.0743 22.632C48.1703 22.624 48.2423 22.608 48.2903 22.584C48.3383 22.56 48.3703 22.528 48.3863 22.488C48.4023 22.44 48.4103 22.38 48.4103 22.308C48.4103 21.94 48.2903 21.648 48.0503 21.432C47.8183 21.208 47.4983 21.096 47.0903 21.096C46.2263 21.096 45.6903 21.612 45.4823 22.644H47.6903ZM52.9492 25.092C52.9492 25.42 52.9572 25.68 52.9732 25.872C52.9892 26.064 53.0292 26.212 53.0932 26.316C53.1652 26.412 53.2652 26.476 53.3932 26.508C53.5212 26.54 53.7012 26.564 53.9332 26.58V27H50.7412V26.58C50.9732 26.572 51.1572 26.552 51.2932 26.52C51.4292 26.48 51.5332 26.412 51.6052 26.316C51.6772 26.22 51.7212 26.084 51.7372 25.908C51.7612 25.724 51.7732 25.48 51.7732 25.176V23.772C51.7732 23.228 51.7652 22.804 51.7492 22.5C51.7412 22.196 51.7012 21.972 51.6292 21.828C51.5652 21.684 51.4612 21.6 51.3172 21.576C51.1732 21.544 50.9732 21.528 50.7172 21.528V21.108L52.8172 20.652L52.9852 22.14H53.0332C53.1372 21.9 53.2652 21.68 53.4172 21.48C53.5772 21.28 53.7492 21.112 53.9332 20.976C54.1172 20.832 54.3092 20.72 54.5092 20.64C54.7092 20.56 54.9132 20.52 55.1212 20.52C55.3772 20.52 55.5772 20.584 55.7212 20.712C55.8732 20.832 55.9492 20.996 55.9492 21.204C55.9492 21.396 55.8892 21.548 55.7692 21.66C55.6492 21.764 55.4772 21.816 55.2532 21.816C55.1252 21.816 55.0172 21.8 54.9292 21.768C54.8412 21.736 54.7612 21.704 54.6892 21.672C54.6252 21.632 54.5612 21.596 54.4972 21.564C54.4412 21.532 54.3772 21.516 54.3052 21.516C54.0892 21.516 53.8732 21.656 53.6572 21.936C53.4412 22.208 53.2732 22.556 53.1532 22.98C53.0892 23.212 53.0372 23.476 52.9972 23.772C52.9652 24.06 52.9492 24.364 52.9492 24.684V25.092ZM58.7399 25.092C58.7399 25.404 58.7519 25.656 58.7759 25.848C58.8079 26.032 58.8639 26.18 58.9439 26.292C59.0239 26.396 59.1359 26.468 59.2799 26.508C59.4239 26.548 59.6159 26.572 59.8559 26.58V27H56.4119V26.58C56.6519 26.572 56.8479 26.548 56.9999 26.508C57.1519 26.46 57.2679 26.388 57.3479 26.292C57.4359 26.188 57.4919 26.048 57.5159 25.872C57.5479 25.688 57.5639 25.456 57.5639 25.176V23.64C57.5639 23.176 57.5559 22.796 57.5399 22.5C57.5319 22.196 57.5119 21.988 57.4799 21.876C57.4399 21.692 57.3479 21.568 57.2039 21.504C57.0599 21.432 56.7879 21.396 56.3879 21.396V20.976L58.7399 20.52V25.092ZM57.3599 18.084C57.3599 17.876 57.4319 17.7 57.5759 17.556C57.7199 17.412 57.8959 17.34 58.1039 17.34C58.3119 17.34 58.4879 17.412 58.6319 17.556C58.7759 17.7 58.8479 17.876 58.8479 18.084C58.8479 18.292 58.7759 18.468 58.6319 18.612C58.4879 18.756 58.3119 18.828 58.1039 18.828C57.8959 18.828 57.7199 18.756 57.5759 18.612C57.4319 18.468 57.3599 18.292 57.3599 18.084ZM62.6858 25.116C62.6858 25.444 62.6938 25.704 62.7098 25.896C62.7258 26.08 62.7658 26.224 62.8298 26.328C62.9018 26.424 63.0018 26.488 63.1298 26.52C63.2658 26.552 63.4498 26.576 63.6818 26.592V27H60.5378V26.592C60.7618 26.576 60.9378 26.552 61.0658 26.52C61.2018 26.488 61.3058 26.424 61.3778 26.328C61.4498 26.232 61.4938 26.096 61.5098 25.92C61.5338 25.744 61.5458 25.504 61.5458 25.2V23.604C61.5458 22.652 61.5218 22.072 61.4738 21.864C61.4498 21.76 61.4178 21.676 61.3778 21.612C61.3458 21.54 61.2938 21.488 61.2218 21.456C61.1498 21.416 61.0578 21.392 60.9458 21.384C60.8338 21.368 60.6898 21.36 60.5138 21.36V20.976L62.4338 20.52L62.5778 21.708H62.6258C62.9298 21.332 63.2858 21.04 63.6938 20.832C64.1018 20.624 64.5458 20.52 65.0258 20.52C65.3938 20.52 65.7298 20.58 66.0338 20.7C66.3378 20.82 66.5698 20.984 66.7298 21.192C66.8658 21.376 66.9618 21.616 67.0178 21.912C67.0738 22.2 67.1018 22.6 67.1018 23.112V25.116C67.1018 25.444 67.1098 25.704 67.1258 25.896C67.1498 26.08 67.1938 26.224 67.2578 26.328C67.3218 26.424 67.4178 26.488 67.5458 26.52C67.6818 26.552 67.8578 26.576 68.0738 26.592V27H64.9658V26.592C65.1898 26.584 65.3658 26.564 65.4938 26.532C65.6298 26.492 65.7298 26.424 65.7938 26.328C65.8658 26.232 65.9098 26.096 65.9258 25.92C65.9498 25.736 65.9618 25.496 65.9618 25.2V23.616C65.9618 23.16 65.9378 22.776 65.8898 22.464C65.8418 22.152 65.7618 21.9 65.6498 21.708C65.5458 21.516 65.4058 21.38 65.2298 21.3C65.0538 21.212 64.8418 21.168 64.5938 21.168C64.2338 21.168 63.9018 21.264 63.5978 21.456C63.3018 21.64 63.0698 21.896 62.9018 22.224C62.8618 22.304 62.8258 22.38 62.7938 22.452C62.7698 22.524 62.7498 22.608 62.7338 22.704C62.7178 22.8 62.7058 22.912 62.6978 23.04C62.6898 23.16 62.6858 23.316 62.6858 23.508V25.116ZM71.6552 24.42C71.9912 24.42 72.2512 24.268 72.4352 23.964C72.6272 23.66 72.7232 23.232 72.7232 22.68C72.7232 22.136 72.6272 21.716 72.4352 21.42C72.2512 21.116 71.9872 20.964 71.6432 20.964C71.2992 20.964 71.0232 21.116 70.8152 21.42C70.6152 21.724 70.5152 22.14 70.5152 22.668C70.5152 23.196 70.6192 23.62 70.8272 23.94C71.0352 24.26 71.3112 24.42 71.6552 24.42ZM70.9952 25.824C71.1872 25.84 71.3632 25.856 71.5232 25.872C71.6832 25.888 71.8392 25.904 71.9912 25.92C72.1512 25.936 72.3072 25.956 72.4592 25.98C72.6192 26.004 72.7912 26.028 72.9752 26.052C73.5512 26.14 74.0112 26.364 74.3552 26.724C74.7072 27.076 74.8832 27.52 74.8832 28.056C74.8832 28.728 74.6152 29.24 74.0792 29.592C73.5512 29.944 72.7832 30.12 71.7752 30.12C71.3272 30.12 70.9152 30.08 70.5392 30C70.1712 29.92 69.8552 29.804 69.5912 29.652C69.3272 29.508 69.1192 29.332 68.9672 29.124C68.8232 28.916 68.7512 28.688 68.7512 28.44C68.7512 28.272 68.7792 28.116 68.8352 27.972C68.8912 27.828 68.9672 27.7 69.0632 27.588C69.1592 27.484 69.2712 27.4 69.3992 27.336C69.5352 27.272 69.6752 27.24 69.8192 27.24C70.0912 27.24 70.3352 27.324 70.5512 27.492C70.3352 27.54 70.1592 27.656 70.0232 27.84C69.8872 28.032 69.8192 28.248 69.8192 28.488C69.8192 28.84 69.9912 29.112 70.3352 29.304C70.6872 29.496 71.1832 29.592 71.8232 29.592C73.1912 29.592 73.8752 29.172 73.8752 28.332C73.8752 28.012 73.7672 27.744 73.5512 27.528C73.3352 27.32 73.0792 27.196 72.7832 27.156C72.5912 27.132 72.3912 27.104 72.1832 27.072C71.9832 27.048 71.7832 27.024 71.5832 27C71.3912 26.976 71.2112 26.956 71.0432 26.94C70.8752 26.924 70.7392 26.908 70.6352 26.892C70.1872 26.844 69.8472 26.724 69.6152 26.532C69.3832 26.34 69.2672 26.076 69.2672 25.74C69.2672 25.46 69.3832 25.212 69.6152 24.996C69.8472 24.78 70.1392 24.644 70.4912 24.588V24.54C70.3152 24.468 70.1512 24.368 69.9992 24.24C69.8472 24.104 69.7152 23.952 69.6032 23.784C69.4992 23.616 69.4152 23.436 69.3512 23.244C69.2872 23.044 69.2552 22.84 69.2552 22.632C69.2552 22.328 69.3112 22.048 69.4232 21.792C69.5432 21.536 69.7072 21.316 69.9152 21.132C70.1312 20.94 70.3832 20.792 70.6712 20.688C70.9592 20.576 71.2752 20.52 71.6192 20.52C71.9712 20.52 72.3032 20.576 72.6152 20.688C72.9272 20.792 73.1952 20.948 73.4192 21.156C73.6912 20.932 73.9312 20.772 74.1392 20.676C74.3472 20.572 74.5432 20.52 74.7272 20.52C75.0152 20.52 75.2432 20.588 75.4112 20.724C75.5872 20.852 75.6752 21.028 75.6752 21.252C75.6752 21.388 75.6272 21.496 75.5312 21.576C75.4432 21.656 75.3312 21.696 75.1952 21.696C75.0832 21.696 74.9912 21.676 74.9192 21.636C74.8472 21.596 74.7792 21.556 74.7152 21.516C74.6592 21.468 74.5992 21.424 74.5352 21.384C74.4712 21.344 74.3912 21.324 74.2952 21.324C74.1032 21.324 73.9072 21.392 73.7072 21.528C73.8992 21.824 73.9952 22.196 73.9952 22.644C73.9952 23.324 73.7832 23.86 73.3592 24.252C72.9352 24.636 72.2992 24.86 71.4512 24.924C70.9632 24.964 70.6232 25.016 70.4312 25.08C70.2392 25.144 70.1432 25.26 70.1432 25.428C70.1432 25.556 70.2152 25.652 70.3592 25.716C70.5032 25.772 70.7152 25.808 70.9952 25.824Z" fill="black"/>
<path d="M18.2393 33.5664C18.2393 33.5846 18.2562 33.5938 18.29 33.5938C18.3135 33.5938 18.4189 33.5781 18.6064 33.5469C18.7965 33.5156 18.9684 33.4987 19.1221 33.4961C18.9502 33.543 18.8018 33.5911 18.6768 33.6406C18.5544 33.6875 18.4268 33.7409 18.2939 33.8008C18.1637 33.8581 18.07 33.8971 18.0127 33.918C17.9554 33.9362 17.9059 33.9453 17.8643 33.9453C17.7314 33.9453 17.665 33.8594 17.665 33.6875C17.665 33.2448 17.777 32.9336 18.001 32.7539C18.0921 32.681 18.238 32.5951 18.4385 32.4961C18.6416 32.3945 18.8695 32.2995 19.1221 32.2109C19.3773 32.1198 19.6572 32.0417 19.9619 31.9766C20.2666 31.9115 20.5674 31.8789 20.8643 31.8789C21.1689 31.8789 21.4489 31.9232 21.7041 32.0117C21.9593 32.1003 22.1729 32.2253 22.3447 32.3867C22.5166 32.5456 22.6481 32.7409 22.7393 32.9727C22.833 33.2044 22.8799 33.4648 22.8799 33.7539C22.8799 34.194 22.7523 34.6211 22.4971 35.0352C22.2445 35.4492 21.9059 35.8151 21.4814 36.1328C21.0596 36.4479 20.583 36.6979 20.0518 36.8828C19.5205 37.0677 18.9971 37.1602 18.4814 37.1602C18.3851 37.1602 18.3083 37.1497 18.251 37.1289C18.1963 37.1081 18.1572 37.0664 18.1338 37.0039C18.1104 36.944 18.0986 36.8542 18.0986 36.7344C18.0986 36.5859 18.1104 36.4648 18.1338 36.3711C18.1572 36.2773 18.1963 36.1693 18.251 36.0469C18.626 35.2161 19.2783 34.1706 20.208 32.9102C20.0205 32.931 19.8148 32.9714 19.5908 33.0312C19.3669 33.0885 19.1546 33.1523 18.9541 33.2227C18.7536 33.293 18.5843 33.3607 18.4463 33.4258C18.3083 33.4909 18.2393 33.5378 18.2393 33.5664ZM20.3213 32.8867C20.3213 32.8919 20.3265 32.9219 20.3369 32.9766C20.3473 33.0286 20.3525 33.0742 20.3525 33.1133C20.3525 33.1732 20.3213 33.2578 20.2588 33.3672C20.1989 33.474 20.0791 33.6654 19.8994 33.9414C19.7197 34.2174 19.5661 34.4596 19.4385 34.668C19.3109 34.8763 19.1598 35.1445 18.9854 35.4727C18.9307 35.5768 18.8929 35.6471 18.8721 35.6836C18.8512 35.7201 18.8174 35.7799 18.7705 35.8633C18.7262 35.9466 18.6937 36.0182 18.6729 36.0781C18.652 36.138 18.6416 36.1836 18.6416 36.2148C18.6416 36.2826 18.6781 36.3307 18.751 36.3594C18.8265 36.3854 18.9333 36.3984 19.0713 36.3984C19.4255 36.3984 19.8005 36.3346 20.1963 36.207C20.5921 36.0768 20.9632 35.8971 21.3096 35.668C21.6585 35.4388 21.9372 35.1797 22.1455 34.8906C22.3538 34.6016 22.458 34.2995 22.458 33.9844C22.458 33.625 22.3265 33.349 22.0635 33.1562C21.8005 32.9609 21.4176 32.8633 20.915 32.8633C20.7041 32.8633 20.5062 32.8711 20.3213 32.8867ZM23.8446 35.9102V36.0078C23.8446 36.1615 23.8823 36.2812 23.9579 36.3672C24.0334 36.4531 24.1323 36.4961 24.2547 36.4961C24.3823 36.4961 24.5138 36.4661 24.6493 36.4062C24.7873 36.3464 24.924 36.2669 25.0594 36.168C25.1948 36.069 25.3602 35.9362 25.5555 35.7695V36.0078C25.2612 36.362 24.9852 36.6341 24.7274 36.8242C24.4696 37.0117 24.2079 37.1055 23.9422 37.1055C23.7105 37.1055 23.5269 37.0156 23.3914 36.8359C23.256 36.6562 23.1883 36.4102 23.1883 36.0977C23.1883 35.8242 23.2521 35.5768 23.3797 35.3555C23.5073 35.1315 23.7157 34.8958 24.0047 34.6484C24.2026 34.4792 24.3993 34.3516 24.5946 34.2656C24.7899 34.1797 24.9644 34.1367 25.118 34.1367C25.2404 34.1367 25.3368 34.1654 25.4071 34.2227C25.48 34.2773 25.5164 34.3607 25.5164 34.4727C25.5164 34.6367 25.4552 34.8008 25.3329 34.9648C25.2105 35.1263 25.023 35.2878 24.7704 35.4492C24.5204 35.6081 24.2118 35.7617 23.8446 35.9102ZM23.8836 35.6562C24.118 35.5651 24.3185 35.4518 24.4852 35.3164C24.6519 35.181 24.7743 35.0521 24.8524 34.9297C24.9331 34.8047 24.9735 34.7135 24.9735 34.6562C24.9735 34.5964 24.9461 34.5664 24.8914 34.5664C24.8446 34.5664 24.7677 34.5964 24.661 34.6562C24.5568 34.7161 24.45 34.7943 24.3407 34.8906C24.2339 34.987 24.1375 35.1003 24.0516 35.2305C23.9657 35.3607 23.9097 35.5026 23.8836 35.6562ZM27.5827 35.7266V36.0156C27.0384 36.737 26.5957 37.0977 26.2546 37.0977C26.0697 37.0977 25.9238 36.9974 25.8171 36.7969C25.7129 36.5938 25.6608 36.3281 25.6608 36C25.6608 35.7344 25.7233 35.4193 25.8483 35.0547C25.9733 34.6875 26.14 34.3164 26.3483 33.9414C26.5593 33.5638 26.7767 33.2357 27.0007 32.957C27.2272 32.6758 27.4369 32.4792 27.6296 32.3672C27.7077 32.3203 27.7689 32.2969 27.8132 32.2969C27.8679 32.2969 27.9043 32.3216 27.9225 32.3711C27.9408 32.418 27.9499 32.5 27.9499 32.6172C27.9499 32.9792 27.8027 33.4245 27.5085 33.9531C27.2142 34.4792 26.804 35.0169 26.278 35.5664C26.252 35.7018 26.2389 35.806 26.2389 35.8789C26.2389 36.0456 26.2741 36.181 26.3444 36.2852C26.4173 36.3893 26.5176 36.4414 26.6452 36.4414C26.7103 36.4414 26.7806 36.4167 26.8561 36.3672C26.9317 36.3151 27.0111 36.2513 27.0944 36.1758C27.1777 36.1003 27.3405 35.9505 27.5827 35.7266ZM26.4147 35.0234C26.5501 34.8906 26.6804 34.7396 26.8054 34.5703C26.933 34.401 27.0527 34.2201 27.1647 34.0273C27.2767 33.8346 27.3639 33.6615 27.4264 33.5078C27.4915 33.3542 27.5241 33.2383 27.5241 33.1602C27.5241 33.1003 27.5033 33.0703 27.4616 33.0703C27.446 33.0703 27.416 33.0846 27.3718 33.1133C27.2129 33.2435 27.0345 33.4987 26.8366 33.8789C26.6387 34.2565 26.4981 34.638 26.4147 35.0234ZM29.313 34.0234C29.2479 34.0234 29.1854 33.9987 29.1255 33.9492C29.0682 33.8997 29.0396 33.8372 29.0396 33.7617C29.0396 33.6471 29.0943 33.5195 29.2036 33.3789C29.313 33.2383 29.4263 33.168 29.5435 33.168C29.6216 33.168 29.6867 33.1927 29.7388 33.2422C29.7909 33.2891 29.8169 33.3581 29.8169 33.4492C29.8169 33.5612 29.7635 33.6849 29.6568 33.8203C29.55 33.9557 29.4354 34.0234 29.313 34.0234ZM29.5786 35.7695V36.0547C29.326 36.3802 29.0904 36.6263 28.8716 36.793C28.6529 36.957 28.4667 37.0391 28.313 37.0391C28.0995 37.0391 27.9406 36.9271 27.8364 36.7031C27.7323 36.4792 27.6802 36.2344 27.6802 35.9688C27.6802 35.8672 27.6906 35.7708 27.7114 35.6797C27.7323 35.5859 27.757 35.5091 27.7857 35.4492C27.8143 35.3893 27.8677 35.2956 27.9458 35.168C28.3156 34.5924 28.6542 34.3047 28.9614 34.3047C29.1203 34.3047 29.1997 34.3659 29.1997 34.4883C29.1997 34.5716 29.1476 34.7018 29.0435 34.8789C28.9419 35.056 28.8508 35.1823 28.77 35.2578C28.5435 35.4766 28.395 35.6289 28.3247 35.7148C28.257 35.8008 28.2232 35.8984 28.2232 36.0078C28.2232 36.1016 28.2583 36.1797 28.3286 36.2422C28.3989 36.3047 28.4901 36.3359 28.6021 36.3359C28.7245 36.3359 28.8586 36.2917 29.0044 36.2031C29.1529 36.112 29.3443 35.9674 29.5786 35.7695ZM30.2191 35.7773L30.1488 36.1055C30.1384 36.1471 30.1332 36.194 30.1332 36.2461C30.1332 36.3867 30.1918 36.457 30.3089 36.457C30.4209 36.457 30.6931 36.2383 31.1254 35.8008C31.128 35.6315 31.1905 35.4362 31.3129 35.2148C31.4379 34.9935 31.5746 34.7995 31.723 34.6328C31.874 34.4661 31.986 34.3828 32.0589 34.3828C32.1735 34.3828 32.2308 34.4583 32.2308 34.6094C32.2308 34.7005 32.2087 34.8125 32.1644 34.9453C32.1201 35.0755 32.055 35.2174 31.9691 35.3711C31.8832 35.5221 31.7777 35.6784 31.6527 35.8398C31.7178 35.957 31.7842 36.0156 31.8519 36.0156C31.9092 36.0156 31.9717 35.9961 32.0394 35.957C32.1097 35.9154 32.197 35.8529 32.3011 35.7695V36.0312C32.1553 36.1458 32.0394 36.224 31.9535 36.2656C31.8701 36.3073 31.7621 36.3281 31.6293 36.3281C31.5772 36.3281 31.4834 36.293 31.348 36.2227C31.0824 36.5039 30.8662 36.7148 30.6996 36.8555C30.5329 36.9935 30.3975 37.0625 30.2933 37.0625C30.1136 37.0625 29.96 36.9557 29.8324 36.7422C29.7074 36.526 29.6449 36.2891 29.6449 36.0312C29.6449 35.6849 29.8402 35.2695 30.2308 34.7852C30.348 34.6393 30.4418 34.5404 30.5121 34.4883C30.585 34.4336 30.667 34.4062 30.7582 34.4062C30.8363 34.4062 30.9105 34.4206 30.9808 34.4492C31.0511 34.4779 31.0863 34.5117 31.0863 34.5508C31.0863 34.681 30.999 34.8724 30.8246 35.125C30.6501 35.375 30.4483 35.5924 30.2191 35.7773ZM33.0783 35.9102V36.0078C33.0783 36.1615 33.1161 36.2812 33.1916 36.3672C33.2671 36.4531 33.3661 36.4961 33.4885 36.4961C33.6161 36.4961 33.7476 36.4661 33.883 36.4062C34.021 36.3464 34.1577 36.2669 34.2932 36.168C34.4286 36.069 34.5939 35.9362 34.7893 35.7695V36.0078C34.495 36.362 34.2189 36.6341 33.9611 36.8242C33.7033 37.0117 33.4416 37.1055 33.176 37.1055C32.9442 37.1055 32.7606 37.0156 32.6252 36.8359C32.4898 36.6562 32.4221 36.4102 32.4221 36.0977C32.4221 35.8242 32.4859 35.5768 32.6135 35.3555C32.7411 35.1315 32.9494 34.8958 33.2385 34.6484C33.4364 34.4792 33.633 34.3516 33.8283 34.2656C34.0236 34.1797 34.1981 34.1367 34.3518 34.1367C34.4742 34.1367 34.5705 34.1654 34.6408 34.2227C34.7137 34.2773 34.7502 34.3607 34.7502 34.4727C34.7502 34.6367 34.689 34.8008 34.5666 34.9648C34.4442 35.1263 34.2567 35.2878 34.0041 35.4492C33.7541 35.6081 33.4455 35.7617 33.0783 35.9102ZM33.1174 35.6562C33.3518 35.5651 33.5523 35.4518 33.7189 35.3164C33.8856 35.181 34.008 35.0521 34.0861 34.9297C34.1669 34.8047 34.2072 34.7135 34.2072 34.6562C34.2072 34.5964 34.1799 34.5664 34.1252 34.5664C34.0783 34.5664 34.0015 34.5964 33.8947 34.6562C33.7906 34.7161 33.6838 34.7943 33.5744 34.8906C33.4676 34.987 33.3713 35.1003 33.2854 35.2305C33.1994 35.3607 33.1434 35.5026 33.1174 35.6562ZM34.9102 36.0703V35.8164C35.0508 35.6497 35.1576 35.5078 35.2305 35.3906C35.1472 35.362 35.086 35.3268 35.0469 35.2852C35.0105 35.2435 34.9922 35.181 34.9922 35.0977C34.9922 35.0039 35.0313 34.8854 35.1094 34.7422C35.1875 34.599 35.2839 34.4648 35.3985 34.3398C35.5131 34.2148 35.6172 34.1341 35.711 34.0977C35.7474 34.0794 35.7826 34.0703 35.8164 34.0703C35.8685 34.0703 35.8946 34.0951 35.8946 34.1445C35.8946 34.1888 35.8542 34.2786 35.7735 34.4141C36.3099 34.3307 36.6485 34.2891 36.7891 34.2891C36.8438 34.2891 36.8815 34.2943 36.9024 34.3047C36.9467 34.3281 36.9831 34.3828 37.0118 34.4688C37.0404 34.5547 37.0547 34.6406 37.0547 34.7266C37.0547 34.7812 37.03 34.8411 36.9805 34.9062C36.9336 34.9688 36.8516 35.0612 36.7344 35.1836C36.5964 35.332 36.4805 35.4935 36.3868 35.668C36.293 35.8424 36.2461 35.974 36.2461 36.0625C36.2461 36.1849 36.3217 36.2461 36.4727 36.2461C36.6315 36.2461 36.9076 36.0846 37.3008 35.7617V36.0234C37.0847 36.25 36.9063 36.4284 36.7657 36.5586C36.625 36.6888 36.4948 36.793 36.375 36.8711C36.2552 36.9466 36.1485 36.9844 36.0547 36.9844C35.9454 36.9844 35.8542 36.9349 35.7813 36.8359C35.7084 36.7344 35.6719 36.5885 35.6719 36.3984C35.6719 36.2865 35.7006 36.1589 35.7579 36.0156C35.8151 35.8724 35.8985 35.7174 36.0079 35.5508C36.1198 35.3815 36.2448 35.2135 36.3829 35.0469C36.3099 35.0625 36.2279 35.0794 36.1368 35.0977C36.0456 35.1133 35.9493 35.1302 35.8477 35.1484C35.7461 35.1667 35.668 35.181 35.6133 35.1914C35.4519 35.5143 35.2175 35.8073 34.9102 36.0703ZM39.0468 34.0234C38.9817 34.0234 38.9192 33.9987 38.8593 33.9492C38.802 33.8997 38.7733 33.8372 38.7733 33.7617C38.7733 33.6471 38.828 33.5195 38.9374 33.3789C39.0468 33.2383 39.16 33.168 39.2772 33.168C39.3554 33.168 39.4205 33.1927 39.4725 33.2422C39.5246 33.2891 39.5507 33.3581 39.5507 33.4492C39.5507 33.5612 39.4973 33.6849 39.3905 33.8203C39.2837 33.9557 39.1692 34.0234 39.0468 34.0234ZM39.3124 35.7695V36.0547C39.0598 36.3802 38.8241 36.6263 38.6054 36.793C38.3866 36.957 38.2004 37.0391 38.0468 37.0391C37.8332 37.0391 37.6744 36.9271 37.5702 36.7031C37.466 36.4792 37.4139 36.2344 37.4139 35.9688C37.4139 35.8672 37.4244 35.7708 37.4452 35.6797C37.466 35.5859 37.4908 35.5091 37.5194 35.4492C37.5481 35.3893 37.6014 35.2956 37.6796 35.168C38.0494 34.5924 38.3879 34.3047 38.6952 34.3047C38.8541 34.3047 38.9335 34.3659 38.9335 34.4883C38.9335 34.5716 38.8814 34.7018 38.7772 34.8789C38.6757 35.056 38.5845 35.1823 38.5038 35.2578C38.2772 35.4766 38.1288 35.6289 38.0585 35.7148C37.9908 35.8008 37.9569 35.8984 37.9569 36.0078C37.9569 36.1016 37.9921 36.1797 38.0624 36.2422C38.1327 36.3047 38.2238 36.3359 38.3358 36.3359C38.4582 36.3359 38.5923 36.2917 38.7382 36.2031C38.8866 36.112 39.078 35.9674 39.3124 35.7695ZM42.0739 35.0625C41.6156 35.5729 41.3864 35.9284 41.3864 36.1289C41.3864 36.2409 41.432 36.2969 41.5232 36.2969C41.5987 36.2969 41.6963 36.2578 41.8161 36.1797C41.9385 36.099 42.1286 35.957 42.3864 35.7539V36.0234C42.0167 36.388 41.7328 36.651 41.5349 36.8125C41.337 36.974 41.1755 37.0547 41.0505 37.0547C40.837 37.0547 40.7302 36.9141 40.7302 36.6328C40.7302 36.5495 40.7432 36.4674 40.7693 36.3867C40.7953 36.306 40.8305 36.2227 40.8747 36.1367C40.9216 36.0482 40.9919 35.9232 41.0857 35.7617C41.1794 35.5977 41.2875 35.4128 41.4099 35.207C41.2614 35.2826 41.0752 35.4323 40.8513 35.6562C40.7055 35.7969 40.5818 35.931 40.4802 36.0586C40.3786 36.1836 40.2693 36.3242 40.1521 36.4805C40.0375 36.6341 39.9529 36.7383 39.8982 36.793C39.8461 36.8451 39.7927 36.8711 39.738 36.8711C39.6547 36.8711 39.5779 36.7839 39.5075 36.6094C39.4372 36.4349 39.4021 36.2318 39.4021 36C39.4021 35.8568 39.4177 35.7448 39.4489 35.6641C39.4828 35.5833 39.5479 35.4688 39.6443 35.3203C39.8239 35.0443 39.9789 34.8424 40.1091 34.7148C40.2393 34.5846 40.3643 34.5195 40.4841 34.5195C40.5674 34.5195 40.6338 34.5339 40.6833 34.5625C40.7354 34.5911 40.7614 34.6354 40.7614 34.6953C40.7614 34.7214 40.7536 34.7487 40.738 34.7773C40.7224 34.806 40.7042 34.832 40.6833 34.8555C40.6651 34.8789 40.6247 34.9245 40.5622 34.9922C40.1508 35.4479 39.945 35.7435 39.945 35.8789C39.945 35.9544 39.9698 35.9922 40.0193 35.9922C40.0505 35.9922 40.1104 35.9427 40.1989 35.8438C40.2901 35.7422 40.406 35.6107 40.5466 35.4492C40.6898 35.2852 40.8578 35.1146 41.0505 34.9375C41.2458 34.7604 41.4672 34.5898 41.7146 34.4258C41.8526 34.3294 41.9672 34.2812 42.0583 34.2812C42.1 34.2812 42.1404 34.3385 42.1794 34.4531C42.2211 34.5677 42.2419 34.6836 42.2419 34.8008C42.2419 34.8581 42.1859 34.9453 42.0739 35.0625ZM45.6285 36.0312L44.3316 37.0977C43.967 37.7279 43.635 38.1979 43.3355 38.5078C43.036 38.8203 42.8134 38.9766 42.6675 38.9766C42.5894 38.9766 42.5504 38.9284 42.5504 38.832C42.5504 38.6445 42.6454 38.4049 42.8355 38.1133C42.911 37.9987 42.997 37.8867 43.0933 37.7773C43.1923 37.668 43.2847 37.5729 43.3707 37.4922C43.4592 37.4141 43.5751 37.3151 43.7183 37.1953C43.8616 37.0781 43.9592 36.9974 44.0113 36.9531C44.2717 36.4219 44.4592 36.0156 44.5738 35.7344C44.329 35.9948 44.1155 36.2083 43.9332 36.375C43.7509 36.5417 43.5829 36.6706 43.4293 36.7617C43.2782 36.8503 43.1415 36.8945 43.0191 36.8945C42.8863 36.8945 42.7639 36.7891 42.6519 36.5781C42.5399 36.3646 42.4839 36.1458 42.4839 35.9219C42.4839 35.8177 42.5074 35.7083 42.5543 35.5938C42.6037 35.4792 42.6793 35.3568 42.7808 35.2266C42.885 35.0964 43.0165 34.9635 43.1754 34.8281C43.3342 34.6901 43.5204 34.556 43.7339 34.4258C44.1376 34.1732 44.4514 34.0469 44.6754 34.0469C44.842 34.0469 44.9254 34.1081 44.9254 34.2305C44.9254 34.3997 44.7444 34.5651 44.3824 34.7266C44.161 34.8229 43.941 34.9505 43.7222 35.1094C43.5061 35.2682 43.3303 35.4375 43.1949 35.6172C43.0621 35.7943 42.9957 35.9544 42.9957 36.0977C42.9957 36.168 43.0126 36.224 43.0464 36.2656C43.0803 36.3073 43.1246 36.3281 43.1793 36.3281C43.2704 36.3281 43.3746 36.2865 43.4918 36.2031C43.6089 36.1198 43.7821 35.9727 44.0113 35.7617C44.1155 35.6654 44.2535 35.5104 44.4254 35.2969C44.5998 35.0807 44.7431 34.9167 44.855 34.8047C44.9696 34.6901 45.0725 34.6328 45.1636 34.6328C45.2157 34.6328 45.2574 34.6497 45.2886 34.6836C45.3225 34.7148 45.3394 34.7617 45.3394 34.8242C45.3394 34.944 45.2912 35.1185 45.1949 35.3477C45.1011 35.5742 44.9306 35.9466 44.6832 36.4648L45.6285 35.7773V36.0312ZM53.3157 32.0781V32.3438C53.3157 32.4531 53.2935 32.5221 53.2493 32.5508C53.2076 32.5794 53.05 32.6562 52.7766 32.7812C52.5058 32.9062 52.2454 33.0534 51.9954 33.2227C52.0917 33.082 52.1789 32.9779 52.2571 32.9102C52.3378 32.8424 52.4459 32.7578 52.5813 32.6562C52.4641 32.6094 52.3013 32.5859 52.093 32.5859C51.7701 32.5859 51.4211 32.6497 51.0461 32.7773C50.6737 32.9049 50.356 33.0573 50.093 33.2344C49.8326 33.4115 49.7024 33.5599 49.7024 33.6797C49.7024 33.7422 49.7414 33.7943 49.8196 33.8359C49.9003 33.875 50.0279 33.9062 50.2024 33.9297C50.3795 33.9505 50.5995 33.9648 50.8625 33.9727C51.1256 33.9805 51.4498 33.9844 51.8352 33.9844C52.1164 33.9844 52.2974 33.9948 52.3782 34.0156C52.4589 34.0365 52.4993 34.0846 52.4993 34.1602C52.4993 34.2565 52.4511 34.3672 52.3547 34.4922C52.261 34.6146 52.136 34.6875 51.9797 34.7109C51.7375 34.75 51.5448 34.7839 51.4016 34.8125C51.2584 34.8385 51.0878 34.8841 50.8899 34.9492C50.6946 35.0143 50.4771 35.1081 50.2375 35.2305C49.8808 35.418 49.6021 35.6081 49.4016 35.8008C49.2011 35.9935 49.1008 36.1641 49.1008 36.3125C49.1008 36.4401 49.1724 36.5404 49.3157 36.6133C49.4589 36.6836 49.6646 36.7188 49.9329 36.7188C50.8573 36.7188 51.7987 36.3034 52.7571 35.4727C52.7623 35.7279 52.7336 35.9531 52.6711 36.1484C52.6112 36.3411 52.4875 36.526 52.3 36.7031C52.1438 36.8516 51.9146 36.9935 51.6125 37.1289C51.3131 37.2643 50.9849 37.3724 50.6282 37.4531C50.274 37.5339 49.9407 37.5742 49.6282 37.5742C49.2662 37.5742 48.9667 37.487 48.7297 37.3125C48.4927 37.1406 48.3743 36.9115 48.3743 36.625C48.3743 36.4167 48.4315 36.2096 48.5461 36.0039C48.6607 35.7982 48.8365 35.6016 49.0735 35.4141C49.3105 35.224 49.6099 35.0521 49.9719 34.8984C50.3365 34.7448 50.7558 34.6237 51.2297 34.5352C51.2974 34.5221 51.3313 34.5013 51.3313 34.4727C51.3313 34.4414 51.2909 34.4232 51.2102 34.418C51.1321 34.4102 50.9862 34.4049 50.7727 34.4023C50.5618 34.3997 50.3756 34.3906 50.2141 34.375C50.0526 34.3594 49.8821 34.3255 49.7024 34.2734C49.5175 34.2161 49.3743 34.1159 49.2727 33.9727C49.1737 33.8294 49.1243 33.6706 49.1243 33.4961C49.1243 33.2721 49.205 33.0469 49.3664 32.8203C49.5279 32.5938 49.7558 32.3893 50.05 32.207C50.3443 32.0247 50.6998 31.8789 51.1164 31.7695C51.5357 31.6576 51.994 31.6016 52.4914 31.6016C52.7779 31.6016 52.9771 31.6185 53.0891 31.6523C53.2037 31.6836 53.2701 31.7266 53.2883 31.7812C53.3065 31.8333 53.3157 31.9323 53.3157 32.0781ZM54.0225 35.7695V34.8477C53.9262 34.8711 53.8337 34.9128 53.7452 34.9727C53.6593 35.0326 53.5668 35.1068 53.4678 35.1953C53.3715 35.2839 53.3116 35.3281 53.2882 35.3281C53.2595 35.3281 53.2452 35.2904 53.2452 35.2148C53.2452 35.1393 53.322 35.0065 53.4757 34.8164C53.6319 34.6237 53.8038 34.4466 53.9913 34.2852C54.1788 34.1211 54.3142 34.0391 54.3975 34.0391C54.447 34.0391 54.49 34.0677 54.5264 34.125C54.5629 34.1823 54.5811 34.2604 54.5811 34.3594C54.5811 34.4245 54.5798 34.4844 54.5772 34.5391C54.5746 34.5938 54.572 34.6667 54.5694 34.7578C54.5668 34.849 54.5629 34.9805 54.5577 35.1523C55.1332 34.5378 55.4744 34.2305 55.5811 34.2305C55.6124 34.2305 55.6371 34.2435 55.6553 34.2695C55.6762 34.293 55.6866 34.3229 55.6866 34.3594C55.6866 34.4453 55.6163 34.5781 55.4757 34.7578C55.3376 34.9349 55.2452 35.0234 55.1983 35.0234C55.1332 35.0234 55.0824 35.013 55.046 34.9922L54.5499 35.625C54.5551 35.8542 54.5746 36.0247 54.6085 36.1367C54.6449 36.2487 54.7087 36.3047 54.7999 36.3047C54.878 36.3047 54.9692 36.2656 55.0733 36.1875C55.1775 36.1094 55.3468 35.9648 55.5811 35.7539V36.0234C55.0473 36.7604 54.6697 37.1289 54.4483 37.1289C54.3103 37.1289 54.2113 37.056 54.1514 36.9102C54.0942 36.7643 54.0564 36.5404 54.0382 36.2383C53.947 36.332 53.8402 36.4453 53.7178 36.5781C53.5955 36.7109 53.5056 36.806 53.4483 36.8633C53.3936 36.918 53.3428 36.9635 53.296 37C53.2517 37.0365 53.2113 37.0547 53.1749 37.0547C53.1384 37.0547 53.1202 37.0234 53.1202 36.9609C53.1202 36.8568 53.1749 36.7135 53.2843 36.5312C53.3962 36.349 53.477 36.2578 53.5264 36.2578C53.5317 36.2578 53.5434 36.2604 53.5616 36.2656C53.5798 36.2708 53.5889 36.2734 53.5889 36.2734L54.0225 35.7695ZM58.1005 35.7773V36.0391C57.8219 36.3125 57.594 36.5247 57.4169 36.6758C57.2424 36.8268 57.0784 36.944 56.9247 37.0273C56.7737 37.1107 56.6252 37.1523 56.4794 37.1523C56.3362 37.1523 56.2047 37.0964 56.0849 36.9844C55.9651 36.8698 55.8713 36.7214 55.8036 36.5391C55.7359 36.3542 55.7021 36.1589 55.7021 35.9531C55.7021 35.776 55.7411 35.6185 55.8193 35.4805C55.8974 35.3424 56.0484 35.1641 56.2724 34.9453C56.538 34.6849 56.7841 34.4844 57.0107 34.3438C57.2398 34.2005 57.4195 34.1289 57.5497 34.1289C57.6435 34.1289 57.7229 34.1615 57.788 34.2266C57.8531 34.2917 57.8857 34.3737 57.8857 34.4727C57.8857 34.556 57.8427 34.6745 57.7568 34.8281C57.6708 34.9818 57.5745 35.1159 57.4677 35.2305C57.3609 35.3424 57.2763 35.3984 57.2138 35.3984C57.1461 35.3984 57.1122 35.362 57.1122 35.2891C57.1148 35.2682 57.1161 35.2487 57.1161 35.2305C57.1187 35.2122 57.12 35.194 57.12 35.1758C57.12 35.1445 57.1083 35.1276 57.0849 35.125C57.0641 35.1198 57.038 35.1289 57.0068 35.1523C56.7463 35.3346 56.568 35.4635 56.4716 35.5391C56.3752 35.612 56.2984 35.6862 56.2411 35.7617C56.1864 35.8372 56.1591 35.9167 56.1591 36C56.1591 36.1536 56.2086 36.2786 56.3075 36.375C56.4065 36.4714 56.5354 36.5195 56.6943 36.5195C56.8583 36.5195 57.0549 36.457 57.2841 36.332C57.5159 36.2044 57.788 36.0195 58.1005 35.7773ZM58.8699 35.9102V36.0078C58.8699 36.1615 58.9076 36.2812 58.9832 36.3672C59.0587 36.4531 59.1576 36.4961 59.28 36.4961C59.4076 36.4961 59.5392 36.4661 59.6746 36.4062C59.8126 36.3464 59.9493 36.2669 60.0847 36.168C60.2201 36.069 60.3855 35.9362 60.5808 35.7695V36.0078C60.2866 36.362 60.0105 36.6341 59.7527 36.8242C59.4949 37.0117 59.2332 37.1055 58.9675 37.1055C58.7358 37.1055 58.5522 37.0156 58.4168 36.8359C58.2813 36.6562 58.2136 36.4102 58.2136 36.0977C58.2136 35.8242 58.2774 35.5768 58.405 35.3555C58.5326 35.1315 58.741 34.8958 59.03 34.6484C59.228 34.4792 59.4246 34.3516 59.6199 34.2656C59.8152 34.1797 59.9897 34.1367 60.1433 34.1367C60.2657 34.1367 60.3621 34.1654 60.4324 34.2227C60.5053 34.2773 60.5418 34.3607 60.5418 34.4727C60.5418 34.6367 60.4806 34.8008 60.3582 34.9648C60.2358 35.1263 60.0483 35.2878 59.7957 35.4492C59.5457 35.6081 59.2371 35.7617 58.8699 35.9102ZM58.9089 35.6562C59.1433 35.5651 59.3438 35.4518 59.5105 35.3164C59.6772 35.181 59.7996 35.0521 59.8777 34.9297C59.9584 34.8047 59.9988 34.7135 59.9988 34.6562C59.9988 34.5964 59.9714 34.5664 59.9168 34.5664C59.8699 34.5664 59.7931 34.5964 59.6863 34.6562C59.5821 34.7161 59.4754 34.7943 59.366 34.8906C59.2592 34.987 59.1629 35.1003 59.0769 35.2305C58.991 35.3607 58.935 35.5026 58.9089 35.6562ZM62.608 35.7266V36.0156C62.0637 36.737 61.621 37.0977 61.2799 37.0977C61.095 37.0977 60.9492 36.9974 60.8424 36.7969C60.7382 36.5938 60.6861 36.3281 60.6861 36C60.6861 35.7344 60.7486 35.4193 60.8736 35.0547C60.9986 34.6875 61.1653 34.3164 61.3736 33.9414C61.5846 33.5638 61.802 33.2357 62.026 32.957C62.2525 32.6758 62.4622 32.4792 62.6549 32.3672C62.733 32.3203 62.7942 32.2969 62.8385 32.2969C62.8932 32.2969 62.9296 32.3216 62.9479 32.3711C62.9661 32.418 62.9752 32.5 62.9752 32.6172C62.9752 32.9792 62.8281 33.4245 62.5338 33.9531C62.2395 34.4792 61.8294 35.0169 61.3033 35.5664C61.2773 35.7018 61.2643 35.806 61.2643 35.8789C61.2643 36.0456 61.2994 36.181 61.3697 36.2852C61.4426 36.3893 61.5429 36.4414 61.6705 36.4414C61.7356 36.4414 61.8059 36.4167 61.8814 36.3672C61.957 36.3151 62.0364 36.2513 62.1197 36.1758C62.2031 36.1003 62.3658 35.9505 62.608 35.7266ZM61.44 35.0234C61.5755 34.8906 61.7057 34.7396 61.8307 34.5703C61.9583 34.401 62.0781 34.2201 62.19 34.0273C62.302 33.8346 62.3893 33.6615 62.4518 33.5078C62.5169 33.3542 62.5494 33.2383 62.5494 33.1602C62.5494 33.1003 62.5286 33.0703 62.4869 33.0703C62.4713 33.0703 62.4413 33.0846 62.3971 33.1133C62.2382 33.2435 62.0598 33.4987 61.8619 33.8789C61.664 34.2565 61.5234 34.638 61.44 35.0234ZM64.6039 35.7266V36.0156C64.0597 36.737 63.617 37.0977 63.2758 37.0977C63.0909 37.0977 62.9451 36.9974 62.8383 36.7969C62.7342 36.5938 62.6821 36.3281 62.6821 36C62.6821 35.7344 62.7446 35.4193 62.8696 35.0547C62.9946 34.6875 63.1612 34.3164 63.3696 33.9414C63.5805 33.5638 63.798 33.2357 64.0219 32.957C64.2485 32.6758 64.4581 32.4792 64.6508 32.3672C64.7289 32.3203 64.7901 32.2969 64.8344 32.2969C64.8891 32.2969 64.9256 32.3216 64.9438 32.3711C64.962 32.418 64.9711 32.5 64.9711 32.6172C64.9711 32.9792 64.824 33.4245 64.5297 33.9531C64.2355 34.4792 63.8253 35.0169 63.2993 35.5664C63.2732 35.7018 63.2602 35.806 63.2602 35.8789C63.2602 36.0456 63.2954 36.181 63.3657 36.2852C63.4386 36.3893 63.5388 36.4414 63.6664 36.4414C63.7316 36.4414 63.8019 36.4167 63.8774 36.3672C63.9529 36.3151 64.0323 36.2513 64.1157 36.1758C64.199 36.1003 64.3618 35.9505 64.6039 35.7266ZM63.436 35.0234C63.5714 34.8906 63.7016 34.7396 63.8266 34.5703C63.9542 34.401 64.074 34.2201 64.186 34.0273C64.298 33.8346 64.3852 33.6615 64.4477 33.5078C64.5128 33.3542 64.5454 33.2383 64.5454 33.1602C64.5454 33.1003 64.5245 33.0703 64.4829 33.0703C64.4672 33.0703 64.4373 33.0846 64.393 33.1133C64.2342 33.2435 64.0558 33.4987 63.8579 33.8789C63.6599 34.2565 63.5193 34.638 63.436 35.0234ZM65.3577 35.9102V36.0078C65.3577 36.1615 65.3955 36.2812 65.471 36.3672C65.5465 36.4531 65.6455 36.4961 65.7679 36.4961C65.8955 36.4961 66.027 36.4661 66.1624 36.4062C66.3004 36.3464 66.4371 36.2669 66.5725 36.168C66.708 36.069 66.8733 35.9362 67.0686 35.7695V36.0078C66.7744 36.362 66.4983 36.6341 66.2405 36.8242C65.9827 37.0117 65.721 37.1055 65.4554 37.1055C65.2236 37.1055 65.04 37.0156 64.9046 36.8359C64.7692 36.6562 64.7014 36.4102 64.7014 36.0977C64.7014 35.8242 64.7652 35.5768 64.8929 35.3555C65.0205 35.1315 65.2288 34.8958 65.5179 34.6484C65.7158 34.4792 65.9124 34.3516 66.1077 34.2656C66.303 34.1797 66.4775 34.1367 66.6311 34.1367C66.7535 34.1367 66.8499 34.1654 66.9202 34.2227C66.9931 34.2773 67.0296 34.3607 67.0296 34.4727C67.0296 34.6367 66.9684 34.8008 66.846 34.9648C66.7236 35.1263 66.5361 35.2878 66.2835 35.4492C66.0335 35.6081 65.7249 35.7617 65.3577 35.9102ZM65.3968 35.6562C65.6311 35.5651 65.8317 35.4518 65.9983 35.3164C66.165 35.181 66.2874 35.0521 66.3655 34.9297C66.4462 34.8047 66.4866 34.7135 66.4866 34.6562C66.4866 34.5964 66.4593 34.5664 66.4046 34.5664C66.3577 34.5664 66.2809 34.5964 66.1741 34.6562C66.0699 34.7161 65.9632 34.7943 65.8538 34.8906C65.747 34.987 65.6507 35.1003 65.5647 35.2305C65.4788 35.3607 65.4228 35.5026 65.3968 35.6562ZM69.8614 35.0625C69.4031 35.5729 69.1739 35.9284 69.1739 36.1289C69.1739 36.2409 69.2195 36.2969 69.3107 36.2969C69.3862 36.2969 69.4838 36.2578 69.6036 36.1797C69.726 36.099 69.9161 35.957 70.1739 35.7539V36.0234C69.8042 36.388 69.5203 36.651 69.3224 36.8125C69.1245 36.974 68.963 37.0547 68.838 37.0547C68.6245 37.0547 68.5177 36.9141 68.5177 36.6328C68.5177 36.5495 68.5307 36.4674 68.5568 36.3867C68.5828 36.306 68.618 36.2227 68.6622 36.1367C68.7091 36.0482 68.7794 35.9232 68.8732 35.7617C68.9669 35.5977 69.075 35.4128 69.1974 35.207C69.0489 35.2826 68.8627 35.4323 68.6388 35.6562C68.493 35.7969 68.3693 35.931 68.2677 36.0586C68.1661 36.1836 68.0568 36.3242 67.9396 36.4805C67.825 36.6341 67.7404 36.7383 67.6857 36.793C67.6336 36.8451 67.5802 36.8711 67.5255 36.8711C67.4422 36.8711 67.3654 36.7839 67.295 36.6094C67.2247 36.4349 67.1896 36.2318 67.1896 36C67.1896 35.8568 67.2052 35.7448 67.2364 35.6641C67.2703 35.5833 67.3354 35.4688 67.4318 35.3203C67.6114 35.0443 67.7664 34.8424 67.8966 34.7148C68.0268 34.5846 68.1518 34.5195 68.2716 34.5195C68.3549 34.5195 68.4213 34.5339 68.4708 34.5625C68.5229 34.5911 68.5489 34.6354 68.5489 34.6953C68.5489 34.7214 68.5411 34.7487 68.5255 34.7773C68.5099 34.806 68.4917 34.832 68.4708 34.8555C68.4526 34.8789 68.4122 34.9245 68.3497 34.9922C67.9383 35.4479 67.7325 35.7435 67.7325 35.8789C67.7325 35.9544 67.7573 35.9922 67.8068 35.9922C67.838 35.9922 67.8979 35.9427 67.9864 35.8438C68.0776 35.7422 68.1935 35.6107 68.3341 35.4492C68.4773 35.2852 68.6453 35.1146 68.838 34.9375C69.0333 34.7604 69.2547 34.5898 69.5021 34.4258C69.6401 34.3294 69.7547 34.2812 69.8458 34.2812C69.8875 34.2812 69.9279 34.3385 69.9669 34.4531C70.0086 34.5677 70.0294 34.6836 70.0294 34.8008C70.0294 34.8581 69.9734 34.9453 69.8614 35.0625ZM72.6621 35.7773V36.0391C72.3834 36.3125 72.1556 36.5247 71.9785 36.6758C71.804 36.8268 71.6399 36.944 71.4863 37.0273C71.3352 37.1107 71.1868 37.1523 71.041 37.1523C70.8977 37.1523 70.7662 37.0964 70.6464 36.9844C70.5267 36.8698 70.4329 36.7214 70.3652 36.5391C70.2975 36.3542 70.2636 36.1589 70.2636 35.9531C70.2636 35.776 70.3027 35.6185 70.3808 35.4805C70.4589 35.3424 70.61 35.1641 70.8339 34.9453C71.0996 34.6849 71.3457 34.4844 71.5722 34.3438C71.8014 34.2005 71.9811 34.1289 72.1113 34.1289C72.205 34.1289 72.2845 34.1615 72.3496 34.2266C72.4147 34.2917 72.4472 34.3737 72.4472 34.4727C72.4472 34.556 72.4043 34.6745 72.3183 34.8281C72.2324 34.9818 72.136 35.1159 72.0293 35.2305C71.9225 35.3424 71.8379 35.3984 71.7754 35.3984C71.7076 35.3984 71.6738 35.362 71.6738 35.2891C71.6764 35.2682 71.6777 35.2487 71.6777 35.2305C71.6803 35.2122 71.6816 35.194 71.6816 35.1758C71.6816 35.1445 71.6699 35.1276 71.6464 35.125C71.6256 35.1198 71.5996 35.1289 71.5683 35.1523C71.3079 35.3346 71.1295 35.4635 71.0332 35.5391C70.9368 35.612 70.86 35.6862 70.8027 35.7617C70.748 35.8372 70.7207 35.9167 70.7207 36C70.7207 36.1536 70.7701 36.2786 70.8691 36.375C70.9681 36.4714 71.097 36.5195 71.2558 36.5195C71.4199 36.5195 71.6165 36.457 71.8457 36.332C72.0774 36.2044 72.3496 36.0195 72.6621 35.7773ZM73.4314 35.9102V36.0078C73.4314 36.1615 73.4692 36.2812 73.5447 36.3672C73.6202 36.4531 73.7192 36.4961 73.8416 36.4961C73.9692 36.4961 74.1007 36.4661 74.2361 36.4062C74.3742 36.3464 74.5109 36.2669 74.6463 36.168C74.7817 36.069 74.9471 35.9362 75.1424 35.7695V36.0078C74.8481 36.362 74.5721 36.6341 74.3143 36.8242C74.0564 37.0117 73.7947 37.1055 73.5291 37.1055C73.2973 37.1055 73.1137 37.0156 72.9783 36.8359C72.8429 36.6562 72.7752 36.4102 72.7752 36.0977C72.7752 35.8242 72.839 35.5768 72.9666 35.3555C73.0942 35.1315 73.3025 34.8958 73.5916 34.6484C73.7895 34.4792 73.9861 34.3516 74.1814 34.2656C74.3768 34.1797 74.5512 34.1367 74.7049 34.1367C74.8273 34.1367 74.9236 34.1654 74.9939 34.2227C75.0669 34.2773 75.1033 34.3607 75.1033 34.4727C75.1033 34.6367 75.0421 34.8008 74.9197 34.9648C74.7973 35.1263 74.6098 35.2878 74.3572 35.4492C74.1072 35.6081 73.7986 35.7617 73.4314 35.9102ZM73.4705 35.6562C73.7049 35.5651 73.9054 35.4518 74.0721 35.3164C74.2387 35.181 74.3611 35.0521 74.4393 34.9297C74.52 34.8047 74.5604 34.7135 74.5604 34.6562C74.5604 34.5964 74.533 34.5664 74.4783 34.5664C74.4314 34.5664 74.3546 34.5964 74.2479 34.6562C74.1437 34.7161 74.0369 34.7943 73.9275 34.8906C73.8208 34.987 73.7244 35.1003 73.6385 35.2305C73.5525 35.3607 73.4966 35.5026 73.4705 35.6562Z" fill="black"/>
</svg>
